<?xml version="1.0" encoding="utf-8"?>
<!-- Generator: Adobe Illustrator 21.0.0, SVG Export Plug-In . SVG Version: 6.00 Build 0)  -->
<svg version="1.1" id="Capa_1" xmlns="http://www.w3.org/2000/svg" xmlns:xlink="http://www.w3.org/1999/xlink" x="0px" y="0px"
	 viewBox="0 0 50 50" style="enable-background:new 0 0 50 50;" xml:space="preserve">
<title>birthday</title>
<path d="M45.2,29.2c-3,2-7.1,1.4-9.3-1.4c-2.3,2.9-6.5,3.5-9.5,1.3c-0.5-0.4-1-0.8-1.4-1.3c-2.3,2.9-6.5,3.5-9.5,1.3
	c-0.5-0.4-1-0.8-1.4-1.3c-2.2,2.8-6.3,3.5-9.3,1.4v5.3c0.8-0.4,1.6-0.6,2.5-0.7C9.8,33.5,11.8,34,14,35c0.9,0.4,2,1,3.1,1
	c1,0,1.8-0.3,2.7-0.7c1.8-0.8,3.8-1.8,5.9-1.8c2.2,0,4.2,0.9,6.2,1.9c1.8,0.9,3.6,1.6,5.6,0.7c2.1-1,4-2.5,6.4-2.8
	c0.5-0.1,1-0.1,1.5-0.1L45.2,29.2L45.2,29.2L45.2,29.2z"/>
<path d="M41.6,38.2c-1.8,1-3.7,2.1-5.8,2.2c-1.9,0.1-3.7-0.6-5.5-1.4c-1.5-0.7-3.1-1.7-4.8-1.6c-1.9,0.1-3.6,1.4-5.3,2
	c-1.9,0.7-3.9,0.8-5.8,0.1c-1.8-0.7-3.6-1.9-5.5-1.9c-1.7,0-3,0.7-4.1,1.8v3.8h40.5v-6.1C44.1,36.8,42.6,37.7,41.6,38.2z"/>
<path d="M45.4,27.3c0,0,0.1-0.1,0.1-0.1c0.8-1,1.3-2.1,1.3-3.4V15H27.2v-4.8c-1.3,0.8-3,0.8-4.4,0V15H3.2v8.8c0,1.2,0.4,2.4,1.3,3.4
	c0,0,0.1,0.1,0.1,0.1c0,0,0.1,0.1,0.1,0.1c2.1,2.1,5.6,2.1,7.7,0.1c1.1-1,1.6-2.4,1.6-3.8c0,2.9,2.4,5.3,5.4,5.3s5.5-2.3,5.5-5.2
	c0,0,0-0.1,0-0.1c0,2.9,2.4,5.3,5.4,5.3s5.5-2.3,5.5-5.2c0,0,0-0.1,0-0.1c0,2.9,2.4,5.3,5.5,5.3c1.5,0,2.9-0.6,3.9-1.6
	C45.3,27.4,45.3,27.4,45.4,27.3z"/>
<path d="M25,50c13.8,0,25-2.5,25-5.5H0C0,47.5,11.2,50,25,50z"/>
<path d="M23.6,9.1c0.9,0.5,1.9,0.5,2.8,0c1-0.6,1.6-1.7,1.6-2.9C28,5.3,26.5,0,24.9,0l0,0c-1.5,0-3,5.3-3,6.2
	C22,7.5,22.6,8.6,23.6,9.1z"/>
</svg>
