<?xml version="1.0" encoding="utf-8"?>
<!-- Generator: Adobe Illustrator 21.0.0, SVG Export Plug-In . SVG Version: 6.00 Build 0)  -->
<svg version="1.1" id="Layer_1" xmlns="http://www.w3.org/2000/svg" xmlns:xlink="http://www.w3.org/1999/xlink" x="0px" y="0px"
	 viewBox="0 0 50 50" style="enable-background:new 0 0 50 50;" xml:space="preserve">
<title>calendar</title>
<path d="M18.1,27.6c0-0.6-0.5-1.1-1.2-1.1h-4c-0.6,0-1.1,0.5-1.1,1.1v4c0,0.6,0.5,1.1,1.1,1.1h4c0.6,0,1.1-0.5,1.2-1.1L18.1,27.6
	L18.1,27.6z"/>
<path d="M28.2,27.6c0-0.6-0.5-1.1-1.2-1.1h-4c-0.6,0-1.1,0.5-1.2,1.1v3.9c0,0.6,0.5,1.1,1.2,1.1h4c0.6,0,1.1-0.5,1.2-1.1V27.6z"/>
<path d="M38.3,27.6c0-0.6-0.5-1.1-1.2-1.1h-4c-0.6,0-1.1,0.5-1.2,1.1v4c0,0.6,0.5,1.1,1.2,1.1h4.1c0.6,0,1.1-0.5,1.1-1.1V27.6
	L38.3,27.6z"/>
<path d="M18.1,37.5c0-0.6-0.5-1.1-1.2-1.1h-4c-0.6,0-1.1,0.5-1.1,1.1v4c0,0.6,0.5,1.1,1.1,1.1h4c0.6,0,1.1-0.5,1.2-1.1L18.1,37.5
	L18.1,37.5z"/>
<path d="M28.2,37.5c0-0.6-0.5-1.1-1.2-1.1h-4c-0.6,0-1.1,0.5-1.2,1.1v4c0,0.6,0.5,1.1,1.2,1.1h4c0.6,0,1.1-0.5,1.2-1.1V37.5z"/>
<path d="M38.3,37.5c0-0.6-0.5-1.1-1.2-1.1h-4c-0.6,0-1.1,0.5-1.2,1.1v4c0,0.6,0.5,1.1,1.2,1.1h4.1c0.6,0,1.1-0.5,1.2-1.1L38.3,37.5
	L38.3,37.5z"/>
<path d="M45.5,5.6v6c0,2.7-2.3,4.9-5,4.9l0,0h-3.2c-2.8,0-5.1-2.2-5.1-4.9V5.5H17.8v6.1c0,2.7-2.3,5-5.1,5H9.5c-2.8,0-5-2.2-5-4.9
	c0,0,0,0,0,0v-6C2,5.6,0,7.6,0,10v35.5C0,48,2,50,4.6,50h40.8c2.5,0,4.6-2,4.6-4.5V10C50,7.6,48,5.6,45.5,5.6z M44,43.3
	c0,1.1-0.9,1.9-2,1.9H7.8c-1.1,0-2-0.9-2-1.9V25c0-1.1,0.9-1.9,2-1.9h34.2c1.1,0,2,0.9,2,1.9V43.3L44,43.3z"/>
<path d="M9.5,13.3h3.2c1,0,1.7-0.8,1.7-1.7l0,0V1.7c0-0.9-0.8-1.7-1.7-1.7H9.5c-1,0-1.7,0.8-1.7,1.7l0,0v9.9
	C7.8,12.6,8.5,13.3,9.5,13.3C9.5,13.3,9.5,13.3,9.5,13.3z"/>
<path d="M37.2,13.3h3.2c1,0,1.7-0.8,1.7-1.7V1.7c0-0.9-0.8-1.7-1.7-1.7h-3.2c-1,0-1.7,0.8-1.7,1.7l0,0v9.9
	C35.5,12.6,36.3,13.3,37.2,13.3C37.2,13.3,37.2,13.3,37.2,13.3z"/>
</svg>
