<?xml version="1.0" encoding="utf-8"?>
<!-- Generator: Adobe Illustrator 21.0.0, SVG Export Plug-In . SVG Version: 6.00 Build 0)  -->
<svg version="1.1" id="Layer_1" xmlns="http://www.w3.org/2000/svg" xmlns:xlink="http://www.w3.org/1999/xlink" x="0px" y="0px"
	 viewBox="0 0 50 50" style="enable-background:new 0 0 50 50;" xml:space="preserve">
<title>check-mark</title>
<path d="M22.7,41.9c-2.3,2.3-5.9,2.3-8.2,0l0,0L1.8,29.3c-2.3-2.2-2.5-5.8-0.4-8.2s5.8-2.5,8.2-0.4c0.2,0.1,0.3,0.3,0.4,0.4l7.5,7.5
	c0.6,0.6,1.5,0.6,2.1,0l0,0L40,8.2c2.2-2.3,5.9-2.5,8.2-0.3c2.3,2.2,2.5,5.9,0.3,8.2c-0.1,0.1-0.2,0.2-0.3,0.3L22.7,41.9z"/>
</svg>
