<?xml version="1.0" encoding="utf-8"?>
<!-- Generator: Adobe Illustrator 21.0.0, SVG Export Plug-In . SVG Version: 6.00 Build 0)  -->
<svg version="1.1" id="Layer_1" xmlns="http://www.w3.org/2000/svg" xmlns:xlink="http://www.w3.org/1999/xlink" x="0px" y="0px"
	 viewBox="0 0 50 50" style="enable-background:new 0 0 50 50;" xml:space="preserve">
<title>clipboard</title>
<path d="M4.8,25c-0.2-4.5,3.2-8.3,7.7-8.7h10v-5.3h-10C5.2,11.4-0.3,17.7,0.1,25c-0.4,7.3,5.1,13.6,12.4,14.1h10v-5.4h-10
	C8,33.3,4.6,29.5,4.8,25z M15,27.8h19.9v-5.6H15V27.8z M37.4,10.9h-9.9v5.3h10c4.5,0.4,7.9,4.2,7.7,8.7c0.2,4.5-3.2,8.3-7.7,8.7
	h-9.9V39h10c7.3-0.5,12.8-6.7,12.5-14.1C50.3,17.7,44.7,11.4,37.4,10.9z"/>
</svg>
