<?xml version="1.0" encoding="utf-8"?>
<!-- Generator: Adobe Illustrator 21.0.0, SVG Export Plug-In . SVG Version: 6.00 Build 0)  -->
<svg version="1.1" id="Layer_1" xmlns="http://www.w3.org/2000/svg" xmlns:xlink="http://www.w3.org/1999/xlink" x="0px" y="0px"
	 viewBox="0 0 50 50" style="enable-background:new 0 0 50 50;" xml:space="preserve">
<title>close</title>
<path d="M48.4,9.8L33.2,25l15.2,15.2c2.2,2.2,2.3,5.9,0,8.1c-2.2,2.2-5.9,2.3-8.1,0l0,0L25.1,33.1L9.9,48.3c-2.2,2.2-5.9,2.2-8.1,0
	c-2.2-2.2-2.2-5.9,0-8.1L16.9,25L1.8,9.8c-2.2-2.3-2.2-5.9,0.1-8.2c2.2-2.2,5.8-2.2,8.1,0l15.2,15.2L40.2,1.7c2.2-2.2,5.9-2.2,8.1,0
	C50.6,3.9,50.6,7.6,48.4,9.8z"/>
</svg>
