<?xml version="1.0" encoding="utf-8"?>
<!-- Generator: Adobe Illustrator 25.0.0, SVG Export Plug-In . SVG Version: 6.00 Build 0)  -->
<svg version="1.1" id="Capa_1" xmlns="http://www.w3.org/2000/svg" xmlns:xlink="http://www.w3.org/1999/xlink" x="0px" y="0px"
	 viewBox="0 0 50 50" style="enable-background:new 0 0 50 50;" xml:space="preserve">
<g>
	<g>
		<g>
			<path d="M44.6,5.4h-5.4V1.8c0-1-0.8-1.8-1.8-1.8s-1.8,0.8-1.8,1.8v3.6H14.3V1.8c0-1-0.8-1.8-1.8-1.8s-1.8,0.8-1.8,1.8v3.6H5.4
				c-3,0-5.4,2.4-5.4,5.4v33.9c0,3,2.4,5.4,5.4,5.4h39.3c3,0,5.4-2.4,5.4-5.4V10.7C50,7.8,47.6,5.4,44.6,5.4z M46.4,44.6
				c0,1-0.8,1.8-1.8,1.8H5.4c-1,0-1.8-0.8-1.8-1.8V21.4h42.9V44.6z M46.4,17.9H3.6v-7.1c0-1,0.8-1.8,1.8-1.8h5.4v3.6
				c0,1,0.8,1.8,1.8,1.8s1.8-0.8,1.8-1.8V8.9h21.4v3.6c0,1,0.8,1.8,1.8,1.8s1.8-0.8,1.8-1.8V8.9h5.4c1,0,1.8,0.8,1.8,1.8L46.4,17.9
				L46.4,17.9z"/>
		</g>
	</g>
	<g>
		<g>
			<path d="M36.9,25.5c-0.7-0.7-1.8-0.7-2.5,0l-13,13l-5.9-5.9c-0.7-0.7-1.8-0.7-2.5,0c-0.7,0.7-0.7,1.8,0,2.5l7.1,7.1
				c0.7,0.7,1.8,0.7,2.5,0L37,28C37.7,27.3,37.6,26.2,36.9,25.5z"/>
		</g>
	</g>
</g>
</svg>
