<?xml version="1.0" encoding="utf-8"?>
<!-- Generator: Adobe Illustrator 21.0.0, SVG Export Plug-In . SVG Version: 6.00 Build 0)  -->
<svg version="1.1" id="Layer_1" xmlns="http://www.w3.org/2000/svg" xmlns:xlink="http://www.w3.org/1999/xlink" x="0px" y="0px"
	 viewBox="0 0 50 50" style="enable-background:new 0 0 50 50;" xml:space="preserve">
<title>designer</title>
<path d="M45.4,0H4.6C2.1,0,0,2.4,0,5.2v27c0,2.9,2.1,5.2,4.6,5.2h15.2l-0.5,9h-3.5c-0.8,0-1.5,0.8-1.5,1.8c0,0.9,0.7,1.7,1.5,1.7
	h18.3c0.8,0,1.5-0.8,1.5-1.8c0-0.9-0.7-1.7-1.5-1.7h-3.5l-0.5-9h15.2c2.5,0,4.6-2.4,4.6-5.2v-27C50,2.4,47.9,0,45.4,0z M22.4,46.5
	l0.5-9h4.3l0.5,9H22.4L22.4,46.5z M46.9,32.3c0,1-0.7,1.7-1.5,1.8H4.6c-0.8,0-1.5-0.8-1.5-1.8v-27c0-1,0.7-1.7,1.5-1.7h40.8
	c0.8,0,1.5,0.8,1.5,1.8V32.3z"/>
<path d="M31.5,34V12.6h5.5v2h-0.9c-0.5,0-0.9,0.4-0.9,0.9c0,0.5,0.4,1,0.9,1c0,0,0,0,0.1,0h0.9v2.9h-0.9c-0.5,0-0.9,0.4-0.9,0.9
	c0,0.5,0.4,1,0.9,1c0,0,0,0,0.1,0h0.9v2.9h-0.9c-0.5,0-0.9,0.4-0.9,0.9c0,0.5,0.4,1,0.9,1c0,0,0,0,0.1,0h0.9v3.9h-0.9
	c-0.5,0-0.9,0.4-0.9,0.9c0,0.5,0.4,1,0.9,1c0,0,0,0,0.1,0h0.9v2L31.5,34z"/>
<path d="M25,24.2c0.3,0,0.7,0,1-0.1c0.2,1.2,0.4,3.2,0.6,6h-3.4c0.2-2.8,0.4-4.9,0.6-6.1C24.1,24.1,24.6,24.2,25,24.2z"/>
<path d="M25,22.3c-2.1,0-3.4-2.4-2.4-4.4l2.4-4.4l2.4,4.4C28.4,19.8,27.1,22.3,25,22.3z"/>
<path d="M23.4,32.4h2.9c0,0.5,0,1,0,1.6h-3C23.4,33.4,23.4,32.9,23.4,32.4z"/>
<rect x="17.1" y="20.4" width="1.8" height="13.7"/>
<rect x="13.4" y="20.4" width="1.8" height="13.7"/>
<polygon points="14,18.4 16.2,13.8 18.4,18.4 "/>
</svg>
