<?xml version="1.0" encoding="utf-8"?>
<!-- Generator: Adobe Illustrator 21.0.0, SVG Export Plug-In . SVG Version: 6.00 Build 0)  -->
<svg version="1.1" id="Layer_1" xmlns="http://www.w3.org/2000/svg" xmlns:xlink="http://www.w3.org/1999/xlink" x="0px" y="0px"
	 viewBox="0 0 50 50" style="enable-background:new 0 0 50 50;" xml:space="preserve">
<title>developer</title>
<path d="M45.4,0H4.6C2.1,0,0,2.3,0,5.2v27c0,2.9,2.1,5.2,4.6,5.2h15.2l-0.5,9h-3.5c-0.9,0-1.5,0.8-1.5,1.8S15,50,15.9,50h18.3
	c0.9,0,1.5-0.8,1.5-1.8s-0.7-1.8-1.5-1.8h-3.5l-0.5-9h15.2c2.5,0,4.6-2.3,4.6-5.2v-27C50,2.3,47.9,0,45.4,0z M22.4,46.5l0.5-9h4.3
	l0.5,9H22.4L22.4,46.5z M46.9,32.3c0,1-0.7,1.7-1.5,1.8H4.6c-0.8,0-1.5-0.8-1.5-1.8v-27c0-1,0.7-1.7,1.5-1.7h40.8
	c0.8,0,1.5,0.8,1.5,1.7V32.3L46.9,32.3z"/>
<path d="M18.4,10.9c-0.6-0.6-1.6-0.5-2.2,0.2l0,0l-5.6,6.9c-0.5,0.6-0.5,1.4,0,2l5.6,6.9c0.6,0.7,1.5,0.7,2.2,0.2
	c0.6-0.6,0.7-1.5,0.2-2.2l-4.8-5.9l4.8-5.9C19.1,12.4,19.1,11.4,18.4,10.9L18.4,10.9z"/>
<path d="M33.7,11.1c-0.5-0.7-1.5-0.8-2.1-0.2c-0.7,0.6-0.8,1.5-0.2,2.2c0,0,0,0,0,0l4.8,5.9l-4.8,5.9c-0.5,0.7-0.4,1.7,0.2,2.2
	c0.6,0.5,1.6,0.5,2.1-0.2l5.6-6.9c0.5-0.6,0.5-1.4,0-2L33.7,11.1z"/>
<path d="M28.2,10.6c-0.8-0.3-1.7,0.1-2,0.9l0,0l-5.3,13.7c-0.3,0.8,0.1,1.7,0.9,2c0.8,0.3,1.7-0.1,2-0.9l0,0l5.3-13.7
	C29.4,11.8,29,10.9,28.2,10.6z"/>
</svg>
