<?xml version="1.0" encoding="utf-8"?>
<!-- Generator: Adobe Illustrator 21.0.0, SVG Export Plug-In . SVG Version: 6.00 Build 0)  -->
<svg version="1.1" id="Layer_1" xmlns="http://www.w3.org/2000/svg" xmlns:xlink="http://www.w3.org/1999/xlink" x="0px" y="0px"
	 viewBox="0 0 50 50" style="enable-background:new 0 0 50 50;" xml:space="preserve">
<title>ear</title>
<path d="M37.3,5.4C34,1.9,29.6,0,25,0C15.4,0,7.6,7.8,7.6,17.4c0,1.3,1,2.3,2.3,2.3s2.3-1,2.3-2.3c0-7.1,5.8-12.9,12.9-12.9
	c7.4,0,12.9,6.8,12.9,12.9c0,6.8-7.3,17.7-10.1,21.3c-2.2,2.7-5.1,6-6.2,6.7h-5.7c-1.3,0-2.3,1-2.3,2.3c0,1.3,1,2.3,2.3,2.3H22
	c1.3,0,2.6-0.7,6.1-4.6c1.7-1.9,3.2-3.8,3.3-3.9l0,0c0.5-0.6,11.1-14.4,11.1-24.1C42.4,13.1,40.6,8.8,37.3,5.4z"/>
<path d="M18.9,33.3c-1.3,0-2.3,1-2.3,2.3c0,1.3,1,2.3,2.3,2.3c3.8,0,6.8-3.1,6.8-6.8c0-2.9-1.8-5.5-4.6-6.4v-7.2
	c0-2.1,1.7-3.8,3.8-3.8s3.8,1.7,3.8,3.8c0,1.3,1,2.3,2.3,2.3c1.3,0,2.3-1,2.3-2.3c0-4.6-3.7-8.3-8.3-8.3s-8.3,3.7-8.3,8.3v9.1
	c0,1.3,1,2.3,2.3,2.3s2.3,1,2.3,2.3C21.2,32.3,20.2,33.3,18.9,33.3z"/>
</svg>
