<?xml version="1.0" encoding="utf-8"?>
<!-- Generator: Adobe Illustrator 21.0.0, SVG Export Plug-In . SVG Version: 6.00 Build 0)  -->
<svg version="1.1" id="Layer_1" xmlns="http://www.w3.org/2000/svg" xmlns:xlink="http://www.w3.org/1999/xlink" x="0px" y="0px"
	 viewBox="0 0 50 50" style="enable-background:new 0 0 50 50;" xml:space="preserve">
<title>eye</title>
<path d="M25,10.1c-9.5,0-18.2,5.2-24.6,13.7c-0.5,0.7-0.5,1.7,0,2.4c6.4,8.5,15,13.7,24.6,13.7s18.2-5.2,24.6-13.7
	c0.5-0.7,0.5-1.7,0-2.4C43.2,15.3,34.6,10.1,25,10.1z M25.7,35.5c-5.8,0.4-10.8-4-11.2-9.8c0-0.4,0-0.9,0-1.3
	c0.3-5.2,4.6-9.5,9.8-9.8c5.8-0.4,10.8,4,11.2,9.8c0,0.4,0,0.9,0,1.3C35.2,30.9,30.9,35.1,25.7,35.5z M25.4,30.6
	c-3.1,0.2-5.8-2.2-6-5.3c-0.2-3.1,2.2-5.8,5.3-6c3.1-0.2,5.8,2.2,6,5.3c0,0.2,0,0.5,0,0.7C30.5,28.2,28.2,30.5,25.4,30.6z"/>
</svg>
