<?xml version="1.0" encoding="utf-8"?>
<!-- Generator: Adobe Illustrator 21.0.0, SVG Export Plug-In . SVG Version: 6.00 Build 0)  -->
<svg version="1.1" id="Layer_1" xmlns="http://www.w3.org/2000/svg" xmlns:xlink="http://www.w3.org/1999/xlink" x="0px" y="0px"
	 viewBox="0 0 50 50" style="enable-background:new 0 0 50 50;" xml:space="preserve">
<title>facebook-logo</title>
<path d="M37.5,0H31c-7.3,0-12,4.8-12,12.3V18h-6.5c-0.6,0-1.1,0.5-1.1,1v8.2c0,0.6,0.5,1,1.1,1H19V49c0,0.6,0.5,1,1.1,1h8.5
	c0.6,0,1-0.5,1-1V28.2h7.6c0.6,0,1-0.5,1-1.1V19c0-0.6-0.5-1-1-1h-7.6v-4.8c0-2.3,0.5-3.5,3.6-3.5h4.3c0.6,0,1-0.5,1-1.1V1
	C38.5,0.5,38,0,37.5,0z"/>
</svg>
