<?xml version="1.0" encoding="utf-8"?>
<!-- Generator: Adobe Illustrator 21.0.0, SVG Export Plug-In . SVG Version: 6.00 Build 0)  -->
<svg version="1.1" id="Layer_1" xmlns="http://www.w3.org/2000/svg" xmlns:xlink="http://www.w3.org/1999/xlink" x="0px" y="0px"
	 viewBox="0 0 50 50" style="enable-background:new 0 0 50 50;" xml:space="preserve">
<title>flip-arrows</title>
<path d="M16.6,10.7c0.2,0,0.4,0.1,0.5,0.3c0,0,0,0,0,0c0.1,2.4,0,2.4-2.4,3.3c-2.7,1-5.3,2.3-7.1,4.9c-1.5,2.1-1.3,4.7,0.1,6.8
	c2.1,3,5.1,4.3,8.6,4.9c0.3,0.1,0.6,0.1,1,0.2c0.2,0,0.4-0.1,0.5-0.3c0,0,0-0.1,0-0.1v-4.3c0-0.2,0.2-0.4,0.4-0.4
	c0.1,0,0.2,0,0.2,0.1c4.2,2.8,8.3,5.5,12.5,8.3c0.2,0.1,0.2,0.3,0.1,0.5c0,0.1-0.1,0.1-0.1,0.1c-4.2,2.8-8.3,5.5-12.4,8.3
	c-0.2,0.1-0.4,0.1-0.5-0.1c0-0.1-0.1-0.1-0.1-0.2c0-1.3,0-2.4,0-3.6c0-0.6-0.2-0.8-0.8-1c-5.3-1.1-10.2-3-14-7
	c-3.5-3.8-4-8.8-0.7-13.1c2.9-3.7,6.9-5.5,11.2-6.9C14.5,11.1,15.6,10.9,16.6,10.7z"/>
<path d="M35.4,30.5c-0.2-0.1-0.2-0.4-0.1-0.6c0,0,0-0.1,0.1-0.1c1.5-1.1,3.2-2.1,4.5-3.4c2.9-3,2.6-6.4-0.8-9.1
	c-3.1-2.5-5.3-3.4-8.2-4c-0.2,0-0.4,0.1-0.5,0.3c0,0,0,0,0,0v3.5c0,0.2-0.2,0.4-0.4,0.4c-0.1,0-0.2,0-0.2-0.1
	c-2.6-1.8-5.2-3.4-7.8-5.2c-0.2-0.1-0.2-0.3-0.1-0.5c0-0.1,0.1-0.1,0.1-0.1l7.8-5.2c0.2-0.1,0.4-0.1,0.5,0.1c0,0.1,0.1,0.1,0.1,0.2
	c0,0.8,0,1.6,0,2.4c0,0.3,0.5,0.8,0.8,0.8c5.3,0.8,10.2,2.4,14.3,5.8c2.6,2.1,4.4,4.8,4.5,8.2c0.1,3.8-2,6.4-4.6,8.9
	c-2,1.9-3.7,2-5.8,0.1C38.4,32.1,36.8,31.4,35.4,30.5L35.4,30.5z"/>
</svg>
