<?xml version="1.0" encoding="utf-8"?>
<!-- Generator: Adobe Illustrator 21.0.0, SVG Export Plug-In . SVG Version: 6.00 Build 0)  -->
<svg version="1.1" id="Layer_1" xmlns="http://www.w3.org/2000/svg" xmlns:xlink="http://www.w3.org/1999/xlink" x="0px" y="0px"
	 viewBox="0 0 50 50" style="enable-background:new 0 0 50 50;" xml:space="preserve">
<title>github-logo</title>
<path d="M46.6,12.8c-2.2-3.9-5.3-7.1-9.1-9.3C33.7,1.1,29.5,0,25,0s-8.7,1.1-12.6,3.4c-3.8,2.2-6.9,5.5-9.1,9.3
	C1.1,16.7,0,21,0,25.6c0,5.6,1.6,10.6,4.8,15.1s7.3,7.5,12.3,9.3c0.6,0.1,1,0,1.3-0.2c0.3-0.3,0.4-0.6,0.4-1c0-0.1,0-0.7,0-1.8
	c0-1.1,0-2.1,0-3L18,44.1c-0.6,0.1-1.2,0.1-1.8,0.1c-0.8,0-1.5-0.1-2.3-0.2c-0.8-0.1-1.5-0.5-2.2-1c-0.7-0.5-1.2-1.2-1.4-2.1
	L10,40.1c-0.3-0.6-0.6-1.2-1-1.7c-0.5-0.6-0.9-1-1.4-1.3L7.4,37c-0.2-0.1-0.3-0.2-0.4-0.4c-0.1-0.1-0.2-0.3-0.3-0.5
	c-0.1-0.1,0-0.3,0.2-0.4c0.2-0.1,0.5-0.1,0.9-0.1l0.6,0.1c0.4,0.1,1,0.3,1.6,0.8c0.6,0.5,1.2,1,1.6,1.7c0.5,0.9,1.1,1.6,1.8,2.1
	c0.7,0.5,1.4,0.7,2.1,0.7c0.6,0,1.2,0,1.9-0.2c0.5-0.1,1-0.3,1.5-0.5c0.2-1.5,0.7-2.6,1.6-3.4c-1.1-0.1-2.2-0.3-3.3-0.6
	C16,36,15,35.6,14,35c-1-0.6-1.9-1.3-2.6-2.2c-0.7-0.9-1.3-2.1-1.7-3.5c-0.4-1.4-0.7-3.1-0.7-5c0-2.7,0.9-5,2.6-6.9
	c-0.8-2-0.7-4.3,0.2-6.8c0.6-0.2,1.6,0,2.8,0.4c1.2,0.5,2.1,0.9,2.7,1.3c0.6,0.3,1,0.6,1.4,0.9c4.1-1.2,8.4-1.2,12.5,0l1.2-0.8
	c1-0.6,2-1.1,3-1.5c1.1-0.4,2-0.6,2.6-0.4c1,2.5,1.1,4.8,0.3,6.8c1.7,1.9,2.6,4.2,2.6,6.9c0,1.9-0.2,3.6-0.7,5
	c-0.4,1.5-1,2.6-1.7,3.5c-0.7,0.9-1.6,1.7-2.6,2.2c-1,0.6-2,1-3.1,1.3c-1.1,0.3-2.2,0.5-3.3,0.6c1.1,1,1.7,2.6,1.7,4.7v7
	c0,0.4,0.1,0.7,0.4,1c0.3,0.3,0.7,0.3,1.3,0.2c5-1.7,9.1-4.8,12.3-9.3c3.2-4.5,4.8-9.5,4.8-15.1C50,21,48.9,16.7,46.6,12.8z"/>
</svg>
