<?xml version="1.0" encoding="utf-8"?>
<!-- Generator: Adobe Illustrator 21.0.0, SVG Export Plug-In . SVG Version: 6.00 Build 0)  -->
<svg version="1.1" id="Layer_1" xmlns="http://www.w3.org/2000/svg" xmlns:xlink="http://www.w3.org/1999/xlink" x="0px" y="0px"
	 viewBox="0 0 50 50" style="enable-background:new 0 0 50 50;" xml:space="preserve">
<path d="M0.8,0h20.4C21.6,0,22,0.4,22,0.8v20.4c0,0.4-0.4,0.8-0.8,0.8H0.8C0.4,22,0,21.6,0,21.2V0.8C0,0.4,0.4,0,0.8,0z"/>
<path d="M28.8,0h20.4C49.7,0,50,0.4,50,0.8v20.4c0,0.4-0.3,0.8-0.8,0.8H28.8c-0.4,0-0.8-0.4-0.8-0.8V0.8C28,0.4,28.4,0,28.8,0z"/>
<path d="M0.8,28h20.4c0.4,0,0.8,0.4,0.8,0.8v20.4c0,0.4-0.4,0.8-0.8,0.8H0.8C0.4,50,0,49.7,0,49.2V28.8C0,28.4,0.4,28,0.8,28z"/>
<path d="M28.8,28h20.4c0.4,0,0.8,0.4,0.8,0.8v20.4c0,0.4-0.3,0.8-0.8,0.8H28.8c-0.4,0-0.8-0.3-0.8-0.8V28.8C28,28.4,28.4,28,28.8,28
	z"/>
</svg>
