<?xml version="1.0" encoding="utf-8"?>
<!-- Generator: Adobe Illustrator 21.0.0, SVG Export Plug-In . SVG Version: 6.00 Build 0)  -->
<svg version="1.1" id="Layer_1" xmlns="http://www.w3.org/2000/svg" xmlns:xlink="http://www.w3.org/1999/xlink" x="0px" y="0px"
	 viewBox="0 0 50 50" style="enable-background:new 0 0 50 50;" xml:space="preserve">
<title>heart-outline</title>
<path d="M25,47.5c-0.7,0-1.4-0.3-1.9-0.7c-2-1.8-4-3.5-5.7-4.9l0,0C12.3,37.5,8,33.7,5,30c-3.4-4.1-5-8-5-12.3c0-4.2,1.4-8,4-10.8
	c2.6-2.8,6.1-4.4,10-4.4c2.9,0,5.5,0.9,7.9,2.7c1.2,1,2.3,2.1,3.2,3.4c0.9-1.3,2-2.4,3.2-3.4c2.3-1.8,5-2.7,7.9-2.7
	c3.9,0,7.4,1.6,10,4.4c2.6,2.8,4,6.6,4,10.8c0,4.3-1.6,8.2-5,12.3c-3,3.7-7.4,7.4-12.4,11.8c-1.7,1.5-3.7,3.2-5.7,5
	C26.4,47.2,25.7,47.5,25,47.5z M14,5.5c-3,0-5.8,1.2-7.8,3.4c-2.1,2.3-3.2,5.4-3.2,8.8c0,3.6,1.3,6.8,4.3,10.4
	c2.9,3.5,7.1,7.2,12.1,11.4l0,0c1.7,1.5,3.7,3.2,5.7,5c2.1-1.8,4-3.5,5.7-5c4.9-4.3,9.2-7.9,12.1-11.4c3-3.6,4.3-6.8,4.3-10.4
	c0-3.4-1.1-6.5-3.2-8.8c-2-2.2-4.8-3.4-7.8-3.4c-2.2,0-4.3,0.7-6.1,2.1c-1.6,1.3-2.7,2.8-3.4,3.9c-0.5,0.9-1.7,1.2-2.5,0.7
	c-0.3-0.2-0.5-0.4-0.6-0.7c-0.7-1.1-1.8-2.7-3.4-3.9C18.2,6.2,16.2,5.5,14,5.5z"/>
</svg>
