<?xml version="1.0" encoding="utf-8"?>
<!-- Generator: Adobe Illustrator 21.0.0, SVG Export Plug-In . SVG Version: 6.00 Build 0)  -->
<svg version="1.1" id="Layer_1" xmlns="http://www.w3.org/2000/svg" xmlns:xlink="http://www.w3.org/1999/xlink" x="0px" y="0px"
	 viewBox="0 0 50 50" style="enable-background:new 0 0 50 50;" xml:space="preserve">
<title>heart-fill</title>
<path d="M46,7.1c-2.6-2.8-6.1-4.4-10-4.4c-2.9,0-5.5,0.9-7.9,2.7c-1.2,1-2.3,2.1-3.2,3.3c-0.9-1.3-2-2.4-3.2-3.3
	c-2.3-1.8-5-2.7-7.9-2.7c-3.9,0-7.4,1.5-10,4.4c-2.6,2.8-4,6.6-4,10.7C0,22,1.6,25.9,5,30c3,3.7,7.4,7.4,12.4,11.7
	c1.7,1.5,3.7,3.1,5.7,4.9c1.1,1,2.8,1,3.9,0c2-1.8,4-3.4,5.7-4.9c5-4.3,9.4-8,12.4-11.7c3.4-4.1,5-8,5-12.2C50,13.7,48.6,9.9,46,7.1
	z"/>
</svg>
