<?xml version="1.0" encoding="utf-8"?>
<!-- Generator: Adobe Illustrator 21.0.0, SVG Export Plug-In . SVG Version: 6.00 Build 0)  -->
<svg version="1.1" id="Layer_1" xmlns="http://www.w3.org/2000/svg" xmlns:xlink="http://www.w3.org/1999/xlink" x="0px" y="0px"
	 viewBox="0 0 50 50" style="enable-background:new 0 0 50 50;" xml:space="preserve">
<title>house</title>
<path d="M49.6,22.6L26.1,0.5c0,0-0.1-0.1-0.1-0.1c-0.5-0.5-1.3-0.5-1.9,0L0.6,22.4C0,23,0,23.9,0.5,24.5c0.5,0.6,1.4,0.6,1.9,0.1
	l4.2-4v25.7c0,2,1.6,3.7,3.5,3.7h7.4c1.8,0,3.3-1.5,3.3-3.4V33.5c0-0.3,0.2-0.5,0.5-0.5h7.5c0.3,0,0.5,0.2,0.5,0.5v13.1
	c0,1.9,1.5,3.4,3.3,3.4h7.4c2,0,3.5-2,3.5-4.6V20.8l4.2,4c0.6,0.5,1.5,0.5,2-0.1C50.3,24,50.2,23.1,49.6,22.6z M40.8,29.7v15.6
	c0,1.1-0.5,1.7-0.7,1.7h-7.4c-0.3,0-0.5-0.2-0.5-0.5V33.5c0-1.9-1.5-3.4-3.3-3.4h-7.5c-1.8,0-3.3,1.5-3.3,3.4v13.1
	c0,0.3-0.2,0.5-0.5,0.5h-7.4c-0.4,0-0.7-0.3-0.7-0.8V18L25,3.4l15.8,14.8L40.8,29.7L40.8,29.7z"/>
</svg>
