<?xml version="1.0" encoding="utf-8"?>
<!-- Generator: Adobe Illustrator 21.0.0, SVG Export Plug-In . SVG Version: 6.00 Build 0)  -->
<svg version="1.1" id="Layer_1" xmlns="http://www.w3.org/2000/svg" xmlns:xlink="http://www.w3.org/1999/xlink" x="0px" y="0px"
	 viewBox="0 0 50 50" style="enable-background:new 0 0 50 50;" xml:space="preserve">
<title>instagram-logo</title>
<path d="M36.2,0H13.8C6.2,0,0,6.2,0,13.8v22.4C0,43.8,6.2,50,13.8,50h22.4C43.8,50,50,43.8,50,36.2V13.8C49.9,6.2,43.8,0,36.2,0z
	 M45.5,36.2c0,5.2-4.2,9.3-9.4,9.3H13.8c-5.2,0-9.4-4.2-9.4-9.3V13.8c0-5.2,4.2-9.4,9.4-9.4h22.4c5.2,0,9.3,4.2,9.4,9.4L45.5,36.2
	L45.5,36.2z"/>
<path d="M25,12.1c-7.1,0-12.8,5.8-12.8,12.9S17.9,37.9,25,37.9S37.9,32.1,37.9,25l0,0C37.8,17.9,32.1,12.1,25,12.1z M25,33.4
	c-4.7,0-8.4-3.8-8.4-8.5s3.8-8.4,8.4-8.4s8.5,3.8,8.5,8.5l0,0C33.4,29.6,29.6,33.4,25,33.4L25,33.4z"/>
<path d="M38.4,8.4c-1.8,0-3.3,1.4-3.3,3.3s1.5,3.3,3.3,3.3s3.3-1.4,3.3-3.3c0-0.9-0.3-1.7-1-2.3C40.1,8.7,39.2,8.3,38.4,8.4z"/>
</svg>
