<?xml version="1.0" encoding="utf-8"?>
<!-- Generator: Adobe Illustrator 21.0.0, SVG Export Plug-In . SVG Version: 6.00 Build 0)  -->
<svg version="1.1" id="Layer_1" xmlns="http://www.w3.org/2000/svg" xmlns:xlink="http://www.w3.org/1999/xlink" x="0px" y="0px"
	 viewBox="0 0 50 50" style="enable-background:new 0 0 50 50;" xml:space="preserve">
<title>close</title>
<path d="M46.2,36.2H16.1c-2.1,0-3.8,1.7-3.8,3.8c0,2.1,1.7,3.8,3.8,3.8h30.1c2.1,0,3.8-1.7,3.8-3.8S48.3,36.2,46.2,36.2z"/>
<path d="M46.2,21.2H16.1c-2.1,0-3.8,1.7-3.8,3.8c0,2.1,1.7,3.8,3.8,3.8h30.1c2.1,0,3.8-1.7,3.8-3.8C50,22.9,48.3,21.2,46.2,21.2z"/>
<path d="M16.1,13.7h30.1c2.1,0,3.8-1.7,3.8-3.8c0-2.1-1.7-3.8-3.8-3.8H16.1c-2.1,0-3.8,1.7-3.8,3.8C12.3,12.1,14,13.7,16.1,13.7z"/>
<circle cx="3.8" cy="10" r="3.8"/>
<circle cx="3.8" cy="25" r="3.8"/>
<circle cx="3.8" cy="40" r="3.8"/>
</svg>
