<?xml version="1.0" encoding="utf-8"?>
<!-- Generator: Adobe Illustrator 21.0.0, SVG Export Plug-In . SVG Version: 6.00 Build 0)  -->
<svg version="1.1" id="Layer_1" xmlns="http://www.w3.org/2000/svg" xmlns:xlink="http://www.w3.org/1999/xlink" x="0px" y="0px"
	 viewBox="0 0 50 50" style="enable-background:new 0 0 50 50;" xml:space="preserve">
<title>close</title>
<path d="M25,0C15,0,6.9,8.1,6.9,18.1c0,12.4,16.2,30.6,16.9,31.3c0.6,0.7,1.6,0.7,2.3,0.1c0,0,0.1-0.1,0.1-0.1
	c0.7-0.8,16.9-19,16.9-31.3C43.1,8.1,35,0,25,0z M25,27.2c-5,0-9.1-4.1-9.1-9.1c0-5,4.1-9.1,9.1-9.1c5,0,9.1,4.1,9.1,9.1
	C34.1,23.1,30,27.2,25,27.2z"/>
</svg>
