<?xml version="1.0" encoding="utf-8"?>
<!-- Generator: Adobe Illustrator 21.0.0, SVG Export Plug-In . SVG Version: 6.00 Build 0)  -->
<svg version="1.1" id="Layer_1" xmlns="http://www.w3.org/2000/svg" xmlns:xlink="http://www.w3.org/1999/xlink" x="0px" y="0px"
	 viewBox="0 0 50 50" style="enable-background:new 0 0 50 50;" xml:space="preserve">
<title>logo-design</title>
<path d="M50,15.6C50,23,44,29,36.5,29c-2.1,0-3.8-1.7-3.8-3.8s1.7-3.8,3.8-3.8c3.2,0,5.8-2.6,5.8-5.8s-2.6-5.8-5.8-5.8
	c-3.2,0-5.8,2.6-5.8,5.8v23.1c-0.1,5.3-4.5,9.5-9.8,9.5c-5.2-0.1-9.4-4.3-9.5-9.5V15.6c0-1.1-0.9-1.9-2-1.9c-1,0-1.8,0.8-1.9,1.9
	v23.1c0.1,2.1-1.6,3.9-3.7,3.9C1.8,42.6,0.1,41,0,38.8c0-0.1,0-0.1,0-0.2V15.6c-0.1-5.3,4.1-9.7,9.5-9.8c5.3-0.1,9.7,4.1,9.8,9.5
	c0,0.1,0,0.2,0,0.3v23.1c0,1.1,0.9,1.9,1.9,1.9s1.9-0.9,1.9-1.9V15.6C23,8.1,28.9,2,36.3,1.9C43.8,1.8,49.9,7.7,50,15.2
	C50,15.3,50,15.4,50,15.6z"/>
</svg>
