<?xml version="1.0" encoding="utf-8"?>
<!-- Generator: Adobe Illustrator 25.0.0, SVG Export Plug-In . SVG Version: 6.00 Build 0)  -->
<svg version="1.1" baseProfile="tiny" id="Layer_1" xmlns="http://www.w3.org/2000/svg" xmlns:xlink="http://www.w3.org/1999/xlink"
	 x="0px" y="0px" viewBox="0 0 50 50" overflow="visible" xml:space="preserve">
<path d="M48.3,0H1.7C0.8,0,0,0.8,0,1.7v46.6C0,49.2,0.8,50,1.7,50h46.6c0.9,0,1.7-0.8,1.7-1.7V1.7C50,0.8,49.2,0,48.3,0z M48.5,47.5
	l-5.4-5.4c2.4-2.6,4.3-5.6,5.4-8.9V47.5z M25,40.4c-0.4,0-0.7,0.3-0.7,0.7v0.8c0,0.1,0,0.2,0.1,0.3H10.2c-1.4,0-2.5-1.1-2.5-2.5v-14
	h16.6c0,0.1-0.1,0.2-0.1,0.3v0.8c0,0.4,0.3,0.7,0.7,0.7c0.4,0,0.7-0.3,0.7-0.7v-0.1L40.9,42c-0.3,0.2-0.7,0.3-1.1,0.3H25.7
	c0-0.1,0.1-0.2,0.1-0.3v-0.8C25.7,40.8,25.4,40.4,25,40.4z M25,9.4c0.4,0,0.7-0.3,0.7-0.7V7.9c0-0.1,0-0.1,0-0.2h14.1
	c0.4,0,0.8,0.1,1.2,0.3l-3.2,3.2c-0.3,0.3-0.3,0.7,0,1c0.1,0.1,0.3,0.2,0.5,0.2s0.4-0.1,0.5-0.2L42,9c0.2,0.3,0.3,0.7,0.3,1.1v14.1
	H25.6c0.1-0.1,0.2-0.3,0.2-0.5V23c0-0.4-0.3-0.7-0.7-0.7c-0.4,0-0.7,0.3-0.7,0.7v0.2L12.4,11.4c-0.3-0.3-0.7-0.3-1,0s-0.3,0.7,0,1
	l11.9,11.9H7.7V10.2c0-1.4,1.1-2.5,2.5-2.5h14.1c0,0.1,0,0.1,0,0.2v0.8C24.3,9.1,24.6,9.4,25,9.4z M26.8,25.7h15.5v14
	c0,0.4-0.1,0.8-0.3,1.2L26.8,25.7z M43.7,10.9c3,3.9,4.7,8.8,4.7,14.1s-1.8,10.2-4.7,14.1V10.9z M42.1,6.9c-2.6-2.4-5.6-4.3-8.9-5.4
	h14.3L42.1,6.9z M39.1,6.2H10.9c3.9-2.9,8.8-4.7,14.1-4.7S35.1,3.3,39.1,6.2z M6.3,39.1c-3-3.9-4.7-8.8-4.7-14.1s1.8-10.2,4.7-14.1
	V39.1z M39.1,43.7c-3.9,3-8.8,4.8-14.1,4.8s-10.2-1.8-14.1-4.8H39.1z M42.1,43.1l5.4,5.4H33.2C36.5,47.4,39.5,45.6,42.1,43.1z
	 M43.1,7.9l5.4-5.4v14.3C47.4,13.5,45.6,10.5,43.1,7.9z M1.7,1.5h15.1c-3.5,1.2-6.7,3.2-9.4,5.9c-2.7,2.7-4.7,5.9-5.9,9.4V1.7
	C1.5,1.6,1.6,1.5,1.7,1.5z M1.5,48.3V33.2c1.2,3.5,3.2,6.7,5.9,9.4c2.7,2.7,5.9,4.7,9.4,5.9H1.7C1.6,48.5,1.5,48.4,1.5,48.3z"/>
<path d="M25,36.6c0.4,0,0.7-0.3,0.7-0.7v-0.8c0-0.4-0.3-0.7-0.7-0.7s-0.7,0.3-0.7,0.7v0.8C24.3,36.3,24.6,36.6,25,36.6z"/>
<path d="M25,30.6c0.4,0,0.7-0.3,0.7-0.7v-0.8c0-0.4-0.3-0.7-0.7-0.7s-0.7,0.3-0.7,0.7v0.8C24.3,30.2,24.6,30.6,25,30.6z"/>
<path d="M25,33.6c0.4,0,0.7-0.3,0.7-0.7v-0.8c0-0.4-0.3-0.7-0.7-0.7s-0.7,0.3-0.7,0.7v0.8C24.3,33.3,24.6,33.6,25,33.6z"/>
<path d="M25,19.3c-0.4,0-0.7,0.3-0.7,0.7v0.8c0,0.4,0.3,0.7,0.7,0.7s0.7-0.3,0.7-0.7V20C25.7,19.6,25.4,19.3,25,19.3z"/>
<path d="M24.3,11.7c0,0.4,0.3,0.7,0.7,0.7c0.4,0,0.7-0.3,0.7-0.7v-0.8c0-0.4-0.3-0.7-0.7-0.7c-0.4,0-0.7,0.3-0.7,0.7V11.7z"/>
<path d="M25,13.2c-0.4,0-0.7,0.3-0.7,0.7v0.8c0,0.4,0.3,0.7,0.7,0.7s0.7-0.3,0.7-0.7v-0.8C25.7,13.5,25.4,13.2,25,13.2z"/>
<path d="M25,16.2c-0.4,0-0.7,0.3-0.7,0.7v0.8c0,0.4,0.3,0.7,0.7,0.7s0.7-0.3,0.7-0.7V17C25.7,16.6,25.4,16.2,25,16.2z"/>
<path d="M25.7,38.1c0-0.4-0.3-0.7-0.7-0.7s-0.7,0.3-0.7,0.7v0.8c0,0.4,0.3,0.7,0.7,0.7s0.7-0.3,0.7-0.7V38.1z"/>
</svg>
