<?xml version="1.0" encoding="utf-8"?>
<!-- Generator: Adobe Illustrator 21.0.0, SVG Export Plug-In . SVG Version: 6.00 Build 0)  -->
<svg version="1.1" id="Layer_1" xmlns="http://www.w3.org/2000/svg" xmlns:xlink="http://www.w3.org/1999/xlink" x="0px" y="0px"
	 viewBox="0 0 50 50" style="enable-background:new 0 0 50 50;" xml:space="preserve">
<title>logo-design</title>
<path d="M42.2,9.8c-0.5,0-1,0.4-1,1c0,0.5,0.4,1,1,1c0.5,0,1-0.4,1-1C43.2,10.2,42.7,9.8,42.2,9.8z"/>
<path d="M7.8,9.8c-0.5,0-1,0.4-1,1c0,0.5,0.4,1,1,1s1-0.4,1-1C8.8,10.2,8.4,9.8,7.8,9.8z"/>
<path d="M49,21.5h-1.2c-0.3-2.8-1.2-5.5-2.6-8c-0.3-0.4-0.9-0.6-1.3-0.3c-0.4,0.3-0.6,0.8-0.3,1.2c1.2,2.2,2,4.6,2.4,7h-0.8
	c-0.5,0-1,0.4-1,1v3.9c0,0.5,0.4,1,1,1H49c0.5,0,1-0.4,1-1v-3.9C50,21.9,49.6,21.5,49,21.5z M48,25.4h-1.9v-1.9H48V25.4z"/>
<path d="M35.7,28.6L35.7,28.6C35.7,28.5,35.7,28.5,35.7,28.6c0-0.1,0-0.1,0-0.1s0,0,0-0.1c0,0,0,0,0,0c0,0,0-0.1,0-0.1v0
	c0,0,0-0.1,0-0.1l-9.8-17.9c-0.2-0.5-0.9-0.6-1.3-0.4c-0.2,0.1-0.3,0.2-0.4,0.4l-9.8,17.9c0,0,0,0.1,0,0.1v0c0,0,0,0.1,0,0.1v0
	c0,0,0,0,0,0.1c0,0,0,0,0,0c0,0,0,0,0,0.1c0,0,0,0,0,0v0.1c0,0,0,0,0,0.1s0,0,0,0c0,0,0,0,0,0.1v0c0,0,0,0,0,0.1v0l3.5,9.3
	c-1.4,0.7-2,2.5-1.3,3.9c0.3,0.7,0.9,1.2,1.7,1.5V49c0,0.5,0.4,1,1,1h11.7c0.5,0,1-0.4,1-1v-5.3c1.5-0.5,2.3-2.2,1.8-3.7
	c-0.2-0.7-0.8-1.3-1.5-1.6l3.5-9.3v0c0,0,0,0,0-0.1v0c0,0,0,0,0-0.1c0,0,0,0,0,0c0,0,0,0,0-0.1S35.7,28.6,35.7,28.6L35.7,28.6
	C35.7,28.6,35.7,28.6,35.7,28.6z M25,27.6c0.5,0,1,0.4,1,1s-0.4,1-1,1s-1-0.4-1-1S24.4,27.6,25,27.6z M29.9,48h-9.8v-4.2h9.8V48z
	 M31.5,41.6c-0.2,0.2-0.4,0.3-0.7,0.3H19.1c-0.5,0-1-0.4-1-1c0-0.5,0.4-1,1-1h11.7c0.5,0,1,0.4,1,1C31.8,41.2,31.7,41.4,31.5,41.6
	L31.5,41.6z M30.2,38H19.8l-3.2-8.4h2.5c0.5,0,1-0.4,1-1c0-0.5-0.4-1-1-1h-2.3L24,14.6v11.3c-1.5,0.5-2.3,2.2-1.8,3.7
	c0.5,1.5,2.2,2.3,3.7,1.8c1.5-0.5,2.3-2.2,1.8-3.7c-0.3-0.8-1-1.5-1.8-1.8V14.6l7.1,13.1h-2.3c-0.5,0-1,0.4-1,1s0.4,1,1,1h2.5
	L30.2,38z"/>
<path d="M6.1,13.1C5.6,12.9,5,13,4.8,13.5c-1.4,2.5-2.3,5.2-2.6,8H1c-0.5,0-1,0.4-1,1v3.9c0,0.5,0.4,1,1,1h3.9c0.5,0,1-0.4,1-1v-3.9
	c0-0.5-0.4-1-1-1H4.1c0.3-2.5,1.1-4.8,2.4-7C6.7,14,6.6,13.4,6.1,13.1z M3.9,25.4h-2v-1.9h1.9L3.9,25.4L3.9,25.4z"/>
<path d="M47.1,0c-1.2,0-2.3,0.8-2.7,1.9H27.9V1c0-0.5-0.4-1-1-1H23c-0.5,0-1,0.4-1,1v1H5.7C5.2,0.4,3.5-0.4,1.9,0.2
	s-2.3,2.2-1.8,3.7s2.2,2.3,3.7,1.8c0.8-0.3,1.5-1,1.8-1.8h9.8c-2.1,0.9-4,2-5.6,3.3c-0.4,0.3-0.5,1-0.1,1.4c0.3,0.4,1,0.5,1.4,0.1
	l0,0l0,0c2.8-2.3,6.8-4,10.9-4.6v0.8c0,0.5,0.4,1,1,1H27c0.5,0,1-0.4,1-1V4.1C32,4.7,36,6.4,38.8,8.7c0.4,0.3,1,0.3,1.4-0.1
	s0.3-1-0.1-1.4c-1.6-1.3-3.5-2.5-5.6-3.3h9.8c0.5,1.5,2.2,2.3,3.7,1.8c1.5-0.5,2.3-2.2,1.8-3.7C49.4,0.8,48.3,0,47.1,0z M2.9,3.9
	c-0.5,0-1-0.4-1-1s0.4-1,1-1s1,0.4,1,1S3.5,3.9,2.9,3.9z M26,2.9v1H24v-2H26V2.9z M47.1,3.9c-0.5,0-1-0.4-1-1s0.4-1,1-1s1,0.4,1,1
	S47.6,3.9,47.1,3.9z"/>
</svg>
