<?xml version="1.0" encoding="utf-8"?>
<!-- Generator: Adobe Illustrator 25.0.0, SVG Export Plug-In . SVG Version: 6.00 Build 0)  -->
<svg version="1.1" baseProfile="tiny" id="Layer_1" xmlns="http://www.w3.org/2000/svg" xmlns:xlink="http://www.w3.org/1999/xlink"
	 x="0px" y="0px" viewBox="0 0 50 50" overflow="visible" xml:space="preserve">
<path d="M25,50C11.2,50,0,38.8,0,25S11.2,0,25,0s25,11.2,25,25S38.8,50,25,50z M25,3.1C12.9,3.1,3.1,12.9,3.1,25S12.9,46.9,25,46.9
	S46.9,37.1,46.9,25S37.1,3.1,25,3.1z"/>
<path d="M35.9,26.6H14.1c-0.9,0-1.6-0.7-1.6-1.6s0.7-1.6,1.6-1.6h21.9c0.9,0,1.6,0.7,1.6,1.6S36.8,26.6,35.9,26.6z"/>
<path d="M25,37.5c-0.9,0-1.6-0.7-1.6-1.6V14.1c0-0.9,0.7-1.6,1.6-1.6s1.6,0.7,1.6,1.6v21.9C26.6,36.8,25.9,37.5,25,37.5z"/>
</svg>
