<?xml version="1.0" encoding="utf-8"?>
<!-- Generator: Adobe Illustrator 25.0.0, SVG Export Plug-In . SVG Version: 6.00 Build 0)  -->
<svg version="1.1" baseProfile="tiny" id="Layer_1" xmlns="http://www.w3.org/2000/svg" xmlns:xlink="http://www.w3.org/1999/xlink"
	 x="0px" y="0px" viewBox="0 0 50 50" overflow="visible" xml:space="preserve">
<g>
	<path d="M49.2,46.8h-7.3V33.9h5.6c0.4,0,0.8-0.4,0.8-0.8V8.9c0-0.4-0.4-0.8-0.8-0.8h-7.3V6.5h3.2c0.4,0,0.8-0.4,0.8-0.8V2.4
		c0-0.4-0.4-0.8-0.8-0.8h-8.1c-0.4,0-0.8,0.4-0.8,0.8v3.2c0,0.4,0.4,0.8,0.8,0.8h3.2v1.6H25.8V6.5H29c0.4,0,0.8-0.4,0.8-0.8V2.4
		c0-0.4-0.4-0.8-0.8-0.8H21c-0.4,0-0.8,0.4-0.8,0.8v3.2c0,0.4,0.4,0.8,0.8,0.8h3.2v1.6H11.3V6.5h3.2c0.4,0,0.8-0.4,0.8-0.8V2.4
		c0-0.4-0.4-0.8-0.8-0.8H6.5C6,1.6,5.6,2,5.6,2.4v3.2c0,0.4,0.4,0.8,0.8,0.8h3.2v1.6H2.4C2,8.1,1.6,8.4,1.6,8.9v24.2
		c0,0.4,0.4,0.8,0.8,0.8h5.6v12.9H0.8c-0.4,0-0.8,0.4-0.8,0.8c0,0.4,0.4,0.8,0.8,0.8h48.4c0.4,0,0.8-0.4,0.8-0.8
		C50,47.1,49.6,46.8,49.2,46.8z M36.3,4.8V3.2h6.5v1.6H36.3z M21.8,4.8V3.2h6.5v1.6H21.8z M7.3,4.8V3.2h6.5v1.6H7.3z M11.3,46.8H9.7
		V33.9h1.6V46.8z M37.1,46.8H12.9V33.9h24.2V46.8z M40.3,46.8h-1.6V33.9h1.6V46.8z M3.2,32.3V9.7h43.5v22.6H3.2z"/>
	<path d="M33.1,25.8h12.1c0.4,0,0.8-0.4,0.8-0.8s-0.4-0.8-0.8-0.8H33.1c-0.4,0-0.8,0.4-0.8,0.8S32.6,25.8,33.1,25.8z"/>
	<path d="M45.2,26.6h-9.7c-0.4,0-0.8,0.4-0.8,0.8s0.4,0.8,0.8,0.8h9.7c0.4,0,0.8-0.4,0.8-0.8S45.6,26.6,45.2,26.6z"/>
	<path d="M45.2,29h-4c-0.4,0-0.8,0.4-0.8,0.8c0,0.4,0.4,0.8,0.8,0.8h4c0.4,0,0.8-0.4,0.8-0.8C46,29.4,45.6,29,45.2,29z"/>
	<path d="M38.7,29h-0.8c-0.4,0-0.8,0.4-0.8,0.8c0,0.4,0.4,0.8,0.8,0.8h0.8c0.4,0,0.8-0.4,0.8-0.8C39.5,29.4,39.2,29,38.7,29z"/>
</g>
</svg>
