<?xml version="1.0" encoding="utf-8"?>
<!-- Generator: Adobe Illustrator 25.0.0, SVG Export Plug-In . SVG Version: 6.00 Build 0)  -->
<svg version="1.1" baseProfile="tiny" id="Layer_1" xmlns="http://www.w3.org/2000/svg" xmlns:xlink="http://www.w3.org/1999/xlink"
	 x="0px" y="0px" viewBox="0 0 50 50" overflow="visible" xml:space="preserve">
<path d="M17.5,28.6H4.2c-0.5,0-0.8,0.4-0.8,0.8v13.3c0,0.5,0.4,0.8,0.8,0.8h13.3c0.5,0,0.8-0.4,0.8-0.8V29.4
	C18.3,29,18,28.6,17.5,28.6z M16.7,41.9H5V30.3h11.7V41.9z"/>
<path d="M43.2,0H10.8C10.4,0,10,0.4,10,0.8v15.8H4.2c-0.5,0-0.8,0.4-0.8,0.8v3.3c0,1-0.5,1.9-1.4,2.4c-1.3,0.8-2,2.5-2,4.8v21.1
	C0,49.6,0.4,50,0.8,50h48.3c0.5,0,0.8-0.4,0.8-0.8V6.8C50,3,47,0,43.2,0z M5,18.3h11.7v2.5H5V18.3z M20,35.8v12.5H1.7V28.1
	c0-1.7,0.4-2.9,1.2-3.4c0.8-0.5,1.4-1.3,1.8-2.1H17c0.4,0.9,1,1.6,1.8,2.1c0.8,0.5,1.2,1.7,1.2,3.4V35.8z M19.7,23.2
	c-0.8-0.5-1.3-1.4-1.4-2.4l0,0v-3.3c0-0.5-0.4-0.8-0.8-0.8h-0.8V15h26.7v20H21.7v-6.9C21.7,25.7,21,24.1,19.7,23.2z M48.3,8.3v40
	H21.7V36.7h22.5c0.5,0,0.8-0.4,0.8-0.8V14.2c0-0.5-0.4-0.8-0.8-0.8H15.8c-0.5,0-0.8,0.4-0.8,0.8v2.5h-3.3V8.3H40V6.7H11.7v-5h31.6
	c2.8,0,5,2.2,5.1,5H45v1.7H48.3z"/>
<path d="M25.8,27.4l-0.7,4.4c-0.1,0.5,0.3,0.9,0.7,0.9c0.2,0,0.3,0,0.5-0.1l3.7-2l3.7,2.1c0.1,0.1,0.3,0.1,0.4,0.1
	c0.2,0,0.3-0.1,0.5-0.1c0.3-0.2,0.4-0.5,0.3-0.8l-0.7-4.4l3-3.1c0.2-0.2,0.3-0.5,0.2-0.8c-0.1-0.3-0.4-0.5-0.7-0.6l-4.2-0.6l-1.9-4
	c-0.2-0.4-0.7-0.6-1.1-0.4c-0.2,0.1-0.3,0.2-0.4,0.4l-1.9,4l-4.2,0.6c-0.3,0-0.6,0.3-0.7,0.6c-0.1,0.3,0,0.6,0.2,0.8L25.8,27.4z
	 M28.1,23.8c0.3,0,0.5-0.2,0.6-0.5l1.3-2.8l1.3,2.8c0.1,0.3,0.4,0.4,0.6,0.5l3,0.5l-2.2,2.2c-0.2,0.2-0.3,0.5-0.2,0.7l0.5,3.1
	l-2.6-1.5c-0.3-0.1-0.6-0.1-0.8,0l-2.6,1.5l0.6-3.1c0-0.3,0-0.5-0.2-0.7l-2.2-2.3L28.1,23.8z"/>
<path d="M8.3,37.3l-0.3,2c-0.1,0.5,0.3,0.9,0.7,0.9c0.2,0,0.3,0,0.5-0.1l1.7-0.9l1.7,0.9c0.1,0.1,0.3,0.1,0.4,0.1
	c0.5,0,0.8-0.4,0.8-0.8c0,0,0-0.1,0-0.1l-0.3-2l1.4-1.4c0.3-0.3,0.3-0.9,0-1.2c-0.1-0.1-0.3-0.2-0.4-0.2l-1.9-0.3l-0.8-1.8
	c-0.2-0.4-0.7-0.6-1.1-0.4c-0.2,0.1-0.3,0.2-0.4,0.4l-0.8,1.8l-1.9,0.3c-0.5,0.1-0.8,0.5-0.7,1c0,0.2,0.1,0.3,0.2,0.4L8.3,37.3z
	 M9.9,35.8c0.3,0,0.5-0.2,0.6-0.5l0.3-0.6l0.3,0.6c0.1,0.2,0.4,0.4,0.6,0.5l0.7,0.1l-0.5,0.5c-0.2,0.2-0.3,0.5-0.2,0.7l0.1,0.7
	l-0.6-0.3c-0.3-0.1-0.6-0.1-0.8,0l-0.6,0.3l0.1-0.7c0-0.3,0-0.5-0.2-0.7l-0.5-0.5L9.9,35.8z"/>
<rect x="41.7" y="6.9" width="1.7" height="1.7"/>
</svg>
