<?xml version="1.0" encoding="utf-8"?>
<!-- Generator: Adobe Illustrator 21.0.0, SVG Export Plug-In . SVG Version: 6.00 Build 0)  -->
<svg version="1.1" id="Layer_1" xmlns="http://www.w3.org/2000/svg" xmlns:xlink="http://www.w3.org/1999/xlink" x="0px" y="0px"
	 viewBox="0 0 50 50" style="enable-background:new 0 0 50 50;" xml:space="preserve">
<title>pdf</title>
<path d="M23,15.6L23,15.6c0.3-1.1,0.6-1.7,0.6-2.5v-0.5c0.3-1.4,0.3-2.5,0-2.8V9.4l-0.3-0.3l0,0c0,0.1-0.1,0.3-0.3,0.3c0,0,0,0,0,0
	C22.5,11.1,22.5,13,23,15.6z M14.7,34.7c-0.6,0.3-1.1,0.6-1.4,0.8c-1.9,1.7-3.3,3.6-3.6,4.4l0,0C11.4,39.7,13,38.1,14.7,34.7
	L14.7,34.7z M40.3,30.6c-0.3-0.3-1.4-1.1-5.3-1.1h-0.6v0.3c1.9,0.8,3.9,1.4,5.3,1.4h0.8v-0.3l0,0C40.4,30.8,40.3,30.7,40.3,30.6
	L40.3,30.6z M44.4,0H5.6C2.5,0,0,2.5,0,5.6v38.9C0,47.5,2.5,50,5.6,50h38.9c3.1,0,5.6-2.5,5.6-5.6V5.6C50,2.5,47.5,0,44.4,0z
	 M41.4,32.8c-0.8,0.4-1.6,0.6-2.5,0.6c-2.2,0-5.6-0.6-8.3-1.9c-4.7,0.6-8.3,1.1-11.1,2.2c-0.3,0-0.3,0-0.6,0.3
	c-3.3,5.8-6.1,8.6-8.3,8.6c-0.5,0-0.8,0-1.1-0.3l-1.3-0.8v-0.3c-0.3-0.6-0.3-0.8-0.3-1.4c0.3-1.4,1.9-3.9,5.3-5.8
	c0.5-0.3,1.4-0.8,2.5-1.4c0.8-1.4,1.7-3,2.8-5c1.4-2.8,2.2-5.6,3-8.1l0,0c-1.1-3.3-1.7-5.3-0.6-9.1c0.3-1.1,1.1-2.2,2.2-2.2h0.6
	c0.6,0,1.1,0.3,1.7,0.5c1.9,1.9,1.1,6.4,0,10v0.3c1.1,3,2.8,5.6,4.4,7.2c0.8,0.6,1.4,1.1,2.5,1.7c1.4,0,2.5-0.3,3.6-0.3
	c3.3,0,5.6,0.6,6.4,1.9c0.3,0.6,0.3,1.1,0.3,1.7C42.2,31.4,41.9,32.2,41.4,32.8z M23.3,21.9c-0.6,1.9-1.7,4.2-2.8,6.7
	c-0.6,1.1-1.1,1.9-1.7,3h0.6c3.6-1.4,6.9-2.2,9.2-2.5c-0.4-0.2-0.8-0.5-1.1-0.8C26.1,26.7,24.4,24.4,23.3,21.9z"/>
</svg>
