<?xml version="1.0" encoding="utf-8"?>
<!-- Generator: Adobe Illustrator 21.0.0, SVG Export Plug-In . SVG Version: 6.00 Build 0)  -->
<svg version="1.1" id="Layer_1" xmlns="http://www.w3.org/2000/svg" xmlns:xlink="http://www.w3.org/1999/xlink" x="0px" y="0px"
	 viewBox="0 0 50 50" style="enable-background:new 0 0 50 50;" xml:space="preserve">
<title>close</title>
<path d="M48.2,15.1L46,17.3L32.7,4l2.2-2.2c2.4-2.4,6.4-2.4,8.8,0l4.4,4.4C50.6,8.7,50.6,12.6,48.2,15.1z M17.2,41.6
	c-0.6,0.6-0.6,1.6,0,2.2c0.6,0.6,1.6,0.6,2.2,0l24.3-24.3l-2.2-2.2L17.2,41.6z M6.2,30.6c-0.6,0.6-0.6,1.6,0,2.2
	c0.6,0.6,1.6,0.6,2.2,0L32.7,8.5l-2.2-2.2L6.2,30.6z M34.9,10.7L10.6,35c-1.2,1.2-1.2,3.2,0,4.4c1.2,1.2,3.2,1.2,4.4,0l24.3-24.3
	L34.9,10.7z M15,46c-0.7-0.7-1.1-1.7-1.2-2.7c-0.3,0.1-0.6,0.1-1,0.1c-3.4,0.1-6.2-2.6-6.2-6c0-0.4,0-0.8,0.1-1.2
	c-1-0.1-2-0.6-2.7-1.3c-0.1-0.1-0.1-0.2-0.2-0.2L0,50l15.2-3.8C15.2,46.1,15.1,46.1,15,46L15,46z"/>
</svg>
