<?xml version="1.0" encoding="utf-8"?>
<!-- Generator: Adobe Illustrator 21.0.0, SVG Export Plug-In . SVG Version: 6.00 Build 0)  -->
<svg version="1.1" id="Layer_1" xmlns="http://www.w3.org/2000/svg" xmlns:xlink="http://www.w3.org/1999/xlink" x="0px" y="0px"
	 viewBox="0 0 50 50" style="enable-background:new 0 0 50 50;" xml:space="preserve">
<title>close</title>
<path d="M48.9,39.5l-7.7-7.7c-1.5-1.5-4.1-1.5-5.7,0.1l-3.9,3.9l-0.8-0.4c-2.5-1.4-5.8-3.2-9.4-6.8c-3.5-3.5-5.4-6.9-6.8-9.4
	c-0.1-0.3-0.3-0.5-0.4-0.8l2.6-2.6l1.3-1.3c1.6-1.6,1.6-4.2,0.1-5.7l-7.7-7.7C9-0.4,6.5-0.4,4.9,1.2L2.7,3.4l0.1,0.1
	C2,4.4,1.4,5.5,1,6.7c-0.4,1-0.7,2.1-0.8,3.2c-1,8.5,2.8,16.2,13.3,26.7C28,51.1,39.6,50,40.2,50c1.1-0.1,2.2-0.4,3.2-0.8
	c1.1-0.4,2.2-1,3.2-1.8l0,0l2.2-2.2C50.4,43.6,50.4,41.1,48.9,39.5z"/>
</svg>
