<?xml version="1.0" encoding="utf-8"?>
<!-- Generator: Adobe Illustrator 21.0.0, SVG Export Plug-In . SVG Version: 6.00 Build 0)  -->
<svg version="1.1" id="Layer_1" xmlns="http://www.w3.org/2000/svg" xmlns:xlink="http://www.w3.org/1999/xlink" x="0px" y="0px"
	 viewBox="0 0 50 50" style="enable-background:new 0 0 50 50;" xml:space="preserve">
<title>close</title>
<path d="M43.4,18.3H31.7V6.6C31.7,3,28.7,0,25,0s-6.7,3-6.7,6.7v11.7H6.6C3,18.3,0,21.3,0,25s3,6.6,6.6,6.6c0,0,0,0,0,0h11.7v11.8
	c0,3.7,3,6.6,6.6,6.6c3.7,0,6.6-3,6.6-6.6V31.6h11.8c3.7,0,6.6-3,6.6-6.6C50,21.4,47,18.4,43.4,18.3L43.4,18.3z"/>
</svg>
