<?xml version="1.0" encoding="utf-8"?>
<!-- Generator: Adobe Illustrator 21.0.0, SVG Export Plug-In . SVG Version: 6.00 Build 0)  -->
<svg version="1.1" id="Layer_1" xmlns="http://www.w3.org/2000/svg" xmlns:xlink="http://www.w3.org/1999/xlink" x="0px" y="0px"
	 viewBox="0 0 50 50" style="enable-background:new 0 0 50 50;" xml:space="preserve">
<style type="text/css">
	.st0{fill:#030104;}
</style>
<title>logo-design</title>
<path class="st0" d="M9.6,3.3C4.2,3.4-0.1,7.8,0,13.2c0,0,0,0,0,0c-0.1,5.4,4.2,9.8,9.6,9.9c0,0,0,0,0,0c9.6,0,3.2,19.1-9.6,19.1
	v4.6C22.8,46.7,31.8,3.3,9.6,3.3z M37.2,3.3c-5.4,0.1-9.7,4.5-9.6,9.9c0,0,0,0,0,0c-0.1,5.4,4.2,9.8,9.6,9.9c0,0,0,0,0,0
	c9.6,0,3.2,19.1-9.6,19.1v4.6C50.5,46.7,59.4,3.3,37.2,3.3z"/>
</svg>
