<?xml version="1.0" encoding="utf-8"?>
<!-- Generator: Adobe Illustrator 21.0.0, SVG Export Plug-In . SVG Version: 6.00 Build 0)  -->
<svg version="1.1" id="Layer_1" xmlns="http://www.w3.org/2000/svg" xmlns:xlink="http://www.w3.org/1999/xlink" x="0px" y="0px"
	 viewBox="0 0 50 50" style="enable-background:new 0 0 50 50;" xml:space="preserve">
<title>close</title>
<path d="M33.6,5.8c-7.7-7.7-20.1-7.7-27.8,0s-7.7,20.1,0,27.8c6.7,6.7,17.3,7.7,25.2,2.3c0.2,0.8,0.6,1.5,1.1,2.1l11.2,11.2
	c1.8,1.4,4.4,1.1,5.8-0.7c1.2-1.5,1.2-3.6,0-5.1L37.9,32.1c-0.6-0.6-1.3-1-2.1-1.1C41.3,23.1,40.4,12.5,33.6,5.8z M30.1,30.1
	c-5.7,5.7-15,5.7-20.8,0s-5.7-15,0-20.8c5.7-5.7,15-5.7,20.8,0C35.8,15,35.8,24.3,30.1,30.1C30.1,30.1,30.1,30.1,30.1,30.1z"/>
</svg>
