<?xml version="1.0" encoding="utf-8"?>
<!-- Generator: Adobe Illustrator 21.0.0, SVG Export Plug-In . SVG Version: 6.00 Build 0)  -->
<svg version="1.1" id="Layer_1" xmlns="http://www.w3.org/2000/svg" xmlns:xlink="http://www.w3.org/1999/xlink" x="0px" y="0px"
	 viewBox="0 0 50 50" style="enable-background:new 0 0 50 50;" xml:space="preserve">
<title>skype-logo</title>
<path d="M47.8,28.6c0.2-1.2,0.3-2.4,0.3-3.6c0-12.8-10.4-23.2-23.2-23.2c-1.2,0-2.4,0.1-3.6,0.3C14.8-2,6.1,0.1,2.1,6.7
	c-2.8,4.5-2.8,10.2,0,14.7c-0.2,1.2-0.3,2.4-0.3,3.6c0,12.8,10.4,23.2,23.2,23.2c1.2,0,2.4-0.1,3.6-0.3c6.6,4.1,15.2,2,19.3-4.5
	C50.6,38.8,50.6,33.1,47.8,28.6L47.8,28.6z M36,35.5c-1,1.4-2.4,2.5-4.3,3.3C29.8,39.6,27.5,40,25,40c-3.1,0-5.6-0.5-7.7-1.6
	c-1.4-0.7-2.6-1.8-3.5-3.1c-0.9-1.3-1.3-2.6-1.3-3.8c0-0.7,0.3-1.4,0.8-1.9c0.6-0.5,1.2-0.8,2.1-0.8c0.6,0,1.2,0.2,1.8,0.6
	c0.5,0.4,0.9,1,1.2,1.8c0.3,0.8,0.8,1.6,1.3,2.3c0.5,0.6,1.2,1.2,1.9,1.5c0.8,0.4,1.9,0.6,3.2,0.6c1.9,0,3.3-0.4,4.5-1.2
	c1.1-0.8,1.7-1.8,1.7-2.9c0-0.9-0.3-1.7-0.9-2.2c-0.6-0.6-1.4-1-2.4-1.3s-2.3-0.6-4-1c-2.2-0.5-4.1-1.1-5.6-1.7s-2.7-1.6-3.6-2.7
	c-0.9-1.1-1.3-2.6-1.3-4.2c0-1.6,0.5-3.1,1.4-4.3c0.9-1.2,2.3-2.2,4.1-2.9c1.8-0.7,3.9-1,6.3-1c1.9,0,3.6,0.2,5,0.7
	c1.4,0.4,2.6,1,3.5,1.8c0.9,0.7,1.6,1.5,2,2.3c0.4,0.8,0.6,1.6,0.6,2.4c0,0.7-0.3,1.4-0.8,1.9c-0.5,0.6-1.3,0.9-2.1,0.9
	c-0.7,0-1.3-0.2-1.7-0.5c-0.4-0.4-0.8-0.9-1.2-1.7c-0.6-1.1-1.2-1.9-2-2.5c-0.8-0.6-2-0.9-3.8-0.9c-1.6,0-2.9,0.3-3.9,1
	s-1.4,1.4-1.5,2.3c0,0.5,0.2,1,0.5,1.4c0.4,0.4,0.8,0.8,1.4,1c0.6,0.3,1.2,0.5,1.8,0.7c0.6,0.2,1.6,0.4,3,0.7
	c1.8,0.4,3.3,0.8,4.8,1.2c1.4,0.5,2.6,1,3.6,1.7c1,0.6,1.8,1.5,2.4,2.5c0.6,1,0.9,2.3,0.9,3.7C37.4,32.5,36.9,34.1,36,35.5z"/>
</svg>
