<?xml version="1.0" encoding="utf-8"?>
<!-- Generator: Adobe Illustrator 25.0.0, SVG Export Plug-In . SVG Version: 6.00 Build 0)  -->
<svg version="1.1" baseProfile="tiny" id="Capa_1" xmlns="http://www.w3.org/2000/svg" xmlns:xlink="http://www.w3.org/1999/xlink"
	 x="0px" y="0px" viewBox="0 0 50 50" overflow="visible" xml:space="preserve">
<g>
	<path d="M40.2,11.8c0.4,0.2,0.8,0.2,1.2,0l3.2-1.8c0.4-0.2,0.6-0.6,0.6-1c0-0.4-0.2-0.8-0.6-1l-3.2-1.8c-0.4-0.2-0.8-0.2-1.2,0
		c-0.4,0.2-0.6,0.6-0.6,1v3.7C39.7,11.2,39.9,11.6,40.2,11.8L40.2,11.8z M41.1,7.6l2.3,1.3l-2.3,1.3V7.6z"/>
	<path d="M47.2,17.4H37.1c-1.1,0-1.9,0.9-1.9,1.9v10.2c0,1.1,0.9,1.9,1.9,1.9h10.2c1.1,0,1.9-0.9,1.9-1.9V19.4
		C49.2,18.3,48.3,17.4,47.2,17.4L47.2,17.4z M47.7,29.5c0,0.3-0.2,0.5-0.5,0.5H37.1c-0.3,0-0.5-0.2-0.5-0.5V19.4
		c0-0.3,0.2-0.5,0.5-0.5h10.2c0.3,0,0.5,0.2,0.5,0.5V29.5z"/>
	<path d="M42.2,22.3c-1.8,0-3.3,1.5-3.3,3.3c0,1.8,1.5,3.3,3.3,3.3s3.3-1.5,3.3-3.3C45.4,23.8,44,22.3,42.2,22.3L42.2,22.3z
		 M42.2,27.4c-1,0-1.8-0.8-1.8-1.8c0-1,0.8-1.8,1.8-1.8s1.8,0.8,1.8,1.8C44,26.6,43.2,27.4,42.2,27.4z"/>
	<path d="M45.6,20c-0.4,0-0.7,0.3-0.7,0.7v0.6c0,0.4,0.3,0.7,0.7,0.7c0.4,0,0.7-0.3,0.7-0.7v-0.6C46.4,20.3,46,20,45.6,20z"/>
	<path d="M41.3,41.5c-0.1,0.1-0.2,0.1-0.2,0l-0.4-0.4c-0.3-0.3-0.7-0.3-1,0c-0.3,0.3-0.3,0.7,0,1l0.4,0.4c0.6,0.6,1.7,0.6,2.3,0
		l2.1-2.1c0.6-0.6,0.6-1.7,0-2.3L44,37.7c-0.3-0.3-0.7-0.3-1,0c-0.3,0.3-0.3,0.7,0,1l0.4,0.4c0.1,0.1,0.1,0.2,0,0.2L41.3,41.5z"/>
	<path d="M25.4,11.9C25.4,11.9,25.4,11.9,25.4,11.9c-0.4,0-0.7,0.3-0.7,0.7V13l-4.3,1.8c0-0.4-0.3-0.7-0.7-0.7c0,0,0,0,0,0
		c-0.4,0-0.7,0.3-0.7,0.7v0.6l-3.3,1.4c-5.2,0-2.8,0-8.2,0c0,0,0,0,0,0c-1.2,0-2.2,1-2.2,2.2v0.2l-0.9,0v0c0-0.4-0.3-0.7-0.7-0.7
		c0,0,0,0,0,0C3.3,18.3,3,18.6,3,19v0.1c-1.7,0.3-3,1.8-3,3.6c0,1.8,1.3,3.2,3,3.6v0.1c0,0.4,0.3,0.7,0.7,0.7h0
		c0.4,0,0.7-0.3,0.7-0.7v0l0.9,0v0.2c0,0.6,0.2,1.1,0.6,1.5c0.4,0.4,0.9,0.6,1.5,0.6h0.2l0,2.4c0,0.4,0.3,0.7,0.7,0.7
		c0.4,0,0.7-0.3,0.7-0.7l0-2.4l3.6,0l0,2.3c0,0,0,0.1-0.1,0.1l-1.1,0.5c-0.5,0.3-0.9,0.8-0.9,1.4l0,3.2c0,0.3-0.2,0.6-0.6,0.6H9.6
		c-0.3,0-0.6-0.2-0.6-0.6l0-1.9c0-0.4-0.3-0.7-0.7-0.7c0,0,0,0,0,0c-0.4,0-0.7,0.3-0.7,0.7l0,1.9c0,1.1,0.9,2,2,2h0.4
		c1.1,0,2-0.9,2-2l0-3.2c0,0,0-0.1,0.1-0.1l1.1-0.5c0.5-0.3,0.9-0.8,0.9-1.4l0-2.3l1.6,0L19,30v0.6c0,0.4,0.3,0.7,0.7,0.7h0
		c0.4,0,0.7-0.3,0.7-0.7l4.3,1.8v0.4c0,0.4,0.3,0.7,0.7,0.7h0c0.4,0,0.7-0.3,0.7-0.7l0-0.9c0,0,0,0,0,0l0-9.2l0-10.1
		C26.2,12.2,25.8,11.9,25.4,11.9L25.4,11.9z M9.4,18.2c0.4,0,2.8,0,3,0l0,1c0,0.3-0.2,0.5-0.5,0.5h0c0,0,0,0,0,0l-1.9,0
		c-0.3,0-0.5-0.2-0.5-0.5L9.4,18.2z M1.5,22.7c0-1,0.6-1.8,1.5-2.1l0,4.1C2.1,24.5,1.5,23.6,1.5,22.7z M4.4,24.8l0-4.3h0.9
		c0,0.7,0,3.6,0,4.3H4.4z M6.9,27c-0.1-0.1-0.2-0.3-0.2-0.5c0-1.9,0-5.7,0-7.6c0-0.2,0.1-0.4,0.2-0.5s0.3-0.2,0.5-0.2h0h0.5l0,1
		c0,1.1,0.9,2,2,2l1.9,0h0c1.1,0,2-0.9,2-2l0-1l1.3,0c0,1.1,0,7.9,0,9l-7.7,0C7.2,27.2,7.1,27.1,6.9,27L6.9,27z M16.6,27.4
		c0-1.1,0-8.4,0-9.5l2.4-1l0,11.5L16.6,27.4z M20.4,29l0-12.7l4.3-1.8l0,8.1l0,8.1L20.4,29z"/>
	<path d="M32,22h-2.9c-0.4,0-0.7,0.3-0.7,0.7c0,0.4,0.3,0.7,0.7,0.7H32c0.4,0,0.7-0.3,0.7-0.7C32.8,22.3,32.4,22,32,22z"/>
	<path d="M28.7,16.5l2.1-2.1c0.3-0.3,0.3-0.7,0-1c-0.3-0.3-0.7-0.3-1,0l-2.1,2.1c-0.3,0.3-0.3,0.7,0,1C28,16.8,28.4,16.8,28.7,16.5z
		"/>
	<path d="M28.7,28.8c-0.3-0.3-0.7-0.3-1,0c-0.3,0.3-0.3,0.7,0,1l2.1,2.1c0.3,0.3,0.7,0.3,1,0c0.3-0.3,0.3-0.7,0-1L28.7,28.8z"/>
	<path d="M42.2,33.2c-3.9,0-7,3.1-7,7c0,1.1,0.3,2.2,0.7,3.1L35.2,46c-0.1,0.3,0,0.5,0.2,0.7c0.2,0.2,0.5,0.3,0.7,0.2l2.5-0.7
		c1.1,0.7,2.3,1,3.6,1c1.6,0,3.1-0.5,4.3-1.5c0.3-0.2,0.4-0.7,0.1-1c-0.2-0.3-0.7-0.4-1-0.1c-1,0.8-2.2,1.2-3.4,1.2
		c-1.1,0-2.2-0.3-3.1-0.9c-0.2-0.1-0.4-0.2-0.6-0.1l-1.6,0.4l0.5-1.7c0-0.2,0-0.4-0.1-0.5c-0.5-0.8-0.7-1.7-0.7-2.7
		c0-3.1,2.5-5.5,5.5-5.5c3.1,0,5.5,2.5,5.5,5.5c0,0.8-0.2,1.6-0.5,2.3c-0.2,0.4,0,0.8,0.4,1c0.4,0.2,0.8,0,1-0.4
		c0.4-0.9,0.6-1.9,0.6-2.9C49.2,36.4,46,33.2,42.2,33.2L42.2,33.2z"/>
	<path d="M47.8,2.8h-6.8c-0.4,0-0.7,0.3-0.7,0.7s0.3,0.7,0.7,0.7h6.8c0.4,0,0.7,0.3,0.7,0.7v8c0,0.4-0.3,0.7-0.7,0.7H36.5
		c-0.4,0-0.7-0.3-0.7-0.7v-8c0-0.4,0.3-0.7,0.7-0.7h1.7c0.4,0,0.7-0.3,0.7-0.7s-0.3-0.7-0.7-0.7h-1.7c-1.2,0-2.2,1-2.2,2.2v8
		c0,1.2,1,2.2,2.2,2.2h11.4c1.2,0,2.2-1,2.2-2.2v-8C50,3.7,49,2.8,47.8,2.8L47.8,2.8z"/>
</g>
</svg>
