<?xml version="1.0" encoding="utf-8"?>
<!-- Generator: Adobe Illustrator 21.0.0, SVG Export Plug-In . SVG Version: 6.00 Build 0)  -->
<svg version="1.1" id="Layer_1" xmlns="http://www.w3.org/2000/svg" xmlns:xlink="http://www.w3.org/1999/xlink" x="0px" y="0px"
	 viewBox="0 0 50 50" style="enable-background:new 0 0 50 50;" xml:space="preserve">
<title>close</title>
<path d="M21.4,41.4h-17V31.3C-1.1,26.1-1.5,17.5,3.7,12S17.4,6.1,23,11.2c1.9,1.7,3.2,4,3.9,6.4l0.1,0.2l0.1,2.2l4.1,5.8l-3.6,2.6v2
	c0,2.4-2,4.4-4.4,4.4h-1.7L21.4,41.4L21.4,41.4z M7.8,37.9H18v-6.4h5.1c0.5,0,1-0.4,1-1l0,0v-3.8l2.3-1.7l-2.7-3.8l-0.1-2.9
	c-1.6-5.4-7.3-8.6-12.7-7s-8.6,7.3-7,12.7c0.6,2,1.7,3.8,3.4,5.1l0.6,0.5C7.8,29.7,7.8,37.9,7.8,37.9z"/>
<path d="M35,32l-2.4-2.4c1.5-1.6,1.5-4.1,0-5.6l2.4-2.4C37.8,24.5,37.8,29.1,35,32z"/>
<path d="M39.6,35.7l-2.4-2.4c3.6-3.6,3.6-9.3,0-12.9l2.4-2.4C44.5,22.8,44.5,30.8,39.6,35.7z"/>
<path d="M44.9,39.1l-2.4-2.4c5.5-5.5,5.5-14.3,0-19.8l2.4-2.4C51.7,21.3,51.7,32.3,44.9,39.1z"/>
</svg>
