<?xml version="1.0" encoding="utf-8"?>
<!-- Generator: Adobe Illustrator 25.0.0, SVG Export Plug-In . SVG Version: 6.00 Build 0)  -->
<svg version="1.1" id="Capa_1" xmlns="http://www.w3.org/2000/svg" xmlns:xlink="http://www.w3.org/1999/xlink" x="0px" y="0px"
	 viewBox="0 0 50 50" style="enable-background:new 0 0 50 50;" xml:space="preserve">
<g>
	<path d="M49.8,19c-0.6-1.8-2.2-3-4.2-3H33.1L29.2,4c-0.6-1.8-2.2-3-4.2-3c0,0,0,0,0,0c-1.9,0-3.6,1.2-4.2,3.1L17,16H4.4
		c-1.9,0-3.6,1.2-4.2,3c-0.6,1.8,0,3.8,1.6,4.9L12,31.3L8.1,43.2c-0.6,1.8,0,3.8,1.6,4.9c0.8,0.6,1.7,0.9,2.6,0.9
		c0.9,0,1.8-0.3,2.6-0.8l10.2-7.4l10.1,7.4c1.6,1.1,3.6,1.1,5.2,0c1.6-1.1,2.2-3.1,1.6-4.9l-3.8-11.9l10.1-7.4
		C49.8,22.8,50.4,20.8,49.8,19L49.8,19z M46.5,21.6l-11.8,8.6l4.5,14c0.3,0.9-0.3,1.5-0.5,1.6c-0.2,0.1-0.9,0.6-1.7,0l-11.8-8.6
		l-11.9,8.6c-0.8,0.6-1.5,0.1-1.7,0c-0.2-0.1-0.8-0.7-0.5-1.6l4.6-13.9L3.5,21.6C2.7,21,2.9,20.2,3,19.9s0.4-1,1.4-1h14.7L23.6,5
		c0.3-0.9,1.1-1,1.4-1h0c0.3,0,1.1,0.1,1.4,1l4.6,14h14.6c1,0,1.3,0.8,1.4,1S47.3,21,46.5,21.6L46.5,21.6z"/>
</g>
</svg>
