<?xml version="1.0" encoding="utf-8"?>
<!-- Generator: Adobe Illustrator 25.0.0, SVG Export Plug-In . SVG Version: 6.00 Build 0)  -->
<svg version="1.1" id="Layer_1" xmlns="http://www.w3.org/2000/svg" xmlns:xlink="http://www.w3.org/1999/xlink" x="0px" y="0px"
	 viewBox="0 0 50 50" style="enable-background:new 0 0 50 50;" xml:space="preserve">
<path d="M30.3,50H11.7C5.3,50,0,44.7,0,38.3V11.7C0,5.3,5.3,0,11.7,0h26.6C44.7,0,50,5.3,50,11.7v18.7c0,1.1-0.9,2-2,2s-2-0.9-2-2
	V11.7c0-4.3-3.5-7.8-7.8-7.8H11.7c-4.3,0-7.8,3.5-7.8,7.8v26.6c0,4.3,3.5,7.8,7.8,7.8h18.6c1.1,0,2,0.9,2,2S31.4,50,30.3,50z
	 M40.2,12.3c0-1.1-0.9-2-2-2H20.4c-1.1,0-2,0.9-2,2s0.9,2,2,2h17.9C39.4,14.3,40.2,13.4,40.2,12.3z M40.2,20.1c0-1.1-0.9-2-2-2H11.7
	c-1.1,0-2,0.9-2,2s0.9,2,2,2h26.6C39.4,22.1,40.2,21.2,40.2,20.1z M20.7,27.9c0-1.1-0.9-2-2-2h-7c-1.1,0-2,0.9-2,2s0.9,2,2,2h7
	C19.8,29.9,20.7,29,20.7,27.9z M9.8,12.1c0,1.3,1.1,2.4,2.4,2.4s2.4-1.1,2.4-2.4s-1.1-2.4-2.4-2.4S9.8,10.8,9.8,12.1z M47.9,47.9
	c2.8-2.8,2.8-7.3,0-10.1L41.1,31c-2-2-4.5-3.3-7.2-3.9L28.3,26c-0.6-0.1-1.3,0.1-1.8,0.5c-0.5,0.5-0.7,1.1-0.5,1.8l1.1,5.5
	c0.5,2.7,1.9,5.2,3.9,7.2l6.8,6.8c1.3,1.3,3.1,2.1,5,2.1S46.6,49.3,47.9,47.9L47.9,47.9z M33.1,31c2,0.4,3.8,1.4,5.2,2.8l6.8,6.8
	c1.3,1.3,1.3,3.3,0,4.6c-0.6,0.6-1.4,0.9-2.3,0.9s-1.7-0.3-2.3-0.9l-6.8-6.8c-1.4-1.4-2.4-3.2-2.8-5.2l-0.5-2.7L33.1,31z"/>
</svg>
