<?xml version="1.0" encoding="utf-8"?>
<!-- Generator: Adobe Illustrator 25.0.0, SVG Export Plug-In . SVG Version: 6.00 Build 0)  -->
<svg version="1.1" id="Layer_1" xmlns="http://www.w3.org/2000/svg" xmlns:xlink="http://www.w3.org/1999/xlink" x="0px" y="0px"
	 viewBox="0 0 50 50" style="enable-background:new 0 0 50 50;" xml:space="preserve">
<g>
	<path d="M24.3,24.1c3.3,0,6.2-1.2,8.5-3.5c2.3-2.3,3.5-5.2,3.5-8.5c0-3.3-1.2-6.2-3.5-8.5C30.4,1.2,27.6,0,24.3,0
		c-3.3,0-6.2,1.2-8.5,3.5s-3.5,5.2-3.5,8.5c0,3.3,1.2,6.2,3.5,8.5C18.1,22.9,21,24.1,24.3,24.1z M17.8,5.6c1.8-1.8,3.9-2.7,6.4-2.7
		c2.5,0,4.6,0.9,6.4,2.7c1.8,1.8,2.7,3.9,2.7,6.4c0,2.5-0.9,4.6-2.7,6.4c-1.8,1.8-3.9,2.7-6.4,2.7c-2.5,0-4.6-0.9-6.4-2.7
		c-1.8-1.8-2.7-3.9-2.7-6.4C15.2,9.5,16,7.4,17.8,5.6z"/>
	<path d="M45.3,38.4c-0.1-1-0.2-2-0.4-3.2c-0.2-1.1-0.5-2.2-0.8-3.2c-0.3-1-0.8-2-1.3-3c-0.6-1-1.2-1.9-2-2.6
		c-0.8-0.7-1.7-1.3-2.8-1.8c-1.1-0.4-2.3-0.7-3.6-0.7c-0.5,0-1,0.2-2,0.8c-0.6,0.4-1.3,0.8-2,1.3c-0.7,0.4-1.5,0.8-2.6,1.2
		c-1.1,0.3-2.2,0.5-3.2,0.5c-1.1,0-2.2-0.2-3.2-0.5c-1.1-0.4-2-0.7-2.6-1.2c-0.8-0.5-1.4-0.9-2-1.3c-1-0.6-1.4-0.8-2-0.8
		c-1.3,0-2.5,0.2-3.6,0.7c-1.1,0.4-2.1,1-2.8,1.8c-0.7,0.7-1.4,1.6-2,2.6c-0.5,1-1,2-1.3,3c-0.3,1-0.6,2-0.8,3.2
		c-0.2,1.1-0.3,2.2-0.4,3.2c-0.1,1-0.1,1.9-0.1,3c0,2.6,0.8,4.7,2.5,6.3c1.6,1.5,3.8,2.3,6.4,2.3h24.1c2.6,0,4.7-0.8,6.4-2.3
		c1.6-1.6,2.5-3.7,2.5-6.3C45.4,40.4,45.4,39.4,45.3,38.4z M41,45.6c-1.1,1-2.5,1.5-4.3,1.5H12.5c-1.8,0-3.3-0.5-4.3-1.5
		c-1-1-1.6-2.4-1.6-4.2c0-0.9,0-1.9,0.1-2.7c0.1-0.9,0.2-1.8,0.4-2.8c0.2-1,0.4-1.9,0.7-2.8c0.3-0.8,0.6-1.6,1.1-2.4
		c0.4-0.7,0.9-1.4,1.4-1.9c0.5-0.5,1.1-0.9,1.9-1.2c0.7-0.3,1.5-0.4,2.3-0.4c0.1,0.1,0.3,0.2,0.6,0.4c0.6,0.4,1.3,0.8,2.1,1.3
		c0.9,0.6,2,1,3.3,1.5c1.4,0.4,2.7,0.7,4.1,0.7s2.8-0.2,4.1-0.7c1.3-0.4,2.4-0.9,3.3-1.5c0.8-0.5,1.5-0.9,2.1-1.3
		c0.3-0.2,0.5-0.3,0.6-0.4c0.8,0,1.6,0.2,2.3,0.4c0.7,0.3,1.4,0.7,1.9,1.2c0.5,0.5,1,1.2,1.4,1.9c0.4,0.8,0.8,1.6,1.1,2.4
		c0.3,0.9,0.5,1.8,0.7,2.8c0.2,1,0.3,2,0.4,2.8v0c0.1,0.9,0.1,1.8,0.1,2.7C42.5,43.2,42,44.6,41,45.6z"/>
</g>
</svg>
