<?xml version="1.0" encoding="utf-8"?>
<!-- Generator: Adobe Illustrator 25.0.0, SVG Export Plug-In . SVG Version: 6.00 Build 0)  -->
<svg version="1.1" id="Layer_1" xmlns="http://www.w3.org/2000/svg" xmlns:xlink="http://www.w3.org/1999/xlink" x="0px" y="0px"
	 viewBox="0 0 50 50" style="enable-background:new 0 0 50 50;" xml:space="preserve">
<g>
	<path d="M42.5,26.1c-1-1-2.7-1-3.6,0L25.6,39.3L23.7,46l-0.4,0.4c-0.3,0.3-0.3,0.9,0,1.2l0,0l0,0c0.2,0.2,0.4,0.3,0.6,0.3
		c0.2,0,0.4-0.1,0.6-0.3l0.4-0.4l6.7-1.8l13.3-13.3c1-1,1-2.6,0-3.6L42.5,26.1z M27.6,39.8l8.8-8.8l3.7,3.7l-8.8,8.8L27.6,39.8z
		 M26.8,41.4l2.8,2.8l-3.8,1L26.8,41.4z M43.7,30.9l-2.4,2.4l-3.7-3.7l2.4-2.4c0.3-0.3,0.9-0.3,1.2,0l2.5,2.5
		C44.1,30.1,44.1,30.6,43.7,30.9z"/>
	<path d="M31.9,21.9c0-0.3-0.1-0.6-0.4-0.7l-9.5-6c-0.3-0.2-0.6-0.2-0.9,0c-0.3,0.1-0.4,0.4-0.4,0.8v12.1c0,0.3,0.2,0.6,0.4,0.8
		c0.1,0.1,0.3,0.1,0.4,0.1c0.2,0,0.3,0,0.5-0.1l9.5-6C31.8,22.4,31.9,22.2,31.9,21.9z M22.4,26.3v-8.9l7,4.5L22.4,26.3z"/>
	<path d="M49.1,2h-8.6h-31H0.9C0.4,2,0,2.4,0,2.9v9.5v9.5v9.5v9.5c0,0.5,0.4,0.9,0.9,0.9h8.6h10.3c0.5,0,0.9-0.4,0.9-0.9
		c0-0.5-0.4-0.9-0.9-0.9h-9.5v-8.6v-9.5v-9.5V3.8h29.3v8.6v9.5c0,0.5,0.4,0.9,0.9,0.9h7.8v6.9c0,0.5,0.4,0.9,0.9,0.9
		s0.9-0.4,0.9-0.9v-7.8v-9.5V2.9C50,2.4,49.6,2,49.1,2z M1.7,22.7h6.9v7.8H1.7V22.7z M8.6,21H1.7v-7.8h6.9V21z M1.7,40v-7.8h6.9V40
		H1.7z M8.6,11.5H1.7V3.8h6.9V11.5z M48.3,3.8v7.8h-6.9V3.8H48.3z M41.4,21v-7.8h6.9V21H41.4z"/>
</g>
</svg>
