<svg xmlns="http://www.w3.org/2000/svg" xmlns:xlink="http://www.w3.org/1999/xlink" version="1.1" x="0px" y="0px" viewBox="0 0 58 66.5875" enable-background="new 0 0 58 53.27" xml:space="preserve"><g><path fill="#000000" d="M49.28,27.87c-1.13-1.13-3.09-1.13-4.22,0L29.66,43.26l-2.12,7.78l-0.52,0.52   c-0.39,0.39-0.39,1.01-0.01,1.41l-0.01,0.02l0.02-0.01c0.19,0.19,0.45,0.29,0.7,0.29c0.26,0,0.51-0.1,0.71-0.29l0.52-0.52   l7.78-2.12l15.39-15.39c1.16-1.16,1.16-3.06,0-4.22L49.28,27.87z M31.97,43.78l10.24-10.24l4.24,4.24L36.22,48.03L31.97,43.78z    M31.07,45.71l3.22,3.22l-4.43,1.21L31.07,45.71z M50.71,33.53l-2.84,2.84l-4.24-4.24l2.84-2.84c0.37-0.37,1.02-0.37,1.39,0   l2.85,2.85C51.1,32.52,51.1,33.15,50.71,33.53z"/><path fill="#000000" d="M37,23c0-0.34-0.17-0.66-0.46-0.84l-11-7c-0.31-0.2-0.7-0.21-1.02-0.03C24.2,15.3,24,15.63,24,16v14   c0,0.37,0.2,0.7,0.52,0.88C24.67,30.96,24.83,31,25,31c0.19,0,0.37-0.05,0.54-0.16l11-7C36.83,23.66,37,23.34,37,23z M26,28.18   V17.82L34.14,23L26,28.18z"/><path fill="#000000" d="M57,0H47H11H1C0.45,0,0,0.45,0,1v11v11v11v11c0,0.55,0.45,1,1,1h10h12c0.55,0,1-0.45,1-1s-0.45-1-1-1H12V34   V23V12V2h34v10v11c0,0.55,0.45,1,1,1h9v8c0,0.55,0.45,1,1,1s1-0.45,1-1v-9V12V1C58,0.45,57.55,0,57,0z M2,24h8v9H2V24z M10,22H2v-9   h8V22z M2,44v-9h8v9H2z M10,11H2V2h8V11z M56,2v9h-8V2H56z M48,22v-9h8v9H48z"/></g><text x="0" y="68.27000000000001" fill="#000000" font-size="5px" font-weight="bold" font-family="'Helvetica Neue', Helvetica, Arial-Unicode, Arial, Sans-serif">Created by Ben Davis</text><text x="0" y="73.27000000000001" fill="#000000" font-size="5px" font-weight="bold" font-family="'Helvetica Neue', Helvetica, Arial-Unicode, Arial, Sans-serif">from the Noun Project</text></svg>