<svg width="18" height="10" viewBox="0 0 18 10" xmlns="http://www.w3.org/2000/svg"><path d="M1.7597 5C1.7597 3.29 2.99525 1.9 4.51526 1.9H8.07083V0H4.51526C2.06192 0 0.0708008 2.24 0.0708008 5C0.0708008 7.76 2.06192 10 4.51526 10H8.07083V8.1H4.51526C2.99525 8.1 1.7597 6.71 1.7597 5ZM5.40415 6H12.5153V4H5.40415V6ZM13.4042 0H9.84861V1.9H13.4042C14.9242 1.9 16.1597 3.29 16.1597 5C16.1597 6.71 14.9242 8.1 13.4042 8.1H9.84861V10H13.4042C15.8575 10 17.8486 7.76 17.8486 5C17.8486 2.24 15.8575 0 13.4042 0Z" fill="white"></path></svg>