<svg id="Layer_1" data-name="Layer 1" xmlns="http://www.w3.org/2000/svg" viewBox="0 0 31.89 32"><defs><style>.cls-1{fill:#fefefe;}.cls-2{fill:#def2f1;}.cls-3{fill:#3e3b3a;}.cls-4{fill:#3aafa9;}.cls-5{fill:#007878;}.cls-6{fill:#ce9169;}.cls-7{fill:#b67c56;}.cls-8{fill:#eceded;}.cls-9{fill:#dadadd;}.cls-10{fill:#77cee4;}.cls-11{fill:#f8d49f;}.cls-12{fill:#32384f;}</style></defs><title>lock</title><path class="cls-1" d="M31.58,12.83l0,.21h0Zm.14,5.44c0,.29-.08.58-.14.87a16.16,16.16,0,0,0,0-6.11c.1.52.16,1,.21,1.58s0,1.31,0,2A12.16,12.16,0,0,1,31.72,18.27ZM31.09,21q-.17.52-.38,1a15.84,15.84,0,0,0,.79-2.52l0,.14C31.35,20.12,31.24,20.57,31.09,21ZM23.69,2l.33.2a17.7,17.7,0,0,1,2,1.37,16.54,16.54,0,0,1,1.24,1.12c.36.37.72.76,1,1.16A16.28,16.28,0,0,1,29.7,7.92a15.47,15.47,0,0,1,1.54,3.55c.08.29.16.57.23.86A16,16,0,0,0,23.69,2Zm7.84,10.62-.07-.3ZM20.33.62c.36.1.72.22,1.07.35s.85.33,1.26.52.56.27.83.41A15.77,15.77,0,0,0,19.78.47ZM15.83,0h.51a14.27,14.27,0,0,1,1.79.14q.74.12,1.46.27h0A15.91,15.91,0,0,0,15.95,0ZM11,.8l-.38.13Zm.77-.23.83-.21c.37-.08.75-.14,1.12-.2s1-.11,1.44-.14A15.81,15.81,0,0,0,11,.8Zm-2.25.8L10.31,1a15.72,15.72,0,0,0-1.69.75C8.91,1.64,9.19,1.5,9.49,1.37ZM6.72,3q-.5.35-1,.74C6.07,3.44,6.39,3.19,6.72,3ZM4.6,27.23l0,0,0,0Z"/><path class="cls-2" d="M31.87,16.59a12.16,12.16,0,0,1-.15,1.69c0,.29-.08.58-.14.87l0,.16,0,.11,0,.11,0,.14c-.12.45-.23.9-.38,1.35s-.24.69-.38,1h0l-.06.15c-.12.31-.27.61-.42.91a15.35,15.35,0,0,1-.88,1.55l-.08.12-.11.16-.11.16-.2.29,0,0-.11.14q-.26.35-.54.68t-.7.78l-.17.18-.09.09-.14.14-.13.13-.14.13-.19.18a14.09,14.09,0,0,1-1.13.93l-.16.11-.63.44,0,0-.13.08a15.6,15.6,0,0,1-2,1.1A15.17,15.17,0,0,1,21,31.2c-.32.11-.65.21-1,.29s-.89.21-1.34.29a14.08,14.08,0,0,1-2.08.21h-.82l-.8,0a12.3,12.3,0,0,1-1.28-.14,16.49,16.49,0,0,1-2-.41l-.13,0-.38-.11c-.32-.1-.64-.21-1-.32a15.39,15.39,0,0,1-1.55-.69,14.82,14.82,0,0,1-1.77-1.06,14.65,14.65,0,0,1-1.88-1.52,2.65,2.65,0,0,1-.42-.41l0,0c.17-.08.33-.15.5-.24l1.1-.62a25.71,25.71,0,0,0,3-2c.16-.13.16-.13.07-.29s.21-.16.26-.29l-.2-.33c.14-.1.21-.26.34-.37l.14.08a1.22,1.22,0,0,0,1,0,.67.67,0,0,0,.34-.22.72.72,0,0,0,.14-.16v0h0l.14.09a1.33,1.33,0,0,0,2-.57c.14-.3.09-.38-.23-.53a2.54,2.54,0,0,1-.51-.19.28.28,0,0,1,.09-.06.72.72,0,0,0,.32-.31.23.23,0,0,0,0-.34l-.1-.12a.3.3,0,0,0,.1-.27.79.79,0,0,0-.26-.54c0-.06,0-.13,0-.19s-.17-.26-.39-.25a.33.33,0,0,1,.05-.1.22.22,0,0,0,0-.28.46.46,0,0,0-.45-.27l-.27,0a1.41,1.41,0,0,0,.08-.16c0-.07.11-.11.08-.2a3.46,3.46,0,0,0,.57,0,9.24,9.24,0,0,1,1.07-.05c.51,0,1,.08,1.54.12a10.41,10.41,0,0,1,1.28.21c.37.08.74.18,1.1.29s.86.29,1.28.46c.22.09.41.22.63.29,0,0,.08,0,.11,0a2.34,2.34,0,0,0,.83.33,1.84,1.84,0,0,0,.9,0,1.78,1.78,0,0,0,.8-.46,3.28,3.28,0,0,0,.81-1.67,2.55,2.55,0,0,1,.09-.46c.34.09.67.23,1,.34l1.5.52a3.55,3.55,0,0,0,.65.2L25.64,17l-.39,0L24,16.81l-1-.12c0-.34,0-.68,0-1s0-.39-.06-.59-.07-.46-.1-.69a6.49,6.49,0,0,0-.21-1L26,12.74c-.16-.58-.27-1.15-.44-1.72l-.17.07-.88.45L23,12.31l-.72.36a8.37,8.37,0,0,0-.51-1.36A9.35,9.35,0,0,0,21,9.85a4.94,4.94,0,0,1-.39-.52.12.12,0,0,1,0,0l.57-.47L23,7.28l.64-.53c-.3-.11-.59-.2-.86-.33a.42.42,0,0,0-.57.15c-.51.55-1,1.08-1.57,1.61l-.6.6a4.94,4.94,0,0,0-1.44-.91,2.31,2.31,0,0,0-1.78,0,1.67,1.67,0,0,0-.63.46,2.65,2.65,0,0,0-.53,1.08,2.32,2.32,0,0,0-.09.69,3,3,0,0,1-.34.74,9.6,9.6,0,0,1-1.76,2.28,6.52,6.52,0,0,1-2.33,1.45.74.74,0,0,1-.35.09,4.26,4.26,0,0,0-1,.28,8.54,8.54,0,0,0-1,.46,2.45,2.45,0,0,0-1,.64.88.88,0,0,0-.35.22A1.57,1.57,0,0,0,7,17.26a1.43,1.43,0,0,0,.15.68,2.17,2.17,0,0,0,.56.87.92.92,0,0,0,1,.25l.12,0,.06.1h0a.28.28,0,0,0-.07.06,1.16,1.16,0,0,0-.24.71A3.2,3.2,0,0,0,8.72,21a.21.21,0,0,1,0,.25c-.15.15-.32.27-.49.4,0,0,0,0-.07,0a2.22,2.22,0,0,0-.36.24c-.06,0-.11,0-.16,0l-.33.18q-.85.46-1.72.87c-.45.21-.91.41-1.37.6S3.37,23.9,3,24a4.73,4.73,0,0,0-.66.23h0c-.18-.32-.36-.63-.53-1A12.65,12.65,0,0,1,1,21.71C.92,21.35.78,21,.68,20.63s-.2-.71-.28-1.07-.16-.73-.21-1.1-.1-.74-.13-1.11a15.85,15.85,0,0,1,0-2.07c0-.49.07-1,.14-1.46,0-.28.08-.55.14-.82l0-.1,0-.18h0l.07-.36a6.75,6.75,0,0,1,.18-.69c.11-.39.23-.77.37-1.15L1,10.32l.07-.18q.11-.28.23-.56a15.66,15.66,0,0,1,1-2l.26-.41.11-.16.33-.47.11-.15.12-.15.12-.15c.17-.22.35-.44.54-.65l.17-.19.36-.39.15-.15L5,4.42l.14-.13.09-.09.33-.3.08-.07.16-.13c.31-.26.63-.51,1-.74l.16-.11L7,2.73l.18-.12.14-.09q.57-.36,1.16-.68l.1-.06c.28-.15.57-.28.86-.41L10.31,1l.28-.1c.38-.14.76-.25,1.15-.36l.83-.21c.37-.08.75-.14,1.12-.2s1-.11,1.44-.14h0l.66,0h.51a14.27,14.27,0,0,1,1.79.14q.74.12,1.46.27h0l.09,0h.05l.55.16c.36.1.72.22,1.07.35s.85.33,1.26.52.56.27.83.41l.2.11.33.2a17.7,17.7,0,0,1,2,1.37,16.54,16.54,0,0,1,1.24,1.12c.36.37.72.76,1,1.16A16.28,16.28,0,0,1,29.7,7.92a15.47,15.47,0,0,1,1.54,3.55c.11.38.22.77.3,1.16l0,.2,0,.2c.1.52.16,1.06.21,1.59S31.87,15.93,31.87,16.59Z"/><path class="cls-3" d="M9.17,24.34a25.71,25.71,0,0,1-3,2L5.11,27c-.16.09-.33.16-.5.24h0c-.14-.06-.2-.2-.3-.3a14.21,14.21,0,0,1-1.09-1.29,15.61,15.61,0,0,1-.92-1.36h0A4.73,4.73,0,0,1,3,24c.41-.14.81-.29,1.22-.45s.92-.39,1.37-.6,1.16-.56,1.72-.87l.33-.18s.1-.07.16,0l0,.06c.27.39.56.78.82,1.18s.42.6.65.9S9.33,24.22,9.17,24.34Z"/><path class="cls-1" d="M10.77,14.62a.74.74,0,0,0,.35-.09,6.54,6.54,0,0,0,2.33-1.45,9.59,9.59,0,0,0,1.76-2.28,3.76,3.76,0,0,0,.34-.69c0,.19,0,1.18,0,1.19s0,.25,0,.38c.07.46.13.92.22,1.37a20.85,20.85,0,0,0,.53,2.08,11.26,11.26,0,0,0,.62,1.56,9.48,9.48,0,0,0,1,1.66,5.37,5.37,0,0,0,1.38,1.33s0,0,0,.06c-.22-.07-.42-.2-.63-.29-.42-.17-.85-.32-1.28-.46s-.73-.22-1.1-.29A10.2,10.2,0,0,0,15,18.48c-.51,0-1-.1-1.54-.12a9.3,9.3,0,0,0-1.07.05,3.44,3.44,0,0,1-.57,0h-.12s0,0-.06,0a1.27,1.27,0,0,1-.58-.4,3.2,3.2,0,0,1-.89-2.44,1.09,1.09,0,0,1,.3-.7C10.58,14.76,10.7,14.72,10.77,14.62Z"/><path class="cls-4" d="M19.34,19.73s0,0,0-.06a5.37,5.37,0,0,1-1.38-1.33,9.48,9.48,0,0,1-1-1.66,11.26,11.26,0,0,1-.62-1.56A20.85,20.85,0,0,1,15.77,13c-.09-.45-.15-.91-.22-1.37,0-.12,0-.25,0-.38s0-1.11,0-1.24a2.3,2.3,0,0,1,.09-.69,2.65,2.65,0,0,1,.53-1.08,1.66,1.66,0,0,1,.63-.46,2.3,2.3,0,0,1,1.78,0A4.93,4.93,0,0,1,20,8.78a3.65,3.65,0,0,1-.29.32.11.11,0,0,1-.07,0,4,4,0,0,0-1-.67,2.08,2.08,0,0,0-1.61-.2,1.38,1.38,0,0,0-.79.7,3,3,0,0,0-.29,1A7.81,7.81,0,0,0,16.05,12c0,.29.09.58.13.87,0,0,0,.09,0,.12v0s0,.09,0,.11v.05c.09.37.17.74.27,1.11a11.53,11.53,0,0,0,.38,1.19,4.44,4.44,0,0,0,.29.68,6,6,0,0,0,.34.7,7.4,7.4,0,0,0,1.22,1.73,3.28,3.28,0,0,0,1.49,1,1.45,1.45,0,0,0,.87,0,1.67,1.67,0,0,0,1-1,4.36,4.36,0,0,0,.33-1.33l.45.17a2.58,2.58,0,0,0-.09.46A3.28,3.28,0,0,1,22,19.61a1.78,1.78,0,0,1-.8.46,1.84,1.84,0,0,1-.9,0,2.35,2.35,0,0,1-.83-.33S19.38,19.72,19.34,19.73Z"/><path class="cls-4" d="M10.77,14.62c-.07.1-.19.14-.28.23a1.09,1.09,0,0,0-.3.7A3.2,3.2,0,0,0,11.1,18a1.27,1.27,0,0,0,.58.4s.05,0,.06,0l-.12,0a4.16,4.16,0,0,0-.91-.14H10.2a1.48,1.48,0,0,0-.1-.28A.07.07,0,0,0,10,18a.38.38,0,0,0-.13.1,4.37,4.37,0,0,1-.36.38l0,0h0a2.38,2.38,0,0,0-.53.21c-.25.13-.25.12-.19.37l-.12,0a.65.65,0,0,1-.46-.28,3.15,3.15,0,0,1-.59-1.48A2.2,2.2,0,0,1,7.72,16a2.45,2.45,0,0,1,1-.64,8.54,8.54,0,0,1,1-.46A4.29,4.29,0,0,1,10.77,14.62Z"/><path class="cls-5" d="M10.2,18.28h.51a4.16,4.16,0,0,1,.91.14l.12,0h.12c0,.09-.06.13-.08.2a1.38,1.38,0,0,1-.08.16,7.28,7.28,0,0,0-.84.44,2.13,2.13,0,0,0-.58.44h0l0,0h0s0,0,0,0v0a.22.22,0,0,0-.06.28.22.22,0,0,0,.22.14c.06,0,.14-.05.17.05l0,0c-.09.07-.05.16,0,.25a.22.22,0,0,0,.23.22c.06,0,.13,0,.17.05s-.12.23,0,.35.06.06.09.09.26,0,.39,0v0a.16.16,0,0,0,0,.26s0,.08.06.07h0l0,0h0s0,0,0,0h0a.3.3,0,0,0,.33,0l.81-.31a2.58,2.58,0,0,0,.51.19c.31.15.37.22.23.53a1.33,1.33,0,0,1-2,.57l-.14-.09-.74-.82a7.57,7.57,0,0,1-1-1.42c-.06-.11-.14-.21-.08-.36a3.31,3.31,0,0,1,.44-.75A1.25,1.25,0,0,0,10.2,18.28Z"/><path class="cls-1" d="M22.33,12.67l.72-.36,1.48-.77.88-.45.17-.07c.17.57.29,1.14.44,1.72l-3.51.67a4.08,4.08,0,0,1-.42.08,2.24,2.24,0,0,1-.55.1,1.21,1.21,0,0,1-.08-.13c-.11-.23-.08-.28.15-.39l.33-.18A2,2,0,0,0,22.33,12.67Z"/><path class="cls-6" d="M11.1,22.88a.68.68,0,0,1-.34.22,1.22,1.22,0,0,1-1,0l-.14-.08c-.13.11-.2.28-.34.37L8.19,21.68c.16-.13.34-.25.49-.4a.21.21,0,0,0,0-.25,3.2,3.2,0,0,1-.22-1.12,1.15,1.15,0,0,1,.24-.71.26.26,0,0,1,.07-.06c.2-.14.35-.32.54-.47a.55.55,0,0,0,.2.19c.13.08.15.07.25-.05s.05-.18.14-.22a.24.24,0,0,1,0,.17,6.15,6.15,0,0,1-.65,1c0,.06-.12.11-.12.2a1.66,1.66,0,0,0,.12.7,4.47,4.47,0,0,0,.35.75,4.08,4.08,0,0,0,.64.82A4.5,4.5,0,0,0,11.1,22.88Z"/><path class="cls-1" d="M19.74,9.1A3.65,3.65,0,0,0,20,8.78l.6-.6c.53-.53,1.06-1.06,1.57-1.61a.42.42,0,0,1,.57-.15c.27.12.56.21.86.33L23,7.28,21.17,8.81l-.57.47s0,0,0,0-.23.18-.35.26l-.86.73-.25-.44a.12.12,0,0,1,0-.15l.22-.25Z"/><path class="cls-1" d="M22.87,17.48l-.45-.17-.6-.2a3.42,3.42,0,0,0-.38-.14.28.28,0,0,1-.16-.38.06.06,0,0,1,.06,0,3.85,3.85,0,0,1,.44,0,2.73,2.73,0,0,0,.69.07,1.4,1.4,0,0,0,.45,0l1,.12,1.3.12.39,0L26,18.54a3.5,3.5,0,0,1-.65-.2l-1.5-.52C23.54,17.7,23.22,17.56,22.87,17.48Z"/><path class="cls-7" d="M11.1,22.88a4.5,4.5,0,0,1-.85-.62,4.08,4.08,0,0,1-.64-.82,4.47,4.47,0,0,1-.35-.75,1.66,1.66,0,0,1-.12-.7c0-.09.08-.14.12-.2a6.15,6.15,0,0,0,.65-1,.24.24,0,0,0,0-.17.51.51,0,0,1,0-.13.74.74,0,0,0,0-.5.07.07,0,0,1,.11,0,1.48,1.48,0,0,1,.1.28,1.25,1.25,0,0,1-.35,1.06,3.31,3.31,0,0,0-.44.75c-.06.15,0,.25.08.36a7.57,7.57,0,0,0,1,1.42l.74.82A.63.63,0,0,1,11.1,22.88Z"/><path class="cls-4" d="M20.22,9.59c.12-.08.21-.21.35-.26a4.94,4.94,0,0,0,.39.52,9.32,9.32,0,0,1,.85,1.45,8.32,8.32,0,0,1,.51,1.36,2,2,0,0,1-.4.22,2.26,2.26,0,0,1-.08-.23A7.59,7.59,0,0,0,21.15,11a7.38,7.38,0,0,0-.9-1.33A.11.11,0,0,1,20.22,9.59Z"/><path class="cls-8" d="M7.72,16a2.2,2.2,0,0,0-.14,1.3,3.15,3.15,0,0,0,.59,1.48.65.65,0,0,0,.46.28.92.92,0,0,1-1-.25,2.17,2.17,0,0,1-.56-.87A1.44,1.44,0,0,1,7,17.26a1.57,1.57,0,0,1,.41-1.05A.88.88,0,0,1,7.72,16Z"/><path class="cls-4" d="M22.92,16.69a1.4,1.4,0,0,1-.45,0c0-.38,0-.76-.05-1.14A13.28,13.28,0,0,0,22.19,14a2.37,2.37,0,0,1-.1-.5,4.08,4.08,0,0,0,.42-.08,6.55,6.55,0,0,1,.22,1c0,.23.08.46.1.69s.06.39.06.59S22.93,16.35,22.92,16.69Z"/><path class="cls-1" d="M8.19,21.68l1.12,1.75.2.33c-.06.12-.21.16-.26.29-.22-.29-.45-.59-.65-.9s-.55-.79-.82-1.18l0-.06a2.18,2.18,0,0,1,.36-.24S8.17,21.66,8.19,21.68Z"/><path class="cls-6" d="M10.28,19.68a2.13,2.13,0,0,1,.58-.44,7.28,7.28,0,0,1,.84-.44c.09,0,.18,0,.27,0a.46.46,0,0,1,.45.27,1.59,1.59,0,0,1-.33.27c-.34.17-.66.37-1,.51-.08,0-.14.11-.23.09l-.15-.23c-.08-.13-.12-.14-.24-.05A.28.28,0,0,1,10.28,19.68Z"/><path class="cls-6" d="M12.78,19.84a.79.79,0,0,1,.26.54,2.08,2.08,0,0,0-.54.13,2.4,2.4,0,0,0-.24.07,5.61,5.61,0,0,1-.79.32.6.6,0,0,1-.13-.2c-.05-.09-.09-.08-.17,0s-.14.12-.23.12,0-.08,0-.12a.32.32,0,0,1,.16-.1l0,0h0a.27.27,0,0,0,.15,0l.54-.27A9.63,9.63,0,0,1,12.78,19.84Z"/><path class="cls-6" d="M12.36,19.4c.23,0,.32,0,.39.25a.59.59,0,0,0-.33.1c-.38.18-.76.37-1.13.58-.06,0-.17,0-.17.14l0,0c-.14-.34-.15-.34-.47-.22l.05-.12s0,0,.07,0h.07a4.46,4.46,0,0,1,.54-.28A3.55,3.55,0,0,1,12,19.5C12.15,19.47,12.24,19.38,12.36,19.4Z"/><path class="cls-6" d="M11.33,21.35v0c.07,0,.09-.11.15-.15a3.29,3.29,0,0,1,.64-.34,2.26,2.26,0,0,1,.81-.19l.1.12a.23.23,0,0,1,0,.34.58.58,0,0,0-.16,0,5.33,5.33,0,0,0-.94.4l-.23-.33c-.14,0-.24.14-.37.2Z"/><path class="cls-7" d="M12.94,20.65a2.26,2.26,0,0,0-.81.19,3.29,3.29,0,0,0-.64.34c-.06,0-.08.12-.15.15s-.27,0-.39,0-.08,0-.09-.09a.06.06,0,0,0,.06,0c.14.16.29.09.45,0s.18-.14.12-.27a5.61,5.61,0,0,0,.79-.32,2.4,2.4,0,0,1,.24-.07,2.08,2.08,0,0,1,.54-.13A.3.3,0,0,1,12.94,20.65Z"/><path class="cls-7" d="M11.13,20.47c0-.12.11-.11.17-.14.37-.2.74-.4,1.13-.58a.59.59,0,0,1,.33-.1c.05.06,0,.12,0,.19a9.63,9.63,0,0,0-1,.42l-.54.27a.27.27,0,0,1-.15,0Z"/><path class="cls-7" d="M11.94,21.52a5.33,5.33,0,0,1,.94-.4.58.58,0,0,1,.16,0,.71.71,0,0,1-.32.31.31.31,0,0,0-.09.06l-.81.31a.3.3,0,0,1-.33,0h.11A.45.45,0,0,0,11.94,21.52Z"/><path class="cls-7" d="M12.36,19.4c-.12,0-.21.06-.31.09a3.55,3.55,0,0,0-.69.27,4.46,4.46,0,0,0-.54.28h-.07c0-.05.1-.08.09-.16s.16-.06.23-.09c.35-.14.68-.34,1-.51a1.59,1.59,0,0,0,.33-.27.22.22,0,0,1,0,.28A.33.33,0,0,0,12.36,19.4Z"/><path class="cls-5" d="M9.35,18.67c-.18.15-.34.34-.54.47L8.75,19c-.06-.25-.06-.25.19-.37a2.38,2.38,0,0,1,.53-.21C9.47,18.56,9.37,18.58,9.35,18.67Z"/><path class="cls-8" d="M22.09,13.48a2.37,2.37,0,0,0,.1.5,13.28,13.28,0,0,1,.23,1.52c0,.38.06.76.05,1.14a2.73,2.73,0,0,1-.69-.07,3.85,3.85,0,0,0-.44,0,.06.06,0,0,0-.06,0,.28.28,0,0,0,.16.38,3.42,3.42,0,0,1,.38.14l.6.2a4.36,4.36,0,0,1-.33,1.33,1.67,1.67,0,0,1-1,1,1.45,1.45,0,0,1-.87,0,3.28,3.28,0,0,1-1.49-1,7.4,7.4,0,0,1-1.22-1.73,6,6,0,0,1-.34-.7c.27-.07.5-.25.76-.34s.43-.21.66-.31.46-.24.71-.34a.62.62,0,0,0,.3-.25s.08-.08,0-.12a2,2,0,0,0-.71-2c0-.07-.05-.06-.1,0a.85.85,0,0,0-.29,0,.15.15,0,0,0-.14,0,3.19,3.19,0,0,1-.37.09c-.2.06-.4.08-.59.13s-.44.11-.67.15a2.61,2.61,0,0,1-.5.1v-.05s0-.08,0-.11v0s0-.09,0-.12c0-.29-.1-.58-.13-.87A7.81,7.81,0,0,1,16,9.91a3,3,0,0,1,.29-1,1.38,1.38,0,0,1,.79-.7,2.08,2.08,0,0,1,1.61.2,4,4,0,0,1,1,.67.11.11,0,0,0,.07,0l-.39.38-.22.25a.12.12,0,0,0,0,.15l.25.44.86-.73a.11.11,0,0,0,0,.1,7.38,7.38,0,0,1,.9,1.33,7.59,7.59,0,0,1,.69,1.65,2.26,2.26,0,0,0,.08.23l-.33.18c-.23.11-.25.16-.15.39a1.21,1.21,0,0,0,.08.13A2.24,2.24,0,0,0,22.09,13.48Z"/><path class="cls-9" d="M19.64,14.86c.07,0,0,.08,0,.12a.62.62,0,0,1-.3.25c-.24.1-.47.23-.71.34s-.43.23-.66.31-.49.27-.76.34a4.44,4.44,0,0,1-.29-.68,11.53,11.53,0,0,1-.38-1.19c-.1-.37-.18-.74-.27-1.11a2.61,2.61,0,0,0,.5-.1c.22,0,.45-.09.67-.15s.4-.08.59-.13a3.19,3.19,0,0,0,.37-.09.15.15,0,0,1,.14,0c0,.05-.08.05-.12.08a.62.62,0,0,0-.16.53,2.16,2.16,0,0,0,.28.93,1.66,1.66,0,0,0,.52.64.35.35,0,0,0,.53-.09Z"/><path class="cls-10" d="M16.19,12.91c.06,0,0,.07,0,.12S16.18,13,16.19,12.91Z"/><path class="cls-10" d="M16.23,13.08s0,.07,0,.11S16.2,13.12,16.23,13.08Z"/><path class="cls-11" d="M9.35,18.67c0-.09.12-.12.12-.21h0s0,0,0,0a4.37,4.37,0,0,0,.36-.38A.38.38,0,0,1,10,18a.74.74,0,0,1,0,.5.51.51,0,0,0,0,.13c-.09,0-.09.15-.14.22s-.12.13-.25.05A.55.55,0,0,1,9.35,18.67Z"/><path class="cls-12" d="M9.5,18.45s0,0,0,0Z"/><path class="cls-11" d="M10.84,19.89c0,.08-.06.11-.09.16s-.07,0-.07,0l-.14,0c-.18.05-.23,0-.33-.13s0-.13,0-.2v0l0,0h0a0,0,0,0,0,0,0h0a.28.28,0,0,0,.17-.07c.12-.09.16-.07.24.05Z"/><path class="cls-11" d="M11.13,20.47v.07h0l0,0a.31.31,0,0,0-.16.1c-.2.08-.27.06-.4-.1l0-.25,0,0,.1-.06c.32-.12.32-.12.47.22Z"/><path class="cls-11" d="M11.94,21.52a.45.45,0,0,1-.34.24h-.15l0,0h0a0,0,0,0,0,0,0h0a1,1,0,0,1,0-.27v0c.13-.05.23-.15.37-.2Z"/><path class="cls-7" d="M10.63,20.22l-.1.06c0-.1-.11-.05-.17-.05a.22.22,0,0,1-.22-.14.22.22,0,0,1,.06-.28c0,.06,0,.13,0,.2s.15.19.33.13l.14,0Z"/><path class="cls-7" d="M10.51,20.57c.13.16.2.18.4.1,0,0,0,.08,0,.12a.06.06,0,0,1,0,0h-.05c0-.05-.11,0-.17-.05a.22.22,0,0,1-.23-.22Z"/><path class="cls-6" d="M10.84,20.84h.05a.44.44,0,0,0,0,.31.06.06,0,0,1-.06,0C10.72,21.08,10.77,21,10.84,20.84Z"/><path class="cls-6" d="M10.51,20.57h-.07c0-.09,0-.18,0-.25Z"/><path class="cls-7" d="M11.33,21.39v0c-.06.06,0,.13,0,.2a.16.16,0,0,1,0-.26Z"/><path class="cls-6" d="M11.29,21.61c0-.06,0-.14,0-.2a1,1,0,0,0,0,.27C11.3,21.69,11.3,21.65,11.29,21.61Z"/><path class="cls-6" d="M10.27,19.69a0,0,0,0,1,0,0Z"/><path class="cls-6" d="M10.23,19.74l0,0S10.21,19.74,10.23,19.74Z"/><path class="cls-6" d="M11.37,21.69a0,0,0,0,1,0,0Z"/><path class="cls-6" d="M11.41,21.73l0,0S11.41,21.75,11.41,21.73Z"/><path class="cls-11" d="M10.9,21.15a.44.44,0,0,1,0-.31.06.06,0,0,0,0,0c.1,0,.16-.08.23-.12s.12-.05.17,0a.6.6,0,0,0,.13.2c.07.14,0,.21-.12.27S11,21.31,10.9,21.15Z"/><path class="cls-7" d="M11.08,20.57l0,0Z"/><path class="cls-3" d="M19.64,14.86l0,0a.35.35,0,0,1-.53.09,1.66,1.66,0,0,1-.52-.64,2.16,2.16,0,0,1-.28-.93.62.62,0,0,1,.16-.53s.1,0,.12-.08a.85.85,0,0,1,.29,0s.06,0,.1,0A2,2,0,0,1,19.64,14.86Z"/><path class="cls-9" d="M18.93,12.83s-.08,0-.1,0S18.92,12.77,18.93,12.83Z"/></svg>