<svg id="Layer_1" data-name="Layer 1" xmlns="http://www.w3.org/2000/svg" viewBox="0 0 639.38 588.24"><defs><style>.cls-1{fill:#fff;}</style></defs><title>comment</title><path class="cls-1" d="M572.45,46H108.88A88,88,0,0,0,21,133.86v283.7a88,88,0,0,0,87.59,87.9V634.19l185-128.74H572.45a88,88,0,0,0,87.9-87.9V133.86A88,88,0,0,0,572.45,46Zm50.44,371.6A50.5,50.5,0,0,1,572.45,468H281.83L146,562.49V468H108.88a50.5,50.5,0,0,1-50.44-50.44V133.86a50.49,50.49,0,0,1,50.44-50.44H572.45a50.49,50.49,0,0,1,50.44,50.44Z" transform="translate(-20.98 -45.96)"/><path class="cls-1" d="M192.11,178.33H489.23v37.46H192.11Z" transform="translate(-20.98 -45.96)"/><path class="cls-1" d="M192.11,258.25H489.23v37.46H192.11Z" transform="translate(-20.98 -45.96)"/><path class="cls-1" d="M192.11,338.17H489.23v37.46H192.11Z" transform="translate(-20.98 -45.96)"/></svg>