<svg id="Layer_1" data-name="Layer 1" xmlns="http://www.w3.org/2000/svg" viewBox="0 0 512 512"><title>designer</title><path d="M465,32H47A47.07,47.07,0,0,0,0,79V321.53a47.07,47.07,0,0,0,47,47h155.7l-4.7,80.8H162.48a15.67,15.67,0,0,0,0,31.35h187a15.67,15.67,0,0,0,0-31.35H314l-4.7-80.8H465a47.07,47.07,0,0,0,47-47V79A47.07,47.07,0,0,0,465,32ZM229.43,449.36l4.7-80.8h43.75l4.7,80.8ZM480.65,321.53A15.69,15.69,0,0,1,465,337.2H47a15.69,15.69,0,0,1-15.67-15.67V79A15.69,15.69,0,0,1,47,63.35H465A15.69,15.69,0,0,1,480.65,79Z"/><path d="M323.12,338.33V131.67h56.36v18.79h-9.39a9.39,9.39,0,1,0,0,18.79h9.39v28.18h-9.39a9.39,9.39,0,0,0,0,18.79h9.39v28.18h-9.39a9.39,9.39,0,0,0,0,18.79h9.39v37.58h-9.39a9.39,9.39,0,1,0,0,18.79h9.39v18.79Z"/><path d="M255.83,243.74A47,47,0,0,0,266,242.62c1.74,11.17,4.3,30.94,5.82,58.14h-35c1.59-27.18,4.27-47.26,6.12-58.81A47,47,0,0,0,255.83,243.74Z"/><path d="M255.83,225c-21.47,0-35.32-23.37-24.44-42.24l24.44-42.3,24.42,42.3C291.09,201.51,277.44,225,255.83,225Z"/><path d="M240.14,322.08H269.9c.16,5,.27,10.11.32,15.25H239.79C239.85,332.22,240,327.12,240.14,322.08Z"/><rect x="175.26" y="206.82" width="18.79" height="131.52"/><rect x="137.68" y="206.82" width="18.79" height="131.52"/><polygon points="143.49 188.03 165.87 143.28 188.24 188.03 143.49 188.03"/></svg>