<svg height="512pt" viewBox="0 -32 512 512" width="512pt" xmlns="http://www.w3.org/2000/svg"><path d="m464.980469 0h-417.960938c-25.925781 0-47.019531 21.09375-47.019531 47.019531v242.511719c0 25.925781 21.09375 47.019531 47.019531 47.019531h155.703125l-4.695312 80.804688h-35.546875c-8.65625 0-15.671875 7.019531-15.671875 15.675781s7.015625 15.671875 15.671875 15.671875h187.039062c8.65625 0 15.671875-7.015625 15.671875-15.671875s-7.015625-15.675781-15.671875-15.675781h-35.546875l-4.695312-80.804688h155.703125c25.925781 0 47.019531-21.09375 47.019531-47.019531v-242.511719c0-25.925781-21.09375-47.019531-47.019531-47.019531zm-235.554688 417.355469 4.699219-80.800781h43.75l4.699219 80.800781zm251.226563-127.824219c0 8.640625-7.03125 15.671875-15.671875 15.671875h-417.960938c-8.640625 0-15.671875-7.03125-15.671875-15.671875v-242.511719c0-8.640625 7.03125-15.671875 15.671875-15.671875h417.960938c8.644531 0 15.671875 7.03125 15.671875 15.671875zm0 0"/><path d="m188.597656 87.703125c-6.628906-5.566406-16.515625-4.699219-22.082031 1.929687l-57.554687 68.566407c-4.890626 5.828125-4.890626 14.328125 0 20.152343l57.554687 68.570313c5.570313 6.632813 15.457031 7.492187 22.082031 1.925781 6.632813-5.5625 7.496094-15.449218 1.929688-22.078125l-49.097656-58.492187 49.097656-58.492188c5.5625-6.628906 4.699218-16.515625-1.929688-22.082031zm0 0"/><path d="m345.484375 89.632812c-5.566406-6.632812-15.453125-7.496093-22.082031-1.929687s-7.492188 15.453125-1.925782 22.082031l49.09375 58.492188-49.09375 58.492187c-5.566406 6.628907-4.703124 16.515625 1.925782 22.078125 6.632812 5.570313 16.519531 4.699219 22.082031-1.925781l57.554687-68.570313c4.890626-5.824218 4.890626-14.324218 0-20.152343zm0 0"/><path d="m288.941406 85.136719c-8.046875-3.191407-17.15625.75-20.34375 8.800781l-54.335937 137.132812c-3.1875 8.046876.75 17.15625 8.796875 20.347657 8.046875 3.1875 17.15625-.75 20.347656-8.800781l54.332031-137.136719c3.1875-8.046875-.75-17.15625-8.796875-20.34375zm0 0"/></svg>