<svg id="Layer_1" data-name="Layer 1" xmlns="http://www.w3.org/2000/svg" viewBox="0 0 31.89 32"><defs><style>.cls-1{fill:#def2f1;}.cls-2{fill:#e8e8e8;}.cls-3,.cls-7{fill:#007878;}.cls-4{fill:#fefefe;}.cls-5{fill:#fbfbfb;}.cls-6{fill:#f6f6f6;}.cls-7{opacity:0.3;}.cls-8{fill:#fe9d82;}</style></defs><title>empty</title><path class="cls-1" d="M3.44,5.49A24.43,24.43,0,0,1,6.68,4.07c1.08-.39,1-.47,2.23-1a19.22,19.22,0,0,1,4.32-1.33,9.78,9.78,0,0,1,6,.56A20.91,20.91,0,0,1,21.84,4c.27.19,1,.75,2.15,1.64.95.76,2.11,1.7,3.19,2.74,1.81,1.76,3,2.92,3.84,4.89a10.19,10.19,0,0,1,.78,5.29c0,.15-.3,1.09-.85,3A40,40,0,0,1,29.48,26a10.89,10.89,0,0,1-.81,1.68,6,6,0,0,1-2,2.19,5.76,5.76,0,0,1-2.52.75,7.16,7.16,0,0,1-1.16,0l-4.57-.15c-2-.06-3.65,0-4.09,0l-1.62,0a29.8,29.8,0,0,1-3.89-.15,11.14,11.14,0,0,1-5.12-2.16A9.18,9.18,0,0,1,.9,24.72,13.34,13.34,0,0,1,0,19.54c0-.38,0-.78,0-.78C0,18,.1,17.58.16,17c.09-.94,0-.83.13-1.81C.34,14.49.41,14,.53,13s.2-1.67.27-2.11a13.77,13.77,0,0,1,.51-2.2A8.07,8.07,0,0,1,2.2,6.72,3.83,3.83,0,0,1,3.26,5.6Z"/><path class="cls-2" d="M17.62,20.63a.14.14,0,0,0-.13-.13c-.07,0-.1.05-.13.1s-.12,0-.16,0a5.29,5.29,0,0,1-.9.48,6,6,0,0,1-1.07.35,7.75,7.75,0,0,1-1.31.17,7.33,7.33,0,0,1-1.63-.1A6.94,6.94,0,0,1,11,21.16a7.22,7.22,0,0,1-1.43-.73A7.37,7.37,0,0,1,8,19a7.69,7.69,0,0,1-1.55-3.08,7.26,7.26,0,0,1-.19-1.57,6.13,6.13,0,0,1,.27-1.94c0-.08.06-.16.09-.24a2,2,0,0,1,0,.42,7.4,7.4,0,0,0,0,2A7.18,7.18,0,0,0,7,16.39,7.07,7.07,0,0,0,7.88,18a7.52,7.52,0,0,0,1.81,1.8,7.17,7.17,0,0,0,1.2.68A6.75,6.75,0,0,0,12.4,21a6.44,6.44,0,0,0,1.08.14A8.72,8.72,0,0,0,15,21.08a7.78,7.78,0,0,0,1.36-.34,5.68,5.68,0,0,0,1.37-.67c.07-.05.13-.06.19,0a3.38,3.38,0,0,0,.23.28c.58.7,1.16,1.4,1.73,2.1s1.33,1.61,2,2.42l1.46,1.79a.85.85,0,0,0,1,.27.35.35,0,0,0,0,.14.15.15,0,0,0-.12.08.6.6,0,0,1-1,.09c-.17-.17-.31-.36-.46-.54l-1.31-1.59-.82-1L19,22.22l-1.25-1.53C17.73,20.63,17.69,20.6,17.62,20.63Z"/><path class="cls-3" d="M24.36,27a.85.85,0,0,1-1-.27L21.9,24.9c-.66-.81-1.34-1.61-2-2.42s-1.15-1.4-1.73-2.1a3.38,3.38,0,0,1-.23-.28c-.06-.09-.11-.08-.19,0a5.68,5.68,0,0,1-1.37.67,7.78,7.78,0,0,1-1.36.34,8.72,8.72,0,0,1-1.54.07A6.44,6.44,0,0,1,12.4,21a6.75,6.75,0,0,1-1.51-.49,7.17,7.17,0,0,1-1.2-.68A7.52,7.52,0,0,1,7.88,18,7.07,7.07,0,0,1,7,16.39a7.18,7.18,0,0,1-.44-1.8,7.4,7.4,0,0,1,0-2,2,2,0,0,0,0-.42c0,.08-.06.16-.09.24a6.13,6.13,0,0,0-.27,1.94,7.26,7.26,0,0,0,.19,1.57A7.69,7.69,0,0,0,8,19a7.37,7.37,0,0,0,1.58,1.42,7.22,7.22,0,0,0,1.43.73,6.94,6.94,0,0,0,1.27.36,7.33,7.33,0,0,0,1.63.1,7.75,7.75,0,0,0,1.31-.17,6,6,0,0,0,1.07-.35,5.29,5.29,0,0,0,.9-.48s.1-.07.16,0a6.07,6.07,0,0,1-1.22.63,7.11,7.11,0,0,1-.86.27,7.45,7.45,0,0,1-1.94.2A7.76,7.76,0,0,1,12,21.54a7.12,7.12,0,0,1-2.38-1A7.33,7.33,0,0,1,7.23,18.2a6.77,6.77,0,0,1-.8-1.8,7.28,7.28,0,0,1-.28-1.31,8.35,8.35,0,0,1,0-1.16,6.06,6.06,0,0,1,.17-1.17c.07-.28.16-.55.25-.82A7.74,7.74,0,0,1,7,10.89c.13-.25.27-.49.4-.73A7.49,7.49,0,0,1,10.68,7,7.54,7.54,0,0,1,12,6.46a7.22,7.22,0,0,1,2.46-.23,7.44,7.44,0,0,1,1.77.36A7.3,7.3,0,0,1,18.87,8.1a7.45,7.45,0,0,1,1.71,2.26,7.15,7.15,0,0,1,.6,1.72,7.66,7.66,0,0,1-.12,3.7,7.27,7.27,0,0,1-.55,1.37,8,8,0,0,1-1.29,1.79s-.06.06,0,.13c.22.33.51.6.76.91.51.64,1,1.27,1.56,1.91l1.25,1.52,1.88,2.29A.8.8,0,0,1,24.36,27ZM21.19,13.77a8.59,8.59,0,0,0,0-.9,7,7,0,0,0-.26-1.29,7.74,7.74,0,0,0-.35-.93,7.21,7.21,0,0,0-.73-1.28,7.45,7.45,0,0,0-1.42-1.48,7.17,7.17,0,0,0-1.8-1,7.25,7.25,0,0,0-2-.49,7.33,7.33,0,0,0-2.14.1,6.25,6.25,0,0,0-1.27.39,7.52,7.52,0,0,0-2,1.29A7.41,7.41,0,0,0,7.61,10a7.5,7.5,0,0,0-.93,3,7.48,7.48,0,0,0,.25,2.57,8,8,0,0,0,.57,1.46,7.57,7.57,0,0,0,1.14,1.64A7,7,0,0,0,10.14,20a7.06,7.06,0,0,0,1.14.57,7.81,7.81,0,0,0,1.08.33,5.79,5.79,0,0,0,.9.15,7.68,7.68,0,0,0,2-.1,7.19,7.19,0,0,0,1.63-.51,5.76,5.76,0,0,0,.89-.5c.09-.06.16-.06.22,0a3.28,3.28,0,0,0,.21.25l2.6,3.16c.34.41.67.82,1,1.23S22.6,25.51,23,26a9.54,9.54,0,0,0,.63.75.63.63,0,0,0,.87,0,.73.73,0,0,0,.06-.95L23.05,24l-.89-1.08L20.76,21.2l-1.71-2.08C19,19,19,19,19.06,18.9a6.76,6.76,0,0,0,1.16-1.51A7.38,7.38,0,0,0,21.08,15,9.56,9.56,0,0,0,21.19,13.77Z"/><path class="cls-3" d="M17.62,20.63c.07,0,.11,0,.16.06L19,22.22l1.58,1.92.82,1,1.31,1.59c.15.18.29.37.46.54a.6.6,0,0,0,1-.09.15.15,0,0,1,.12-.08c.08,0,0,.07,0,.1a.89.89,0,0,1-1,.32,1,1,0,0,1-.44-.34l-1.62-2L19.48,23l-1.84-2.24S17.57,20.68,17.62,20.63Z"/><path class="cls-4" d="M21.19,13.77A9.56,9.56,0,0,1,21.08,15a7.38,7.38,0,0,1-.86,2.41,6.76,6.76,0,0,1-1.16,1.51c-.09.08-.08.14,0,.22l1.71,2.08,1.41,1.71L23.05,24l1.49,1.82a.73.73,0,0,1-.06.95.63.63,0,0,1-.87,0A9.54,9.54,0,0,1,23,26c-.38-.46-.78-.91-1.15-1.38s-.67-.82-1-1.23l-2.6-3.16a3.28,3.28,0,0,1-.21-.25c-.07-.1-.14-.1-.22,0a5.76,5.76,0,0,1-.89.5,7.19,7.19,0,0,1-1.63.51,7.68,7.68,0,0,1-2,.1,5.79,5.79,0,0,1-.9-.15,7.81,7.81,0,0,1-1.08-.33A7.06,7.06,0,0,1,10.14,20a7,7,0,0,1-1.49-1.23A7.57,7.57,0,0,1,7.5,17.09a8,8,0,0,1-.57-1.46,7.48,7.48,0,0,1-.25-2.57,7.5,7.5,0,0,1,.93-3,7.41,7.41,0,0,1,1.54-1.9,7.52,7.52,0,0,1,2-1.29,6.25,6.25,0,0,1,1.27-.39,7.33,7.33,0,0,1,2.14-.1,7.25,7.25,0,0,1,2,.49,7.17,7.17,0,0,1,1.8,1A7.45,7.45,0,0,1,19.8,9.37a7.21,7.21,0,0,1,.73,1.28,7.74,7.74,0,0,1,.35.93,7,7,0,0,1,.26,1.29A8.59,8.59,0,0,1,21.19,13.77Zm-1.43-.09a5.83,5.83,0,1,0-5.84,5.88A5.84,5.84,0,0,0,19.76,13.68Z"/><path class="cls-3" d="M19.76,13.68a5.88,5.88,0,0,1-5.84,5.88,5.87,5.87,0,1,1,5.84-5.88ZM19,16.2l0,0a6.12,6.12,0,0,0,.51-1.85,5.56,5.56,0,0,0,0-1.45,5.7,5.7,0,0,0-.41-1.46A5.56,5.56,0,0,0,18.3,10a5.88,5.88,0,0,0-1.19-1.1,5.8,5.8,0,0,0-1.81-.83,5.6,5.6,0,0,0-1.23-.18,5.44,5.44,0,0,0-1,.07,5.53,5.53,0,0,0-1.43.42,5.47,5.47,0,0,0-1.33.83,4,4,0,0,0-.61.61,2.34,2.34,0,0,0-.31.36,5.5,5.5,0,0,0-.95,2,6,6,0,0,0-.17,1.93,5.72,5.72,0,0,0,.34,1.57,5.65,5.65,0,0,0,1,1.7,5.58,5.58,0,0,0,3.11,1.93A5.53,5.53,0,0,0,18,17.66,5.32,5.32,0,0,0,19,16.2Z"/><path class="cls-5" d="M19,16.2a5.32,5.32,0,0,1-1,1.46,5.55,5.55,0,0,1-1.8,1.3,5.59,5.59,0,0,1-3.55.34,5.58,5.58,0,0,1-3.11-1.93,5.65,5.65,0,0,1-1-1.7,5.72,5.72,0,0,1-.34-1.57,6,6,0,0,1,.17-1.93,5.5,5.5,0,0,1,.95-2,2.34,2.34,0,0,1,.31-.36.12.12,0,0,0,.11,0,6.47,6.47,0,0,1,.67-.51.22.22,0,0,0,.13,0L11,9.08a4.84,4.84,0,0,1,.62-.27,5.53,5.53,0,0,1,.63-.19l.56-.1a4.91,4.91,0,0,1,1.76,0,4.82,4.82,0,0,1,1.18.36,6.72,6.72,0,0,1,1,.53,5.77,5.77,0,0,1,1,.89,5.93,5.93,0,0,1,.63.81,5.81,5.81,0,0,1,.49,1,4.92,4.92,0,0,1,.26.83,5.57,5.57,0,0,1,.1.62,4.7,4.7,0,0,1,0,1.13s0,.1,0,.15a.2.2,0,0,1,0,.15c0,.14,0,.29-.07.43A5.11,5.11,0,0,0,19,16.2Zm-1.74-2.11a.39.39,0,0,0-.06-.25.39.39,0,0,0-.31-.27.37.37,0,0,0-.39.22.7.7,0,0,0,0,.56.43.43,0,0,0,.33.33.36.36,0,0,0,.38-.2A.68.68,0,0,0,17.29,14.08Zm-6,.12a.62.62,0,0,0-.21-.5.33.33,0,0,0-.43,0,.67.67,0,0,0-.13.79.36.36,0,0,0,.61.14A.59.59,0,0,0,11.3,14.2Zm4.66,1-.05-.06a2.65,2.65,0,0,0-1.66-.86,2.71,2.71,0,0,0-1.14.1,2.83,2.83,0,0,0-1.16.67s-.09.06-.05.1a.1.1,0,0,0,.15,0,2,2,0,0,1,.21-.2,2.61,2.61,0,0,1,1.42-.55,2.55,2.55,0,0,1,1.49.34,3.21,3.21,0,0,1,.66.51s0,.06.09,0S16,15.27,16,15.23Zm-.09-2.05a.31.31,0,0,0,.29-.3.3.3,0,0,0-.59,0A.3.3,0,0,0,15.87,13.18Zm-3.68-.31c0-.17-.16-.3-.28-.3a.3.3,0,0,0-.29.29.29.29,0,0,0,.28.3A.28.28,0,0,0,12.19,12.87Z"/><path class="cls-6" d="M10.48,9.31a6.47,6.47,0,0,0-.67.51.12.12,0,0,1-.11,0,4,4,0,0,1,.61-.61,5.47,5.47,0,0,1,1.33-.83A5.53,5.53,0,0,1,13.08,8a5.44,5.44,0,0,1,1-.07,5.6,5.6,0,0,1,1.23.18,5.8,5.8,0,0,1,1.81.83A5.88,5.88,0,0,1,18.3,10a5.56,5.56,0,0,1,.84,1.37,5.7,5.7,0,0,1,.41,1.46,5.56,5.56,0,0,1,0,1.45,6.12,6.12,0,0,1-.51,1.85l0,0a5.11,5.11,0,0,1,.16-.81c0-.14,0-.29.07-.43a.2.2,0,0,0,0-.15c.08,0,.12,0,.13-.11a5,5,0,0,0-.07-1.46A5.16,5.16,0,0,0,19,12.11a5.58,5.58,0,0,0-.47-.94,5.94,5.94,0,0,0-1-1.22,5.78,5.78,0,0,0-1.21-.87,6,6,0,0,0-1.22-.49,7.13,7.13,0,0,0-1.17-.21,4.8,4.8,0,0,0-1.33.08,5.67,5.67,0,0,0-1,.29,6.57,6.57,0,0,0-1,.47A.16.16,0,0,0,10.48,9.31Z"/><path class="cls-7" d="M10.48,9.31a.16.16,0,0,1,.07-.08,6.57,6.57,0,0,1,1-.47,5.67,5.67,0,0,1,1-.29,4.8,4.8,0,0,1,1.33-.08,7.13,7.13,0,0,1,1.17.21,6,6,0,0,1,1.22.49,5.78,5.78,0,0,1,1.21.87,5.94,5.94,0,0,1,1,1.22,5.58,5.58,0,0,1,.47.94,5.16,5.16,0,0,1,.31,1.13,5,5,0,0,1,.07,1.46c0,.09-.05.12-.13.11s0-.1,0-.15a4.7,4.7,0,0,0,0-1.13,5.57,5.57,0,0,0-.1-.62,4.92,4.92,0,0,0-.26-.83,5.81,5.81,0,0,0-.49-1,5.93,5.93,0,0,0-.63-.81,5.77,5.77,0,0,0-1-.89,6.72,6.72,0,0,0-1-.53,4.82,4.82,0,0,0-1.18-.36,4.91,4.91,0,0,0-1.76,0l-.56.1a5.53,5.53,0,0,0-.63.19,4.84,4.84,0,0,0-.62.27l-.34.19A.22.22,0,0,1,10.48,9.31Z"/><path class="cls-8" d="M17.29,14.08a.68.68,0,0,1-.09.39.36.36,0,0,1-.38.2.43.43,0,0,1-.33-.33.7.7,0,0,1,0-.56.37.37,0,0,1,.39-.22.39.39,0,0,1,.31.27A.39.39,0,0,1,17.29,14.08Z"/><path class="cls-8" d="M11.3,14.2a.59.59,0,0,1-.16.42.36.36,0,0,1-.61-.14.67.67,0,0,1,.13-.79.33.33,0,0,1,.43,0A.62.62,0,0,1,11.3,14.2Z"/><path class="cls-3" d="M16,15.23s0,0,0,.06-.06,0-.09,0a3.21,3.21,0,0,0-.66-.51,2.55,2.55,0,0,0-1.49-.34,2.61,2.61,0,0,0-1.42.55,2,2,0,0,0-.21.2.1.1,0,0,1-.15,0s0-.07.05-.1a2.83,2.83,0,0,1,1.16-.67,2.71,2.71,0,0,1,1.14-.1,2.65,2.65,0,0,1,1.66.86Z"/><path class="cls-3" d="M15.87,13.18a.3.3,0,0,1-.3-.28.3.3,0,0,1,.59,0A.31.31,0,0,1,15.87,13.18Z"/><path class="cls-3" d="M12.19,12.87a.28.28,0,0,1-.29.29.29.29,0,0,1-.28-.3.3.3,0,0,1,.29-.29C12,12.57,12.21,12.7,12.19,12.87Z"/></svg>