<?xml version="1.0" encoding="utf-8"?>
<!-- Generator: Adobe Illustrator 21.0.0, SVG Export Plug-In . SVG Version: 6.00 Build 0)  -->
<svg version="1.1" baseProfile="tiny" id="Layer_1" xmlns="http://www.w3.org/2000/svg" xmlns:xlink="http://www.w3.org/1999/xlink"
	 x="0px" y="0px" viewBox="0 0 256 256" xml:space="preserve">
<g>
	<g>
		<path d="M84.8,54.6c1.2-0.3,2.3,0.6,2.4,1.8c0.7,12.3-0.2,12.3-12.5,16.9c-14,5.3-27.2,12-36.2,25c-7.5,10.8-6.7,24.2,0.7,34.7
			c10.7,15.2,26.3,22.1,44.1,24.9c1.6,0.3,3.2,0.6,5,1c1.2,0.3,2.3-0.7,2.3-1.9v-21.9c0-1.6,1.7-2.5,3-1.6
			c21.6,14.4,42.5,28.3,64.1,42.7c1.2,0.8,1.2,2.5,0,3.2c-21.5,14.3-42.3,28.2-63.8,42.5c-1.3,0.9-3-0.1-3-1.6
			c0-6.5-0.1-12.4,0-18.2c0-3.1-0.9-4.3-4.3-5c-27-5.6-52.4-15.1-71.7-35.9c-18.1-19.5-20.7-45-3.4-67.1
			c14.9-18.9,35.5-28.3,57.5-35.5C74.3,57,79.5,55.9,84.8,54.6z"/>
		<path d="M181.3,156.4c-1.1-0.7-1.1-2.4,0-3.2c7.9-5.7,16.5-10.5,22.9-17.4c14.6-15.5,13.2-32.6-4.1-46.4
			c-16.1-12.8-27-17.5-42.1-20.3c-1.2-0.2-2.3,0.7-2.3,1.9v17.7c0,1.6-1.7,2.5-3,1.6c-13.5-9-26.4-17.6-40-26.6
			c-1.2-0.8-1.2-2.5,0-3.2c13.5-9,26.4-17.6,39.9-26.6c1.3-0.9,3.1,0.1,3,1.6c-0.1,4.6-0.2,8.6,0.2,12.5c0.2,1.6,2.4,4.1,3.9,4.3
			c26.9,3.9,52.2,12.3,73.4,29.6c13.1,10.6,22.3,24.5,22.8,42.2c0.6,19.3-10.2,33-23.4,45.6c-10.1,9.6-19.1,10.4-29.8,0.5
			C196.7,164.6,188.5,161,181.3,156.4C181.3,156.4,181.3,156.4,181.3,156.4z"/>
	</g>
</g>
</svg>
