<svg id="Layer_1" data-name="Layer 1" xmlns="http://www.w3.org/2000/svg" viewBox="0 0 31.52 32"><defs><style>.cls-1{fill:#f7931e;}.cls-2{fill:#d57f3c;}.cls-3{fill:#007878;}.cls-4{fill:#3aafa9;}.cls-5{fill:#8e8e8e;}.cls-6{fill:#f6954a;}.cls-7{fill:#fbdf91;}.cls-8{fill:#ce6d22;}.cls-9{fill:#515151;}</style></defs><title>lock</title><path class="cls-1" d="M6.53,29.92c-.06-1.49,0-3,0-4.46q0-2.85,0-5.7a2.37,2.37,0,0,1,.44-1.37,2.41,2.41,0,0,1,1.34-.93A2.25,2.25,0,0,1,9,17.4h8.49a.53.53,0,0,0,0,.17q0,1.63,0,3.27s-.08,0-.12,0a2,2,0,0,0-1.75,2.62,1.9,1.9,0,0,0,.74,1c.06,0,.11.08.09.15,0,.25-.34,3.75-.34,3.79h1.38v3.42c-1.43,0-2.86,0-4.3,0s-2.78,0-4.17,0a2.53,2.53,0,0,1-.82-.1,2.4,2.4,0,0,1-1.35-1.15A4.49,4.49,0,0,1,6.53,29.92Z"/><path class="cls-2" d="M17.41,31.86q0-1.71,0-3.42h1.36c0-.1-.27-3.46-.29-3.75a.2.2,0,0,1,.09-.2,2,2,0,0,0,.83-1.94,2,2,0,0,0-1.53-1.63s0-.06-.06,0l-.39,0q0-1.63,0-3.27a.53.53,0,0,1,0-.17h4.71l3.71,0a3.44,3.44,0,0,1,.94.14,2.35,2.35,0,0,1,1.34,1.23,1.63,1.63,0,0,1,.19.7s0,0,0,0v.15c-.06,0,0,.11,0,.16q0,2.42,0,4.84c0,.06,0,.12,0,.16a8.86,8.86,0,0,1,0,1.34s0,.07,0,.11q0,.49,0,1s0,.09,0,.11v.09c-.06,0,0,.09,0,.15q0,.91,0,1.81c0,.05,0,.11,0,.15v.15s0,0,0,0V30l-.09.27a2.34,2.34,0,0,1-1.06,1.31,2.7,2.7,0,0,1-1.47.32H17.65Z"/><path class="cls-3" d="M9.74,16,9,14.78a.18.18,0,0,0-.18-.11H7a.15.15,0,0,0-.15.09A5.16,5.16,0,0,1,6,15.85a1.76,1.76,0,0,1-.5.32,5,5,0,0,1-.77.33,3.47,3.47,0,0,1-1.77.1,3.55,3.55,0,0,1-2-1.09,3.53,3.53,0,0,1-1-2.43A.36.36,0,0,1,0,13H2.67a.32.32,0,0,1,.24.07.71.71,0,0,0,.48.65.7.7,0,0,0,.75-.14A.86.86,0,0,0,4.4,13H16.17c0,.17-.06.28-.17.38L14.7,14.52a.52.52,0,0,1-.32.14c-.35,0-.71,0-1.06,0-.06,0-.12,0-.16.07a2.38,2.38,0,0,0-.23.45,2.53,2.53,0,0,0-.34.55.49.49,0,0,1-.43.28.43.43,0,0,1-.38-.25c-.18-.33-.38-.66-.57-1-.05-.09-.1-.11-.16,0-.2.36-.4.71-.61,1.07a.42.42,0,0,1-.59.19A.4.4,0,0,0,9.74,16Z"/><path class="cls-4" d="M2.91,13.07A.32.32,0,0,0,2.67,13H0A3.41,3.41,0,0,1,.84,10.7,3.6,3.6,0,0,1,2.49,9.57,3.54,3.54,0,0,1,4,9.41a3.6,3.6,0,0,1,2.52,1.41,2.3,2.3,0,0,1,.27.42,1,1,0,0,0,.08.16H14a.89.89,0,0,0,.22,0s.11,0,.17,0a.41.41,0,0,1,.28.11c.4.34.8.68,1.18,1,.13.13.35.21.32.46H4.4c0-.06,0-.12,0-.19a.75.75,0,0,0-.91-.51A.72.72,0,0,0,2.91,13.07Z"/><path class="cls-5" d="M14.22,11.37l-.22,0H10.49a9.73,9.73,0,0,1,1.74-2.93,7.88,7.88,0,0,1,1.64-1.22,8,8,0,0,1,2.21-.84,5.61,5.61,0,0,1,1.33-.17V9.92a5.24,5.24,0,0,0-1.67.39A4.6,4.6,0,0,0,14.22,11.37Z"/><path class="cls-5" d="M9.74,16a.4.4,0,0,1,.1,0,.42.42,0,0,0,.59-.19c.21-.35.41-.71.61-1.07.06-.1.11-.08.16,0,.19.33.39.66.57,1a.43.43,0,0,0,.38.25.49.49,0,0,0,.43-.28,2.52,2.52,0,0,1,.34-.55c0,.06,0,.13,0,.19q0,1,0,2H9.73c0-.42,0-.83,0-1.25A1.25,1.25,0,0,1,9.74,16Z"/><path class="cls-6" d="M7,3.3h.69a.24.24,0,0,1,.24.15.21.21,0,0,1-.06.23.24.24,0,0,1-.18,0H7a2.77,2.77,0,0,0,0,.49c0,.11,0,.21,0,.32a.21.21,0,1,1-.43,0c0-.19,0-.38,0-.56s0-.14,0-.23H5.83a.23.23,0,0,1-.22-.13.19.19,0,0,1,0-.21.28.28,0,0,1,.23-.09H6.4c.1,0,.14,0,.14-.14s0-.32,0-.48a.21.21,0,0,1,.22-.23A.21.21,0,0,1,7,2.68C7,2.88,7,3.09,7,3.3Z"/><path class="cls-7" d="M25,5.28c0,.3,0,.57,0,.84s-.06.27-.19.25-.16-.13-.16-.25c0-.27,0-.54,0-.84h-.56c-.18,0-.25-.06-.25-.22s.08-.23.26-.23h.4c.11,0,.15,0,.15-.14s0-.35,0-.53.08-.27.18-.26.17.12.17.25,0,.42,0,.63l0,.05h.51c.17,0,.26.08.27.23s-.08.22-.27.22Z"/><path class="cls-4" d="M21.45,1.9c-.15,0-.24-.06-.28-.21a.39.39,0,0,0-.4-.28.42.42,0,0,0-.37.26.4.4,0,0,0,.59.48c.08,0,.16-.1.22,0s0,.16-.1.2a.6.6,0,0,1-.64,0,.59.59,0,0,1-.33-.5.61.61,0,0,1,.59-.7.62.62,0,0,1,.68.55C21.44,1.78,21.44,1.83,21.45,1.9Z"/><path class="cls-6" d="M31,6.65a1.23,1.23,0,0,0,.37,0c.1,0,.19,0,.19.14s-.11.11-.19.11c-.36,0-.36,0-.36.37,0,0,0,0,0,.06s0,.19-.13.18-.13-.09-.12-.19,0-.27,0-.4a1.68,1.68,0,0,0-.4,0c-.07,0-.14,0-.14-.11a.13.13,0,0,1,.14-.14h.26c.12,0,.17,0,.16-.15a1.2,1.2,0,0,1,0-.21c0-.08,0-.14.12-.14s.12.06.12.14S31,6.54,31,6.65Z"/><path class="cls-7" d="M9.52.83H9.19C9.1.83,9,.79,9,.71A.15.15,0,0,1,9.19.55c.11,0,.26.06.32,0s0-.22,0-.33A.18.18,0,0,1,9.63,0a.18.18,0,0,1,.11.19c0,.07,0,.14,0,.21s0,.16.15.14a.72.72,0,0,1,.19,0,.14.14,0,0,1,.14.15.13.13,0,0,1-.15.13H9.75c0,.17,0,.31,0,.46s0,.18-.12.17-.11-.09-.11-.17S9.52,1,9.52.83Z"/><path class="cls-3" d="M28.68,10a.41.41,0,1,1,0,.82.41.41,0,1,1,0-.82Z"/><path class="cls-3" d="M12,3.25a.35.35,0,0,1-.36.35.4.4,0,0,1-.36-.36.42.42,0,0,1,.37-.37A.37.37,0,0,1,12,3.25Z"/><path class="cls-8" d="M28.34,24.84c-.06,0,0-.11,0-.16q0-2.42,0-4.84c0-.06,0-.12,0-.16,0,.29,0,.58,0,.87q0,2.08,0,4.15S28.35,24.79,28.34,24.84Z"/><path class="cls-8" d="M28.34,29.57c-.06,0,0-.1,0-.15q0-.91,0-1.81c0-.05,0-.11,0-.15Q28.34,28.52,28.34,29.57Z"/><path class="cls-8" d="M28.34,27.38s0-.07,0-.11q0-.49,0-1s0-.09,0-.11Z"/><path class="cls-8" d="M28.34,19.52s0,0,0,0Z"/><path class="cls-8" d="M28.34,29.76s0,0,0,0Z"/><path class="cls-6" d="M17.87,20.92s0,0-.06,0S17.86,20.88,17.87,20.92Z"/><path class="cls-9" d="M25.87,17.41l-3.71,0c0-1,0-2,0-2.93a3.91,3.91,0,0,0-.05-.69,4.85,4.85,0,0,0-.63-1.68A4.56,4.56,0,0,0,20,10.61,4.43,4.43,0,0,0,18.28,10c-.29,0-.58-.05-.86-.08V6.25a14.79,14.79,0,0,1,2.13.18A7.74,7.74,0,0,1,21,6.88a7.85,7.85,0,0,1,2.5,1.69,8.15,8.15,0,0,1,1.07,1.29,9.22,9.22,0,0,1,.77,1.45,3.78,3.78,0,0,1,.27.84,20.43,20.43,0,0,1,.31,4.95C25.87,17.19,25.87,17.31,25.87,17.41Z"/></svg>