<svg xmlns="http://www.w3.org/2000/svg" viewBox="0 0 184.25 170.08"><defs><style>.cls-1{fill:#fff;}</style></defs><title>Asset 2</title><g id="Layer_2" data-name="Layer 2"><g id="Layer_1-2" data-name="Layer 1"><path class="cls-1" d="M184.25,49.61a49.61,49.61,0,0,1-49.6,49.61,14.17,14.17,0,1,1,0-28.35,21.26,21.26,0,1,0-21.26-21.26v85a35.43,35.43,0,0,1-70.87,0v-85a7.08,7.08,0,1,0-14.17,0v85a14.17,14.17,0,0,1-28.35,0v-85a35.43,35.43,0,0,1,70.87,0v85a7.08,7.08,0,1,0,14.17,0v-85a49.61,49.61,0,1,1,99.21,0Z"/></g></g></svg>