<svg id="Layer_1" data-name="Layer 1" xmlns="http://www.w3.org/2000/svg" viewBox="0 0 184.26 170.75"><defs><style>.cls-1{fill:#777;}</style></defs><title>logo1-grey</title><g id="Layer_2" data-name="Layer 2"><g id="Layer_1-2" data-name="Layer 1-2"><path class="cls-1" d="M184.25,49.61a49.61,49.61,0,0,1-49.6,49.61,14.17,14.17,0,1,1,0-28.35,21.26,21.26,0,1,0-21.26-21.26v85a35.44,35.44,0,0,1-70.87,0v-85a7.09,7.09,0,0,0-14.17,0v85a14.18,14.18,0,1,1-28.35,0v-85a35.44,35.44,0,1,1,70.87,0v85a7.08,7.08,0,1,0,14.17,0v-85a49.61,49.61,0,0,1,99.21-1.41Q184.26,48.91,184.25,49.61Z" transform="translate(0 0.7)"/></g></g></svg>