<svg id="Capa_1" data-name="Capa 1" xmlns="http://www.w3.org/2000/svg" viewBox="0 0 512 512"><defs><style>.cls-1{fill:#fff;}</style></defs><title>logo-design</title><path class="cls-1" d="M432,100a10,10,0,1,0,10,10A10,10,0,0,0,432,100Z" transform="translate(0 0)"/><path class="cls-1" d="M80,100a10,10,0,1,0,10,10A10,10,0,0,0,80,100Z" transform="translate(0 0)"/><path class="cls-1" d="M502,220H490a227.15,227.15,0,0,0-26.94-81.71A10,10,0,0,0,445.62,148a207.26,207.26,0,0,1,24.25,72H462a10,10,0,0,0-10,10v40a10,10,0,0,0,10,10h40a10,10,0,0,0,10-10V230A10,10,0,0,0,502,220Zm-10,40H472V240h20Z" transform="translate(0 0)"/><path class="cls-1" d="M366,292.62c0-.15,0-.31,0-.46s0-.42-.08-.63,0-.26-.06-.38-.11-.48-.17-.72,0-.18-.07-.27c-.09-.3-.19-.59-.31-.88l0-.1a9.87,9.87,0,0,0-.46-1l-100-183a10,10,0,0,0-17.55,0l-100,183a9.87,9.87,0,0,0-.46,1l0,.1c-.12.29-.22.58-.31.88,0,.09,0,.18-.07.27s-.12.48-.17.72,0,.26-.06.38-.06.42-.08.63,0,.31,0,.46,0,.25,0,.38,0,.13,0,.2,0,.31,0,.47,0,.4.05.59,0,.27.06.41.08.43.13.64.06.24.09.36.13.45.21.67c0,.06,0,.13.06.19l36.06,95.57A30,30,0,0,0,186,447.28V502a10,10,0,0,0,10,10H316a10,10,0,0,0,10-10V447.3a30,30,0,0,0,3.29-55.18l36.07-95.58c0-.06,0-.13.06-.19.08-.22.15-.45.21-.67l.09-.36c0-.21.09-.42.13-.64s0-.27.06-.41,0-.39.05-.59,0-.31,0-.47,0-.13,0-.2S366,292.75,366,292.62ZM256,283a10,10,0,1,1-10,10A10,10,0,0,1,256,283Zm50,209H206V449H306Zm17.07-65.93A9.93,9.93,0,0,1,316,429H196a10,10,0,0,1,0-20H316a10,10,0,0,1,7,17.07Zm-14-37.07H202.91l-32.45-86H196a10,10,0,0,0,0-20H172.86L246,149.15V264.72a30,30,0,1,0,20,0V149.15L339.14,283H316a10,10,0,0,0,0,20h25.54Z" transform="translate(0 0)"/><path class="cls-1" d="M62.51,134.42a10,10,0,0,0-13.6,3.87A227.15,227.15,0,0,0,22,220H10A10,10,0,0,0,0,230v40a10,10,0,0,0,10,10H50a10,10,0,0,0,10-10V230a10,10,0,0,0-10-10H42.13a207.28,207.28,0,0,1,24.25-72A10,10,0,0,0,62.51,134.42ZM40,260H20V240H40Z" transform="translate(0 0)"/><path class="cls-1" d="M482,0a30,30,0,0,0-28.28,20H286V10A10,10,0,0,0,276,0H236a10,10,0,0,0-10,10V20H58.28a30,30,0,1,0,0,20H158.81c-21.33,8.92-40.89,20.51-57,34.08a10,10,0,1,0,12.89,15.29C143.41,65.19,184.35,47.91,226,42.12V50a10,10,0,0,0,10,10h40a10,10,0,0,0,10-10V42.12c41.65,5.79,82.59,23.07,111.29,47.26a10,10,0,0,0,12.89-15.29c-16.1-13.57-35.66-25.16-57-34.08H453.72A30,30,0,1,0,482,0ZM30,40A10,10,0,1,1,40,30,10,10,0,0,1,30,40ZM266,30V40H246V20h20ZM482,40a10,10,0,1,1,10-10A10,10,0,0,1,482,40Z" transform="translate(0 0)"/></svg>