<?xml version="1.0" standalone="no"?><!DOCTYPE svg PUBLIC "-//W3C//DTD SVG 1.1//EN" "http://www.w3.org/Graphics/SVG/1.1/DTD/svg11.dtd"><svg class="icon" height="512" viewBox="0 0 1024 1024" version="1.1" xmlns="http://www.w3.org/2000/svg"><path d="M950.930362 146.285714l0 256q0 14.848-10.825143 25.746286t-25.746286 10.825143l-256 0q-23.990857 0-33.718857-22.820571-9.728-22.308571 7.972571-39.424l78.848-78.848q-84.553143-78.262857-199.460571-78.262857-59.465143 0-113.444571 23.113143t-93.403429 62.537143-62.537143 93.403429-23.113143 113.444571 23.113143 113.444571 62.537143 93.403429 93.403429 62.537143 113.444571 23.113143q68.022857 0 128.585143-29.696t102.253714-83.968q4.022857-5.705143 13.165714-6.875429 7.972571 0 14.262857 5.12l78.262857 78.848q5.12 4.534857 5.412571 11.702857t-4.315429 12.873143q-62.317714 75.410286-150.820571 116.882286t-186.88 41.398857q-89.161143 0-170.276571-34.889143t-139.995429-93.696-93.696-139.995429-34.889143-170.276571 34.889143-170.276571 93.696-139.995429 139.995429-93.696 170.276571-34.889143q83.968 0 162.596571 31.744t139.702857 89.453714l74.313143-73.728q16.603429-17.700571 40.009143-7.972571 22.308571 9.728 22.308571 33.718857z" /></svg>