<svg xmlns="http://www.w3.org/2000/svg" viewBox="0 0 438.9 438.6"><defs><style>.cls-1{fill:#007878;}</style></defs><title>Asset 1</title><g id="Layer_2" data-name="Layer 2"><g id="Layer_1-2" data-name="Layer 1"><path class="cls-1" d="M438.9,36.1v128a17.93,17.93,0,0,1-5.4,12.9,17.23,17.23,0,0,1-12.9,5.4h-128c-8,0-13.6-3.8-16.9-11.4-3.2-7.4-1.9-14,4-19.7l39.4-39.4q-42.3-39.15-99.7-39.1a142.73,142.73,0,0,0-56.7,11.6A145.72,145.72,0,0,0,116,115.7a147.37,147.37,0,0,0-31.3,46.7,144.37,144.37,0,0,0,0,113.4A145.72,145.72,0,0,0,116,322.5a147.37,147.37,0,0,0,46.7,31.3,144.82,144.82,0,0,0,172.1-45.2c1.3-1.9,3.5-3,6.6-3.4a10.91,10.91,0,0,1,7.1,2.6l39.1,39.4a8,8,0,0,1,2.7,5.9,9,9,0,0,1-2.2,6.4,215.27,215.27,0,0,1-75.4,58.4,217.69,217.69,0,0,1-93.4,20.7,213.47,213.47,0,0,1-85.1-17.4c-27-11.6-50.4-27.2-70-46.8s-35.2-42.9-46.8-70a216.8,216.8,0,0,1,0-170.2Q35,93.55,64.2,64.2c19.5-19.6,42.9-35.2,70-46.8a216.31,216.31,0,0,1,166.4-1.5,223.23,223.23,0,0,1,69.9,44.7l37.2-36.9c5.5-5.9,12.2-7.2,20-4,7.4,2.8,11.1,8.4,11.2,16.4Z"/></g></g></svg>