<svg id="Layer_1" data-name="Layer 1" xmlns="http://www.w3.org/2000/svg" viewBox="0 0 16.93 32"><defs><style>.cls-1{fill:#282e3a;}.cls-2{fill:#fdab83;}.cls-3{fill:#fed03d;}.cls-4{fill:#fdefbe;}</style></defs><title>lock</title><path class="cls-1" d="M3.71,32c0-1.37,0-2.75,0-4.12a.77.77,0,0,1,.36-.71.57.57,0,0,1,.3-.1h6.37a.51.51,0,0,1,.52.52c0,1.24,0,2.49,0,3.73,0,.23,0,.46,0,.69Z"/><path class="cls-2" d="M9.41,13.58l0-.24a.62.62,0,0,1,.45-.53.37.37,0,0,1,.54.16A6.73,6.73,0,0,1,11,14c.15.32.29.63.44,1a11.47,11.47,0,0,1,.51,1.29,2,2,0,0,1,.09.56c0,.44,0,.87,0,1.31,0,.22,0,.43,0,.65,0,0,0,.08,0,.12.05-.14.11-.28.15-.42s.16-.49.25-.74.2-.58.3-.87.25-.68.38-1a5.19,5.19,0,0,1,.39-.86,3.08,3.08,0,0,1,.3-.41c.13-.15.3-.06.45-.06h.13c.21,0,.29.09.31.31a2,2,0,0,1-.1.81c-.1.29-.16.59-.25.89s-.15.47-.23.7-.16.43-.24.65-.28.69-.44,1-.43.87-.67,1.28l-.4.67a.07.07,0,0,0,0,.08l.39-.29A24.11,24.11,0,0,0,14.48,19c.4-.39.72-.86,1.1-1.26a1.21,1.21,0,0,1,.59-.42c.42-.09.66,0,.76.45a.49.49,0,0,1-.12.36,13.64,13.64,0,0,1-1.23,1.65c-.64.76-1.35,1.46-2,2.18l-.86.93,0,0s0,0,0,0v0a1.05,1.05,0,0,0,.41-.15l1.33-.63c.42-.2.84-.41,1.27-.59a1.56,1.56,0,0,1,.7-.16c.2,0,.26.17.32.32.13.3,0,.52-.29.72a10.14,10.14,0,0,1-1.39.85c-.38.2-.75.4-1.14.58l-1,.46c-.39.18-.77.37-1.15.58s-.52.28-.77.44a3.21,3.21,0,0,0-.92.77.18.18,0,0,1-.16.08H5.26a.16.16,0,0,1,0,0c0-.37,0-.75,0-1.12a8.93,8.93,0,0,0,0-1A10.7,10.7,0,0,0,5,22.65c-.06-.34-.13-.68-.18-1a6.33,6.33,0,0,1-.06-.74c0-.82-.12-1.63-.09-2.45a5.57,5.57,0,0,1,.24-1.56A1.62,1.62,0,0,1,5,16.53c.12-.19.23-.19.51-.16l.17,0h0s0,0,0,0a2.21,2.21,0,0,1,.37.23,1.29,1.29,0,0,1,.37.66,4.82,4.82,0,0,1,.1,1.07c0,.37,0,.75,0,1.12A1.75,1.75,0,0,0,7,20.72a1,1,0,0,0,.64.36A4.41,4.41,0,0,0,8.87,21,.15.15,0,0,0,9,20.88l.41-.62c.21-.32.41-.65.62-1s.27-.42.39-.64a.16.16,0,0,0,0-.08,7.46,7.46,0,0,0-.08-1.41,5.3,5.3,0,0,0-.26-1.06c-.11-.3-.22-.61-.32-.91a3.3,3.3,0,0,1-.17-.62c0-.08,0-.17-.06-.23A2.39,2.39,0,0,0,9.41,13.58Z"/><path class="cls-3" d="M9.41,13.58a2.39,2.39,0,0,1,.12.76v.23a2.44,2.44,0,0,1-3.14,2.14.76.76,0,0,0-.3-.08,2.21,2.21,0,0,0-.37-.23h0c0-.06-.08-.08-.12-.12a2.4,2.4,0,0,1-.79-1.13,2.3,2.3,0,0,1-.06-1.36,2.42,2.42,0,0,1,1-1.39,2.06,2.06,0,0,1,.55-.29c.08,0,.08-.08.08-.15q0-1,0-1.91c0-.69,0-1.38,0-2.07,0-.1,0-.13-.13-.13H4.79c-.1,0-.13,0-.13-.13s0-.35,0-.52.18,0,.26,0V6.41H4.85c-.22,0-.19,0-.19-.21s0-.24,0-.36,0-.11.11-.1H6.16c.16,0,.16,0,.15-.15s0-.36,0-.54,0-.11.1-.11H7.79c.08,0,.11,0,.11.11,0,.78,0,1.55,0,2.33q0,.64,0,1.28,0,1.65,0,3.3a.16.16,0,0,0,.12.17,2.33,2.33,0,0,1,1.23,1.12Zm-2.3-.36a1.16,1.16,0,1,0,0,2.33,1.16,1.16,0,1,0,0-2.33Z"/><path class="cls-3" d="M10.64,5.44l.69-.38,1.5-.82s.05,0,.09,0l.59.42-2.88.85h-.07l0,0Z"/><path class="cls-3" d="M1.72.53c.22.05.44.12.65.15s.27.14.35.3c.28.55.58,1.1.86,1.65A2.49,2.49,0,0,1,3.76,3C3.61,2.85,1.76.62,1.72.53Z"/><path class="cls-3" d="M9.47.91l-.33.49L8.34,2.59l-.24.34h0l.1-.27.45-1.13L8.84,1A.08.08,0,0,1,8.92.92h.55Z"/><path class="cls-3" d="M.87,4.41c.5.21,1,.46,1.48.7a.32.32,0,0,1-.21,0c-.31,0-.62-.14-.93-.16S.94,4.81.9,4.64s0-.14-.06-.2Z"/><path class="cls-3" d="M9,.53A4.28,4.28,0,0,1,9.11,0a5,5,0,0,1,.52,0h0c.1.07,0,.18,0,.26s0,.11-.06.12Z"/><path class="cls-3" d="M.5,4.73.13,4.58A.1.1,0,0,1,.06,4.5,1.67,1.67,0,0,1,0,4.11a1.45,1.45,0,0,1,.38.11s0,0,0,0A2.61,2.61,0,0,1,.5,4.73Z"/><path class="cls-4" d="M9.47.91H9.13s0,0,.08,0h.24S9.52.88,9.47.91Z"/><path class="cls-4" d="M10.64,5.44l0,0,0,0h.07c0,.08-.13,0-.2.05A.29.29,0,0,1,10.64,5.44Z"/><path class="cls-4" d="M9.59,14.57H9.53v-.23C9.63,14.39,9.58,14.49,9.59,14.57Z"/></svg>