<?xml version="1.0" encoding="utf-8"?><svg width="372" height="329" viewBox="0 0 372 329" xmlns="http://www.w3.org/2000/svg" xmlns:xlink="http://www.w3.org/1999/xlink"><svg viewBox="-1 -1 52 52" width="52" height="52" id="arrow-top" x="60" xmlns="http://www.w3.org/2000/svg"><path d="M27.5 11.8L49 33.3c1.4 1.4 1.4 3.6 0 5s-3.6 1.4-4.9 0l-19-19-19 19c-1.4 1.4-3.6 1.4-4.9 0-1.4-1.4-1.4-3.6 0-5l21.5-21.5c.7-.7 1.6-1 2.5-1 .7-.1 1.6.3 2.3 1z"/></svg><svg viewBox="-1 -1 52 52" width="52" height="52" id="bin" x="112" xmlns="http://www.w3.org/2000/svg"><path d="M6.3 43.8c0 3.5 2.8 6.3 6.3 6.3h25c3.5 0 6.3-2.8 6.3-6.3V12.5H6.3v31.3zM31.3 3.1V0H18.8v3.1H3.1v6.3h43.8V3.1H31.3z"/></svg><svg viewBox="-1 -1 52 52" width="52" height="52" id="birthday" y="68.59" xmlns="http://www.w3.org/2000/svg"><path d="M45.2 29.2c-3 2-7.1 1.4-9.3-1.4-2.3 2.9-6.5 3.5-9.5 1.3-.5-.4-1-.8-1.4-1.3-2.3 2.9-6.5 3.5-9.5 1.3-.5-.4-1-.8-1.4-1.3-2.2 2.8-6.3 3.5-9.3 1.4v5.3c.8-.4 1.6-.6 2.5-.7 2.5-.3 4.5.2 6.7 1.2.9.4 2 1 3.1 1 1 0 1.8-.3 2.7-.7 1.8-.8 3.8-1.8 5.9-1.8 2.2 0 4.2.9 6.2 1.9 1.8.9 3.6 1.6 5.6.7 2.1-1 4-2.5 6.4-2.8.5-.1 1-.1 1.5-.1l-.2-4zM41.6 38.2c-1.8 1-3.7 2.1-5.8 2.2-1.9.1-3.7-.6-5.5-1.4-1.5-.7-3.1-1.7-4.8-1.6-1.9.1-3.6 1.4-5.3 2-1.9.7-3.9.8-5.8.1-1.8-.7-3.6-1.9-5.5-1.9-1.7 0-3 .7-4.1 1.8v3.8h40.5v-6.1c-1.2-.3-2.7.6-3.7 1.1z"/><path d="M45.4 27.3l.1-.1c.8-1 1.3-2.1 1.3-3.4V15H27.2v-4.8c-1.3.8-3 .8-4.4 0V15H3.2v8.8c0 1.2.4 2.4 1.3 3.4l.1.1.1.1c2.1 2.1 5.6 2.1 7.7.1 1.1-1 1.6-2.4 1.6-3.8 0 2.9 2.4 5.3 5.4 5.3s5.5-2.3 5.5-5.2v-.1c0 2.9 2.4 5.3 5.4 5.3s5.5-2.3 5.5-5.2v-.1c0 2.9 2.4 5.3 5.5 5.3 1.5 0 2.9-.6 3.9-1.6.1 0 .1 0 .2-.1zM25 50c13.8 0 25-2.5 25-5.5H0c0 3 11.2 5.5 25 5.5zM23.6 9.1c.9.5 1.9.5 2.8 0 1-.6 1.6-1.7 1.6-2.9 0-.9-1.5-6.2-3.1-6.2-1.5 0-3 5.3-3 6.2.1 1.3.7 2.4 1.7 2.9z"/></svg><svg viewBox="-1 -1 52 52" width="52" height="52" id="calendar" x="52" y="68.59" xmlns="http://www.w3.org/2000/svg"><path d="M18.1 27.6c0-.6-.5-1.1-1.2-1.1h-4c-.6 0-1.1.5-1.1 1.1v4c0 .6.5 1.1 1.1 1.1h4c.6 0 1.1-.5 1.2-1.1v-4zM28.2 27.6c0-.6-.5-1.1-1.2-1.1h-4c-.6 0-1.1.5-1.2 1.1v3.9c0 .6.5 1.1 1.2 1.1h4c.6 0 1.1-.5 1.2-1.1v-3.9zM38.3 27.6c0-.6-.5-1.1-1.2-1.1h-4c-.6 0-1.1.5-1.2 1.1v4c0 .6.5 1.1 1.2 1.1h4.1c.6 0 1.1-.5 1.1-1.1v-4zM18.1 37.5c0-.6-.5-1.1-1.2-1.1h-4c-.6 0-1.1.5-1.1 1.1v4c0 .6.5 1.1 1.1 1.1h4c.6 0 1.1-.5 1.2-1.1v-4zM28.2 37.5c0-.6-.5-1.1-1.2-1.1h-4c-.6 0-1.1.5-1.2 1.1v4c0 .6.5 1.1 1.2 1.1h4c.6 0 1.1-.5 1.2-1.1v-4zM38.3 37.5c0-.6-.5-1.1-1.2-1.1h-4c-.6 0-1.1.5-1.2 1.1v4c0 .6.5 1.1 1.2 1.1h4.1c.6 0 1.1-.5 1.2-1.1l-.1-4z"/><path d="M45.5 5.6v6c0 2.7-2.3 4.9-5 4.9h-3.2c-2.8 0-5.1-2.2-5.1-4.9V5.5H17.8v6.1c0 2.7-2.3 5-5.1 5H9.5c-2.8 0-5-2.2-5-4.9v-6C2 5.6 0 7.6 0 10v35.5C0 48 2 50 4.6 50h40.8c2.5 0 4.6-2 4.6-4.5V10c0-2.4-2-4.4-4.5-4.4zM44 43.3c0 1.1-.9 1.9-2 1.9H7.8c-1.1 0-2-.9-2-1.9V25c0-1.1.9-1.9 2-1.9H42c1.1 0 2 .9 2 1.9v18.3z"/><path d="M9.5 13.3h3.2c1 0 1.7-.8 1.7-1.7V1.7c0-.9-.8-1.7-1.7-1.7H9.5c-1 0-1.7.8-1.7 1.7v9.9c0 1 .7 1.7 1.7 1.7zM37.2 13.3h3.2c1 0 1.7-.8 1.7-1.7V1.7c0-.9-.8-1.7-1.7-1.7h-3.2c-1 0-1.7.8-1.7 1.7v9.9c0 1 .8 1.7 1.7 1.7z"/></svg><svg viewBox="-1 -1 52 52" width="52" height="52" id="check-mark" x="104" y="68.59" xmlns="http://www.w3.org/2000/svg"><path d="M22.7 41.9c-2.3 2.3-5.9 2.3-8.2 0L1.8 29.3c-2.3-2.2-2.5-5.8-.4-8.2s5.8-2.5 8.2-.4c.2.1.3.3.4.4l7.5 7.5c.6.6 1.5.6 2.1 0L40 8.2c2.2-2.3 5.9-2.5 8.2-.3 2.3 2.2 2.5 5.9.3 8.2l-.3.3-25.5 25.5z"/></svg><svg viewBox="-1 -1 52 52" width="52" height="52" id="clipboard" x="164" xmlns="http://www.w3.org/2000/svg"><path d="M4.8 25c-.2-4.5 3.2-8.3 7.7-8.7h10V11h-10C5.2 11.4-.3 17.7.1 25c-.4 7.3 5.1 13.6 12.4 14.1h10v-5.4h-10C8 33.3 4.6 29.5 4.8 25zM15 27.8h19.9v-5.6H15v5.6zm22.4-16.9h-9.9v5.3h10c4.5.4 7.9 4.2 7.7 8.7.2 4.5-3.2 8.3-7.7 8.7h-9.9V39h10c7.3-.5 12.8-6.7 12.5-14.1.2-7.2-5.4-13.5-12.7-14z"/></svg><svg viewBox="-1 -1 52 52" width="52" height="52" id="close" x="164" y="52" xmlns="http://www.w3.org/2000/svg"><path d="M48.4 9.8L33.2 25l15.2 15.2c2.2 2.2 2.3 5.9 0 8.1-2.2 2.2-5.9 2.3-8.1 0L25.1 33.1 9.9 48.3c-2.2 2.2-5.9 2.2-8.1 0-2.2-2.2-2.2-5.9 0-8.1L16.9 25 1.8 9.8c-2.2-2.3-2.2-5.9.1-8.2C4.1-.6 7.7-.6 10 1.6l15.2 15.2 15-15.1c2.2-2.2 5.9-2.2 8.1 0 2.3 2.2 2.3 5.9.1 8.1z"/></svg><svg viewBox="-1 -1 52 52" width="52" height="52" id="comment" y="120.59" xmlns="http://www.w3.org/2000/svg"><path d="M37.6 38.5c3.8-1.6 6.9-3.8 9.1-6.6S50 26 50 22.7s-1.1-6.3-3.3-9.1-5.3-5-9.1-6.6c-3.8-1.6-8-2.4-12.6-2.4s-8.7.7-12.5 2.4-6.9 3.8-9.1 6.6S0 19.4 0 22.7c0 2.8.9 5.5 2.5 8s4 4.6 6.9 6.3c-.2.6-.5 1.1-.7 1.6-.3.5-.6 1-.9 1.4-.4.4-.6.8-.8 1s-.4.5-.9 1c-.4.5-.7.8-.8.9 0 0-.1 0-.1.2-.1.1-.2.1-.2.1s-.1.1-.1.2l-.1.2-.1.2c0 .1-.1.1-.1.2v.4c0 .3.2.6.4.8.2.2.5.3.7.3h.1c1-.1 2.1-.3 3.1-.6 3.6-.9 6.9-2.4 9.9-4.5 2.1.4 4.2.6 6.3.6 4.4-.1 8.6-.9 12.5-2.5z"/></svg><svg viewBox="-1 -1 52 52" width="52" height="52" id="designer" x="52" y="120.59" xmlns="http://www.w3.org/2000/svg"><path d="M45.4 0H4.6C2.1 0 0 2.4 0 5.2v27c0 2.9 2.1 5.2 4.6 5.2h15.2l-.5 9h-3.5c-.8 0-1.5.8-1.5 1.8 0 .9.7 1.7 1.5 1.7h18.3c.8 0 1.5-.8 1.5-1.8 0-.9-.7-1.7-1.5-1.7h-3.5l-.5-9h15.2c2.5 0 4.6-2.4 4.6-5.2v-27c.1-2.8-2-5.2-4.5-5.2zm-23 46.5l.5-9h4.3l.5 9h-5.3zm24.5-14.2c0 1-.7 1.7-1.5 1.8H4.6c-.8 0-1.5-.8-1.5-1.8v-27c0-1 .7-1.7 1.5-1.7h40.8c.8 0 1.5.8 1.5 1.8v26.9z"/><path d="M31.5 34V12.6H37v2h-.9c-.5 0-.9.4-.9.9s.4 1 .9 1h1v2.9h-.9c-.5 0-.9.4-.9.9s.4 1 .9 1h1v2.9h-.9c-.5 0-.9.4-.9.9s.4 1 .9 1h1V30h-.9c-.5 0-.9.4-.9.9s.4 1 .9 1h1v2l-5.9.1zM25 24.2c.3 0 .7 0 1-.1.2 1.2.4 3.2.6 6h-3.4c.2-2.8.4-4.9.6-6.1.3.1.8.2 1.2.2zM25 22.3c-2.1 0-3.4-2.4-2.4-4.4l2.4-4.4 2.4 4.4c1 1.9-.3 4.4-2.4 4.4zM23.4 32.4h2.9V34h-3c.1-.6.1-1.1.1-1.6zM17.1 20.4h1.8v13.7h-1.8zM13.4 20.4h1.8v13.7h-1.8zM14 18.4l2.2-4.6 2.2 4.6z"/></svg><svg viewBox="-1 -1 52 52" width="52" height="52" id="developer" x="104" y="120.59" xmlns="http://www.w3.org/2000/svg"><path d="M45.4 0H4.6C2.1 0 0 2.3 0 5.2v27c0 2.9 2.1 5.2 4.6 5.2h15.2l-.5 9h-3.5c-.9 0-1.5.8-1.5 1.8S15 50 15.9 50h18.3c.9 0 1.5-.8 1.5-1.8s-.7-1.8-1.5-1.8h-3.5l-.5-9h15.2c2.5 0 4.6-2.3 4.6-5.2v-27C50 2.3 47.9 0 45.4 0zm-23 46.5l.5-9h4.3l.5 9h-5.3zm24.5-14.2c0 1-.7 1.7-1.5 1.8H4.6c-.8 0-1.5-.8-1.5-1.8v-27c0-1 .7-1.7 1.5-1.7h40.8c.8 0 1.5.8 1.5 1.7v27z"/><path d="M18.4 10.9c-.6-.6-1.6-.5-2.2.2L10.6 18c-.5.6-.5 1.4 0 2l5.6 6.9c.6.7 1.5.7 2.2.2.6-.6.7-1.5.2-2.2L13.8 19l4.8-5.9c.5-.7.5-1.7-.2-2.2zM33.7 11.1c-.5-.7-1.5-.8-2.1-.2-.7.6-.8 1.5-.2 2.2l4.8 5.9-4.8 5.9c-.5.7-.4 1.7.2 2.2.6.5 1.6.5 2.1-.2l5.6-6.9c.5-.6.5-1.4 0-2l-5.6-6.9zM28.2 10.6c-.8-.3-1.7.1-2 .9l-5.3 13.7c-.3.8.1 1.7.9 2 .8.3 1.7-.1 2-.9l5.3-13.7c.3-.8-.1-1.7-.9-2z"/></svg><svg viewBox="-1 -1 52 52" width="52" height="52" id="ear" x="156" y="120.59" xmlns="http://www.w3.org/2000/svg"><path d="M37.3 5.4C34 1.9 29.6 0 25 0 15.4 0 7.6 7.8 7.6 17.4c0 1.3 1 2.3 2.3 2.3s2.3-1 2.3-2.3c0-7.1 5.8-12.9 12.9-12.9 7.4 0 12.9 6.8 12.9 12.9 0 6.8-7.3 17.7-10.1 21.3-2.2 2.7-5.1 6-6.2 6.7H16c-1.3 0-2.3 1-2.3 2.3 0 1.3 1 2.3 2.3 2.3h6c1.3 0 2.6-.7 6.1-4.6 1.7-1.9 3.2-3.8 3.3-3.9.5-.6 11.1-14.4 11.1-24.1-.1-4.3-1.9-8.6-5.2-12z"/><path d="M18.9 33.3c-1.3 0-2.3 1-2.3 2.3 0 1.3 1 2.3 2.3 2.3 3.8 0 6.8-3.1 6.8-6.8 0-2.9-1.8-5.5-4.6-6.4v-7.2c0-2.1 1.7-3.8 3.8-3.8s3.8 1.7 3.8 3.8c0 1.3 1 2.3 2.3 2.3 1.3 0 2.3-1 2.3-2.3 0-4.6-3.7-8.3-8.3-8.3s-8.3 3.7-8.3 8.3v9.1c0 1.3 1 2.3 2.3 2.3s2.3 1 2.3 2.3c-.1 1.1-1.1 2.1-2.4 2.1z"/></svg><svg viewBox="-1 -1 52 52" width="52" height="52" id="envelope" x="216" xmlns="http://www.w3.org/2000/svg"><path d="M4.8 17.4c.6.4 2.5 1.8 5.7 4s5.6 3.9 7.3 5.1c.2.1.6.4 1.2.8s1.1.8 1.5 1c.4.3.9.6 1.5.9.5.3 1 .6 1.6.7.4.2.9.2 1.4.2.5 0 .9-.1 1.4-.2.6-.2 1.1-.4 1.6-.7.6-.3 1.1-.6 1.5-.9.4-.3.9-.6 1.5-1.1.6-.4 1-.7 1.2-.8 1.7-1.2 6.1-4.2 13-9 1.3-.9 2.5-2.1 3.4-3.4S50 11.3 50 9.8c0-1.2-.5-2.3-1.3-3.1-.9-.9-1.9-1.3-3.1-1.3h-41c-1.6-.1-2.7.4-3.4 1.4S0 9 0 10.4c0 1.2.5 2.4 1.5 3.8s2.1 2.5 3.3 3.2z"/><path d="M47.2 20.4c-6.1 4.1-10.7 7.3-13.9 9.6-1.1.8-1.9 1.4-2.6 1.8-.7.4-1.5.9-2.6 1.3-1.1.5-2.1.7-3.1.7-.9 0-2-.2-3.1-.7-1.1-.5-2-.9-2.6-1.3-.6-.4-1.5-1-2.6-1.8-2.5-1.8-7.1-5-13.9-9.6-1-.7-2-1.5-2.8-2.4v22.1c0 1.2.5 2.3 1.3 3.1.8.8 2 1.3 3.2 1.3h41.1c2.5 0 4.5-2 4.5-4.4V18c-.9.9-1.9 1.7-2.9 2.4z"/></svg><svg viewBox="-1 -1 52 52" width="52" height="52" id="eye" x="216" y="52" xmlns="http://www.w3.org/2000/svg"><path d="M25 10.1c-9.5 0-18.2 5.2-24.6 13.7-.5.7-.5 1.7 0 2.4 6.4 8.5 15 13.7 24.6 13.7s18.2-5.2 24.6-13.7c.5-.7.5-1.7 0-2.4-6.4-8.5-15-13.7-24.6-13.7zm.7 25.4c-5.8.4-10.8-4-11.2-9.8v-1.3c.3-5.2 4.6-9.5 9.8-9.8 5.8-.4 10.8 4 11.2 9.8v1.3c-.3 5.2-4.6 9.4-9.8 9.8zm-.3-4.9c-3.1.2-5.8-2.2-6-5.3-.2-3.1 2.2-5.8 5.3-6 3.1-.2 5.8 2.2 6 5.3v.7c-.2 2.9-2.5 5.2-5.3 5.3z"/></svg><svg viewBox="-1 -1 52 52" width="52" height="52" id="facebook-logo" x="216" y="104" xmlns="http://www.w3.org/2000/svg"><path d="M37.5 0H31c-7.3 0-12 4.8-12 12.3V18h-6.5c-.6 0-1.1.5-1.1 1v8.2c0 .6.5 1 1.1 1H19V49c0 .6.5 1 1.1 1h8.5c.6 0 1-.5 1-1V28.2h7.6c.6 0 1-.5 1-1.1V19c0-.6-.5-1-1-1h-7.6v-4.8c0-2.3.5-3.5 3.6-3.5h4.3c.6 0 1-.5 1-1.1V1c0-.5-.5-1-1-1z"/></svg><svg viewBox="-1 -1 52 52" width="52" height="52" id="flip-arrows" y="172.59" xmlns="http://www.w3.org/2000/svg"><path d="M16.6 10.7c.2 0 .4.1.5.3.1 2.4 0 2.4-2.4 3.3-2.7 1-5.3 2.3-7.1 4.9-1.5 2.1-1.3 4.7.1 6.8 2.1 3 5.1 4.3 8.6 4.9.3.1.6.1 1 .2.2 0 .4-.1.5-.3V26.4c0-.2.2-.4.4-.4.1 0 .2 0 .2.1 4.2 2.8 8.3 5.5 12.5 8.3.2.1.2.3.1.5 0 .1-.1.1-.1.1-4.2 2.8-8.3 5.5-12.4 8.3-.2.1-.4.1-.5-.1 0-.1-.1-.1-.1-.2v-3.6c0-.6-.2-.8-.8-1-5.3-1.1-10.2-3-14-7-3.5-3.8-4-8.8-.7-13.1 2.9-3.7 6.9-5.5 11.2-6.9.9-.3 2-.5 3-.7zM35.4 30.5c-.2-.1-.2-.4-.1-.6 0 0 0-.1.1-.1 1.5-1.1 3.2-2.1 4.5-3.4 2.9-3 2.6-6.4-.8-9.1-3.1-2.5-5.3-3.4-8.2-4-.2 0-.4.1-.5.3v3.5c0 .2-.2.4-.4.4-.1 0-.2 0-.2-.1-2.6-1.8-5.2-3.4-7.8-5.2-.2-.1-.2-.3-.1-.5 0-.1.1-.1.1-.1l7.8-5.2c.2-.1.4-.1.5.1 0 .1.1.1.1.2v2.4c0 .3.5.8.8.8 5.3.8 10.2 2.4 14.3 5.8 2.6 2.1 4.4 4.8 4.5 8.2.1 3.8-2 6.4-4.6 8.9-2 1.9-3.7 2-5.8.1-1.2-.8-2.8-1.5-4.2-2.4z"/></svg><svg viewBox="-1 -1 52 52" width="52" height="52" id="github-logo" x="52" y="172.59" xmlns="http://www.w3.org/2000/svg"><path d="M46.6 12.8c-2.2-3.9-5.3-7.1-9.1-9.3C33.7 1.1 29.5 0 25 0s-8.7 1.1-12.6 3.4c-3.8 2.2-6.9 5.5-9.1 9.3C1.1 16.7 0 21 0 25.6c0 5.6 1.6 10.6 4.8 15.1s7.3 7.5 12.3 9.3c.6.1 1 0 1.3-.2.3-.3.4-.6.4-1V47v-3l-.8.1c-.6.1-1.2.1-1.8.1-.8 0-1.5-.1-2.3-.2-.8-.1-1.5-.5-2.2-1-.7-.5-1.2-1.2-1.4-2.1l-.3-.8c-.3-.6-.6-1.2-1-1.7-.5-.6-.9-1-1.4-1.3l-.2-.1c-.2-.1-.3-.2-.4-.4-.1-.1-.2-.3-.3-.5-.1-.1 0-.3.2-.4.2-.1.5-.1.9-.1l.6.1c.4.1 1 .3 1.6.8.6.5 1.2 1 1.6 1.7.5.9 1.1 1.6 1.8 2.1s1.4.7 2.1.7c.6 0 1.2 0 1.9-.2.5-.1 1-.3 1.5-.5.2-1.5.7-2.6 1.6-3.4-1.1-.1-2.2-.3-3.3-.6C16 36 15 35.6 14 35c-1-.6-1.9-1.3-2.6-2.2-.7-.9-1.3-2.1-1.7-3.5-.4-1.4-.7-3.1-.7-5 0-2.7.9-5 2.6-6.9-.8-2-.7-4.3.2-6.8.6-.2 1.6 0 2.8.4 1.2.5 2.1.9 2.7 1.3.6.3 1 .6 1.4.9 4.1-1.2 8.4-1.2 12.5 0l1.2-.8c1-.6 2-1.1 3-1.5 1.1-.4 2-.6 2.6-.4 1 2.5 1.1 4.8.3 6.8 1.7 1.9 2.6 4.2 2.6 6.9 0 1.9-.2 3.6-.7 5-.4 1.5-1 2.6-1.7 3.5-.7.9-1.6 1.7-2.6 2.2-1 .6-2 1-3.1 1.3-1.1.3-2.2.5-3.3.6 1.1 1 1.7 2.6 1.7 4.7v7c0 .4.1.7.4 1 .3.3.7.3 1.3.2 5-1.7 9.1-4.8 12.3-9.3 3.2-4.5 4.8-9.5 4.8-15.1 0-4.3-1.1-8.6-3.4-12.5z"/></svg><svg viewBox="-1 -1 52 52" width="52" height="52" id="grid" x="104" y="172.59" xmlns="http://www.w3.org/2000/svg"><path d="M.8 0h20.4c.4 0 .8.4.8.8v20.4c0 .4-.4.8-.8.8H.8c-.4 0-.8-.4-.8-.8V.8C0 .4.4 0 .8 0zM28.8 0h20.4c.5 0 .8.4.8.8v20.4c0 .4-.3.8-.8.8H28.8c-.4 0-.8-.4-.8-.8V.8c0-.4.4-.8.8-.8zM.8 28h20.4c.4 0 .8.4.8.8v20.4c0 .4-.4.8-.8.8H.8c-.4 0-.8-.3-.8-.8V28.8c0-.4.4-.8.8-.8zM28.8 28h20.4c.4 0 .8.4.8.8v20.4c0 .4-.3.8-.8.8H28.8c-.4 0-.8-.3-.8-.8V28.8c0-.4.4-.8.8-.8z"/></svg><svg viewBox="-1 -1 52 52" width="52" height="52" id="heart-fill" x="156" y="172.59" xmlns="http://www.w3.org/2000/svg"><path d="M46 7.1c-2.6-2.8-6.1-4.4-10-4.4-2.9 0-5.5.9-7.9 2.7-1.2 1-2.3 2.1-3.2 3.3-.9-1.3-2-2.4-3.2-3.3-2.3-1.8-5-2.7-7.9-2.7-3.9 0-7.4 1.5-10 4.4-2.6 2.8-4 6.6-4 10.7C0 22 1.6 25.9 5 30c3 3.7 7.4 7.4 12.4 11.7 1.7 1.5 3.7 3.1 5.7 4.9 1.1 1 2.8 1 3.9 0 2-1.8 4-3.4 5.7-4.9 5-4.3 9.4-8 12.4-11.7 3.4-4.1 5-8 5-12.2-.1-4.1-1.5-7.9-4.1-10.7z"/></svg><svg viewBox="-1 -1 52 52" width="52" height="52" id="heart-outline" x="208" y="172.59" xmlns="http://www.w3.org/2000/svg"><path d="M25 47.5c-.7 0-1.4-.3-1.9-.7-2-1.8-4-3.5-5.7-4.9C12.3 37.5 8 33.7 5 30c-3.4-4.1-5-8-5-12.3 0-4.2 1.4-8 4-10.8 2.6-2.8 6.1-4.4 10-4.4 2.9 0 5.5.9 7.9 2.7 1.2 1 2.3 2.1 3.2 3.4.9-1.3 2-2.4 3.2-3.4 2.3-1.8 5-2.7 7.9-2.7 3.9 0 7.4 1.6 10 4.4 2.6 2.8 4 6.6 4 10.8 0 4.3-1.6 8.2-5 12.3-3 3.7-7.4 7.4-12.4 11.8-1.7 1.5-3.7 3.2-5.7 5-.7.4-1.4.7-2.1.7zm-11-42c-3 0-5.8 1.2-7.8 3.4C4.1 11.2 3 14.3 3 17.7c0 3.6 1.3 6.8 4.3 10.4 2.9 3.5 7.1 7.2 12.1 11.4 1.7 1.5 3.7 3.2 5.7 5 2.1-1.8 4-3.5 5.7-5 4.9-4.3 9.2-7.9 12.1-11.4 3-3.6 4.3-6.8 4.3-10.4 0-3.4-1.1-6.5-3.2-8.8-2-2.2-4.8-3.4-7.8-3.4-2.2 0-4.3.7-6.1 2.1-1.6 1.3-2.7 2.8-3.4 3.9-.5.9-1.7 1.2-2.5.7-.3-.2-.5-.4-.6-.7-.7-1.1-1.8-2.7-3.4-3.9-2-1.4-4-2.1-6.2-2.1z"/></svg><svg viewBox="-1 -1 52 52" width="52" height="52" id="house" x="268" xmlns="http://www.w3.org/2000/svg"><path d="M49.6 22.6L26.1.5 26 .4c-.5-.5-1.3-.5-1.9 0L.6 22.4C0 23 0 23.9.5 24.5c.5.6 1.4.6 1.9.1l4.2-4v25.7c0 2 1.6 3.7 3.5 3.7h7.4c1.8 0 3.3-1.5 3.3-3.4V33.5c0-.3.2-.5.5-.5h7.5c.3 0 .5.2.5.5v13.1c0 1.9 1.5 3.4 3.3 3.4H40c2 0 3.5-2 3.5-4.6V20.8l4.2 4c.6.5 1.5.5 2-.1.6-.7.5-1.6-.1-2.1zm-8.8 7.1v15.6c0 1.1-.5 1.7-.7 1.7h-7.4c-.3 0-.5-.2-.5-.5v-13c0-1.9-1.5-3.4-3.3-3.4h-7.5c-1.8 0-3.3 1.5-3.3 3.4v13.1c0 .3-.2.5-.5.5h-7.4c-.4 0-.7-.3-.7-.8V18L25 3.4l15.8 14.8v11.5z"/></svg><svg viewBox="-1 -1 52 52" width="52" height="52" id="instagram-logo" x="268" y="52" xmlns="http://www.w3.org/2000/svg"><path d="M36.2 0H13.8C6.2 0 0 6.2 0 13.8v22.4C0 43.8 6.2 50 13.8 50h22.4C43.8 50 50 43.8 50 36.2V13.8C49.9 6.2 43.8 0 36.2 0zm9.3 36.2c0 5.2-4.2 9.3-9.4 9.3H13.8c-5.2 0-9.4-4.2-9.4-9.3V13.8c0-5.2 4.2-9.4 9.4-9.4h22.4c5.2 0 9.3 4.2 9.4 9.4l-.1 22.4z"/><path d="M25 12.1c-7.1 0-12.8 5.8-12.8 12.9S17.9 37.9 25 37.9 37.9 32.1 37.9 25c-.1-7.1-5.8-12.9-12.9-12.9zm0 21.3c-4.7 0-8.4-3.8-8.4-8.5s3.8-8.4 8.4-8.4 8.5 3.8 8.5 8.5c-.1 4.6-3.9 8.4-8.5 8.4zM38.4 8.4c-1.8 0-3.3 1.4-3.3 3.3s1.5 3.3 3.3 3.3 3.3-1.4 3.3-3.3c0-.9-.3-1.7-1-2.3-.6-.7-1.5-1.1-2.3-1z"/></svg><svg viewBox="-1 -1 52 52" width="52" height="52" id="linkedin-logo" x="268" y="104" xmlns="http://www.w3.org/2000/svg"><path d="M46.3 0H3.7C1.7 0 0 1.6 0 3.6v42.8c0 2 1.7 3.6 3.7 3.6h42.6c2 0 3.7-1.6 3.7-3.6V3.6c0-2-1.7-3.6-3.7-3.6zM15.2 41.8H7.6V19.3h7.6v22.5zm-3.8-25.6c-2.6 0-4.2-1.7-4.2-3.9s1.7-3.9 4.3-3.9 4.2 1.7 4.2 3.9c-.1 2.2-1.7 3.9-4.3 3.9zm31 25.6h-7.6v-12c0-3-1.1-5.1-3.8-5.1-2.1 0-3.3 1.4-3.9 2.7-.2.5-.3 1.2-.3 1.8v12.6h-7.6s.1-20.5 0-22.6h7.6v3.2c1-1.5 2.8-3.7 6.8-3.7 5 0 8.7 3.2 8.7 10.2l.1 12.9zM26.8 22.6c.1-.1.1-.1 0 0z"/></svg><svg viewBox="-1 -1 52 52" width="52" height="52" id="list" x="268" y="156" xmlns="http://www.w3.org/2000/svg"><path d="M46.2 36.2H16.1c-2.1 0-3.8 1.7-3.8 3.8 0 2.1 1.7 3.8 3.8 3.8h30.1c2.1 0 3.8-1.7 3.8-3.8s-1.7-3.8-3.8-3.8zM46.2 21.2H16.1c-2.1 0-3.8 1.7-3.8 3.8 0 2.1 1.7 3.8 3.8 3.8h30.1c2.1 0 3.8-1.7 3.8-3.8 0-2.1-1.7-3.8-3.8-3.8zM16.1 13.7h30.1c2.1 0 3.8-1.7 3.8-3.8 0-2.1-1.7-3.8-3.8-3.8H16.1c-2.1 0-3.8 1.7-3.8 3.8 0 2.2 1.7 3.8 3.8 3.8z"/><circle cx="3.8" cy="10" r="3.8"/><circle cx="3.8" cy="25" r="3.8"/><circle cx="3.8" cy="40" r="3.8"/></svg><svg viewBox="-1 -1 52 52" width="52" height="52" id="location" y="224.59" xmlns="http://www.w3.org/2000/svg"><path d="M25 0C15 0 6.9 8.1 6.9 18.1c0 12.4 16.2 30.6 16.9 31.3.6.7 1.6.7 2.3.1l.1-.1c.7-.8 16.9-19 16.9-31.3C43.1 8.1 35 0 25 0zm0 27.2c-5 0-9.1-4.1-9.1-9.1S20 9 25 9s9.1 4.1 9.1 9.1-4.1 9.1-9.1 9.1z"/></svg><svg viewBox="-1 -1 52 52" width="52" height="52" id="logo" x="52" y="224.59" xmlns="http://www.w3.org/2000/svg"><path d="M50 15.6C50 23 44 29 36.5 29c-2.1 0-3.8-1.7-3.8-3.8s1.7-3.8 3.8-3.8c3.2 0 5.8-2.6 5.8-5.8s-2.6-5.8-5.8-5.8c-3.2 0-5.8 2.6-5.8 5.8v23.1c-.1 5.3-4.5 9.5-9.8 9.5-5.2-.1-9.4-4.3-9.5-9.5V15.6c0-1.1-.9-1.9-2-1.9-1 0-1.8.8-1.9 1.9v23.1c.1 2.1-1.6 3.9-3.7 3.9-2 0-3.7-1.6-3.8-3.8V15.6c-.1-5.3 4.1-9.7 9.5-9.8 5.3-.1 9.7 4.1 9.8 9.5V38.7c0 1.1.9 1.9 1.9 1.9s1.9-.9 1.9-1.9V15.6C23 8.1 28.9 2 36.3 1.9c7.5-.1 13.6 5.8 13.7 13.3v.4z"/></svg><svg baseProfile="tiny" viewBox="-1 -1 52 52" overflow="visible" width="52" height="52" id="logo-design" x="104" y="224.59" xmlns="http://www.w3.org/2000/svg"><path d="M48.3 0H1.7C.8 0 0 .8 0 1.7v46.6c0 .9.8 1.7 1.7 1.7h46.6c.9 0 1.7-.8 1.7-1.7V1.7c0-.9-.8-1.7-1.7-1.7zm.2 47.5l-5.4-5.4c2.4-2.6 4.3-5.6 5.4-8.9v14.3zM25 40.4c-.4 0-.7.3-.7.7v.8c0 .1 0 .2.1.3H10.2c-1.4 0-2.5-1.1-2.5-2.5v-14h16.6c0 .1-.1.2-.1.3v.8c0 .4.3.7.7.7.4 0 .7-.3.7-.7v-.1L40.9 42c-.3.2-.7.3-1.1.3H25.7c0-.1.1-.2.1-.3v-.8c-.1-.4-.4-.8-.8-.8zm0-31c.4 0 .7-.3.7-.7v-.8-.2h14.1c.4 0 .8.1 1.2.3l-3.2 3.2c-.3.3-.3.7 0 1 .1.1.3.2.5.2s.4-.1.5-.2L42 9c.2.3.3.7.3 1.1v14.1H25.6c.1-.1.2-.3.2-.5V23c0-.4-.3-.7-.7-.7-.4 0-.7.3-.7.7v.2l-12-11.8c-.3-.3-.7-.3-1 0s-.3.7 0 1l11.9 11.9H7.7V10.2c0-1.4 1.1-2.5 2.5-2.5h14.1v1c0 .4.3.7.7.7zm1.8 16.3h15.5v14c0 .4-.1.8-.3 1.2L26.8 25.7zm16.9-14.8c3 3.9 4.7 8.8 4.7 14.1s-1.8 10.2-4.7 14.1V10.9zm-1.6-4c-2.6-2.4-5.6-4.3-8.9-5.4h14.3l-5.4 5.4zm-3-.7H10.9c3.9-2.9 8.8-4.7 14.1-4.7s10.1 1.8 14.1 4.7zM6.3 39.1c-3-3.9-4.7-8.8-4.7-14.1s1.8-10.2 4.7-14.1v28.2zm32.8 4.6c-3.9 3-8.8 4.8-14.1 4.8s-10.2-1.8-14.1-4.8h28.2zm3-.6l5.4 5.4H33.2c3.3-1.1 6.3-2.9 8.9-5.4zm1-35.2l5.4-5.4v14.3c-1.1-3.3-2.9-6.3-5.4-8.9zM1.7 1.5h15.1c-3.5 1.2-6.7 3.2-9.4 5.9s-4.7 5.9-5.9 9.4V1.7c0-.1.1-.2.2-.2zm-.2 46.8V33.2c1.2 3.5 3.2 6.7 5.9 9.4s5.9 4.7 9.4 5.9H1.7c-.1 0-.2-.1-.2-.2z"/><path d="M25 36.6c.4 0 .7-.3.7-.7v-.8c0-.4-.3-.7-.7-.7s-.7.3-.7.7v.8c0 .4.3.7.7.7zM25 30.6c.4 0 .7-.3.7-.7v-.8c0-.4-.3-.7-.7-.7s-.7.3-.7.7v.8c0 .3.3.7.7.7zM25 33.6c.4 0 .7-.3.7-.7v-.8c0-.4-.3-.7-.7-.7s-.7.3-.7.7v.8c0 .4.3.7.7.7zM25 19.3c-.4 0-.7.3-.7.7v.8c0 .4.3.7.7.7s.7-.3.7-.7V20c0-.4-.3-.7-.7-.7zM24.3 11.7c0 .4.3.7.7.7.4 0 .7-.3.7-.7v-.8c0-.4-.3-.7-.7-.7-.4 0-.7.3-.7.7v.8zM25 13.2c-.4 0-.7.3-.7.7v.8c0 .4.3.7.7.7s.7-.3.7-.7v-.8c0-.4-.3-.7-.7-.7zM25 16.2c-.4 0-.7.3-.7.7v.8c0 .4.3.7.7.7s.7-.3.7-.7V17c0-.4-.3-.8-.7-.8zM25.7 38.1c0-.4-.3-.7-.7-.7s-.7.3-.7.7v.8c0 .4.3.7.7.7s.7-.3.7-.7v-.8z"/></svg><svg baseProfile="tiny" viewBox="-1 -1 52 52" overflow="visible" width="52" height="52" id="more" x="156" y="224.59" xmlns="http://www.w3.org/2000/svg"><path d="M25 50C11.2 50 0 38.8 0 25S11.2 0 25 0s25 11.2 25 25-11.2 25-25 25zm0-46.9C12.9 3.1 3.1 12.9 3.1 25S12.9 46.9 25 46.9 46.9 37.1 46.9 25 37.1 3.1 25 3.1z"/><path d="M35.9 26.6H14.1c-.9 0-1.6-.7-1.6-1.6s.7-1.6 1.6-1.6H36c.9 0 1.6.7 1.6 1.6s-.8 1.6-1.7 1.6z"/><path d="M25 37.5c-.9 0-1.6-.7-1.6-1.6V14.1c0-.9.7-1.6 1.6-1.6s1.6.7 1.6 1.6V36c0 .8-.7 1.5-1.6 1.5z"/></svg><svg baseProfile="tiny" viewBox="-1 -1 52 52" overflow="visible" width="52" height="52" id="outdoor-advertising" x="208" y="224.59" xmlns="http://www.w3.org/2000/svg"><path d="M49.2 46.8h-7.3V33.9h5.6c.4 0 .8-.4.8-.8V8.9c0-.4-.4-.8-.8-.8h-7.3V6.5h3.2c.4 0 .8-.4.8-.8V2.4c0-.4-.4-.8-.8-.8h-8.1c-.4 0-.8.4-.8.8v3.2c0 .4.4.8.8.8h3.2V8H25.8V6.5H29c.4 0 .8-.4.8-.8V2.4c0-.4-.4-.8-.8-.8h-8c-.4 0-.8.4-.8.8v3.2c0 .4.4.8.8.8h3.2V8H11.3V6.5h3.2c.4 0 .8-.4.8-.8V2.4c0-.4-.4-.8-.8-.8h-8c-.5 0-.9.4-.9.8v3.2c0 .4.4.8.8.8h3.2V8H2.4c-.4.1-.8.4-.8.9v24.2c0 .4.4.8.8.8H8v12.9H.8c-.4 0-.8.4-.8.8s.4.8.8.8h48.4c.4 0 .8-.4.8-.8 0-.5-.4-.8-.8-.8zm-12.9-42V3.2h6.5v1.6h-6.5zm-14.5 0V3.2h6.5v1.6h-6.5zm-14.5 0V3.2h6.5v1.6H7.3zm4 42H9.7V33.9h1.6v12.9zm25.8 0H12.9V33.9h24.2v12.9zm3.2 0h-1.6V33.9h1.6v12.9zM3.2 32.3V9.7h43.5v22.6H3.2z"/><path d="M33.1 25.8h12.1c.4 0 .8-.4.8-.8s-.4-.8-.8-.8H33.1c-.4 0-.8.4-.8.8s.3.8.8.8zM45.2 26.6h-9.7c-.4 0-.8.4-.8.8s.4.8.8.8h9.7c.4 0 .8-.4.8-.8s-.4-.8-.8-.8zM45.2 29h-4c-.4 0-.8.4-.8.8s.4.8.8.8h4c.4 0 .8-.4.8-.8s-.4-.8-.8-.8zM38.7 29h-.8c-.4 0-.8.4-.8.8s.4.8.8.8h.8c.4 0 .8-.4.8-.8s-.3-.8-.8-.8z"/></svg><svg baseProfile="tiny" viewBox="-1 -1 52 52" overflow="visible" width="52" height="52" id="package-branding" x="260" y="224.59" xmlns="http://www.w3.org/2000/svg"><path d="M17.5 28.6H4.2c-.5 0-.8.4-.8.8v13.3c0 .5.4.8.8.8h13.3c.5 0 .8-.4.8-.8V29.4c0-.4-.3-.8-.8-.8zm-.8 13.3H5V30.3h11.7v11.6z"/><path d="M43.2 0H10.8c-.4 0-.8.4-.8.8v15.8H4.2c-.5 0-.8.4-.8.8v3.3c0 1-.5 1.9-1.4 2.4-1.3.8-2 2.5-2 4.8V49c0 .6.4 1 .8 1h48.3c.5 0 .8-.4.8-.8V6.8C50 3 47 0 43.2 0zM5 18.3h11.7v2.5H5v-2.5zm15 17.5v12.5H1.7V28.1c0-1.7.4-2.9 1.2-3.4.8-.5 1.4-1.3 1.8-2.1H17c.4.9 1 1.6 1.8 2.1s1.2 1.7 1.2 3.4v7.7zm-.3-12.6c-.8-.5-1.3-1.4-1.4-2.4v-3.3c0-.5-.4-.8-.8-.8h-.8V15h26.7v20H21.7v-6.9c0-2.4-.7-4-2-4.9zM48.3 8.3v40H21.7V36.7h22.5c.5 0 .8-.4.8-.8V14.2c0-.5-.4-.8-.8-.8H15.8c-.5 0-.8.4-.8.8v2.5h-3.3V8.3H40V6.7H11.7v-5h31.6c2.8 0 5 2.2 5.1 5H45v1.7h3.3z"/><path d="M25.8 27.4l-.7 4.4c-.1.5.3.9.7.9.2 0 .3 0 .5-.1l3.7-2 3.7 2.1c.1.1.3.1.4.1.2 0 .3-.1.5-.1.3-.2.4-.5.3-.8l-.7-4.4 3-3.1c.2-.2.3-.5.2-.8-.1-.3-.4-.5-.7-.6l-4.2-.6-1.9-4c-.2-.4-.7-.6-1.1-.4-.2.1-.3.2-.4.4l-1.9 4-4.2.6c-.3 0-.6.3-.7.6-.1.3 0 .6.2.8l3.3 3zm2.3-3.6c.3 0 .5-.2.6-.5l1.3-2.8 1.3 2.8c.1.3.4.4.6.5l3 .5-2.2 2.2c-.2.2-.3.5-.2.7l.5 3.1-2.6-1.5c-.3-.1-.6-.1-.8 0L27 30.3l.6-3.1c0-.3 0-.5-.2-.7l-2.2-2.3 2.9-.4zM8.3 37.3l-.3 2c-.1.5.3.9.7.9.2 0 .3 0 .5-.1l1.7-.9 1.7.9c.1.1.3.1.4.1.5 0 .8-.4.8-.8v-.1l-.3-2 1.4-1.4c.3-.3.3-.9 0-1.2-.1-.1-.3-.2-.4-.2l-1.9-.3-.8-1.8c-.2-.4-.7-.6-1.1-.4-.2.1-.3.2-.4.4l-.8 1.8-1.9.3c-.5.1-.8.5-.7 1 0 .2.1.3.2.4l1.2 1.4zm1.6-1.5c.3 0 .5-.2.6-.5l.3-.6.3.6c.1.2.4.4.6.5l.7.1-.5.5c-.2.2-.3.5-.2.7l.1.7-.6-.3c-.3-.1-.6-.1-.8 0l-.6.3.1-.7c0-.3 0-.5-.2-.7l-.5-.5.7-.1zM41.7 6.9h1.7v1.7h-1.7z"/></svg><svg viewBox="-1 -1 52 52" width="52" height="52" id="pdf" x="320" xmlns="http://www.w3.org/2000/svg"><path d="M23 15.6c.3-1.1.6-1.7.6-2.5v-.5c.3-1.4.3-2.5 0-2.8v-.4l-.3-.3c0 .1-.1.3-.3.3-.5 1.7-.5 3.6 0 6.2zm-8.3 19.1c-.6.3-1.1.6-1.4.8-1.9 1.7-3.3 3.6-3.6 4.4 1.7-.2 3.3-1.8 5-5.2zm25.6-4.1c-.3-.3-1.4-1.1-5.3-1.1h-.6v.3c1.9.8 3.9 1.4 5.3 1.4h.8v-.3c-.1-.1-.2-.2-.2-.3zM44.4 0H5.6C2.5 0 0 2.5 0 5.6v38.9c0 3 2.5 5.5 5.6 5.5h38.9c3.1 0 5.6-2.5 5.6-5.6V5.6C50 2.5 47.5 0 44.4 0zm-3 32.8c-.8.4-1.6.6-2.5.6-2.2 0-5.6-.6-8.3-1.9-4.7.6-8.3 1.1-11.1 2.2-.3 0-.3 0-.6.3-3.3 5.8-6.1 8.6-8.3 8.6-.5 0-.8 0-1.1-.3l-1.3-.8v-.3c-.3-.6-.3-.8-.3-1.4.3-1.4 1.9-3.9 5.3-5.8.5-.3 1.4-.8 2.5-1.4.8-1.4 1.7-3 2.8-5 1.4-2.8 2.2-5.6 3-8.1-1.1-3.3-1.7-5.3-.6-9.1.3-1.1 1.1-2.2 2.2-2.2h.6c.6 0 1.1.3 1.7.5 1.9 1.9 1.1 6.4 0 10v.3c1.1 3 2.8 5.6 4.4 7.2.8.6 1.4 1.1 2.5 1.7 1.4 0 2.5-.3 3.6-.3 3.3 0 5.6.6 6.4 1.9.3.6.3 1.1.3 1.7-.4.2-.7 1-1.2 1.6zM23.3 21.9c-.6 1.9-1.7 4.2-2.8 6.7-.6 1.1-1.1 1.9-1.7 3h.6c3.6-1.4 6.9-2.2 9.2-2.5-.4-.2-.8-.5-1.1-.8-1.4-1.6-3.1-3.9-4.2-6.4z"/></svg><svg viewBox="-1 -1 52 52" width="52" height="52" id="pencil" x="320" y="52" xmlns="http://www.w3.org/2000/svg"><path d="M48.2 15.1L46 17.3 32.7 4l2.2-2.2c2.4-2.4 6.4-2.4 8.8 0l4.4 4.4c2.5 2.5 2.5 6.4.1 8.9zm-31 26.5c-.6.6-.6 1.6 0 2.2.6.6 1.6.6 2.2 0l24.3-24.3-2.2-2.2-24.3 24.3zm-11-11c-.6.6-.6 1.6 0 2.2.6.6 1.6.6 2.2 0L32.7 8.5l-2.2-2.2L6.2 30.6zm28.7-19.9L10.6 35c-1.2 1.2-1.2 3.2 0 4.4 1.2 1.2 3.2 1.2 4.4 0l24.3-24.3-4.4-4.4zM15 46c-.7-.7-1.1-1.7-1.2-2.7-.3.1-.6.1-1 .1-3.4.1-6.2-2.6-6.2-6 0-.4 0-.8.1-1.2-1-.1-2-.6-2.7-1.3-.1-.1-.1-.2-.2-.2L0 50l15.2-3.8c0-.1-.1-.1-.2-.2z"/></svg><svg viewBox="-1 -1 52 52" width="52" height="52" id="phone" x="320" y="104" xmlns="http://www.w3.org/2000/svg"><path d="M48.9 39.5l-7.7-7.7c-1.5-1.5-4.1-1.5-5.7.1l-3.9 3.9-.8-.4c-2.5-1.4-5.8-3.2-9.4-6.8-3.5-3.5-5.4-6.9-6.8-9.4-.1-.3-.3-.5-.4-.8l2.6-2.6 1.3-1.3c1.6-1.6 1.6-4.2.1-5.7l-7.7-7.7C9-.4 6.5-.4 4.9 1.2L2.7 3.4l.1.1c-.8.9-1.4 2-1.8 3.2-.4 1-.7 2.1-.8 3.2-1 8.5 2.8 16.2 13.3 26.7C28 51.1 39.6 50 40.2 50c1.1-.1 2.2-.4 3.2-.8 1.1-.4 2.2-1 3.2-1.8l2.2-2.2c1.6-1.6 1.6-4.1.1-5.7z"/></svg><svg viewBox="-1 -1 52 52" width="52" height="52" id="plus" x="320" y="156" xmlns="http://www.w3.org/2000/svg"><path d="M43.4 18.3H31.7V6.6C31.7 3 28.7 0 25 0s-6.7 3-6.7 6.7v11.7H6.6C3 18.3 0 21.3 0 25s3 6.6 6.6 6.6h11.7v11.8c0 3.7 3 6.6 6.6 6.6 3.7 0 6.6-3 6.6-6.6V31.6h11.8c3.7 0 6.6-3 6.6-6.6.1-3.6-2.9-6.6-6.5-6.7z"/></svg><svg version="1.1" id="quotes" x="320" y="208" viewBox="-1 -1 52 52" xml:space="preserve" width="52" height="52" xmlns="http://www.w3.org/2000/svg"><style>.bhst0{fill:#030104}</style><path class="bhst0" d="M9.6 3.3C4.2 3.4-.1 7.8 0 13.2c-.1 5.4 4.2 9.8 9.6 9.9 9.6 0 3.2 19.1-9.6 19.1v4.6c22.8-.1 31.8-43.5 9.6-43.5zm27.6 0c-5.4.1-9.7 4.5-9.6 9.9-.1 5.4 4.2 9.8 9.6 9.9 9.6 0 3.2 19.1-9.6 19.1v4.6c22.9-.1 31.8-43.5 9.6-43.5z"/></svg><svg viewBox="-1 -1 52 52" width="52" height="52" id="replay" y="276.59000000000003" xmlns="http://www.w3.org/2000/svg"><path d="M50 4.2v14.6c0 .6-.2 1.1-.6 1.5-.4.4-.9.6-1.5.6H33.3c-.9 0-1.6-.4-1.9-1.3-.4-.8-.2-1.6.5-2.2l4.5-4.5c-3.2-3-7-4.5-11.4-4.5-2.2 0-4.4.4-6.5 1.3-4 1.7-7.2 4.9-8.9 8.9-1.8 4.1-1.8 8.8 0 12.9 1.7 4 4.9 7.2 8.9 8.9 2 .9 4.2 1.3 6.5 1.3 5.2 0 10-2.4 13.2-6.5.2-.2.4-.3.7-.4.3 0 .6.1.8.3l4.5 4.5c.2.2.3.4.3.7 0 .3-.1.5-.2.7-2.3 2.8-5.3 5.1-8.6 6.7-3.3 1.6-7 2.4-10.6 2.4-3.3 0-6.6-.7-9.7-2-3.1-1.3-5.7-3.1-8-5.3s-4-4.9-5.3-8c-2.7-6.2-2.7-13.2 0-19.4 1.3-3.1 3.1-5.7 5.3-8s4.9-4 8-5.3c6-2.6 12.9-2.7 19-.2 3 1.2 5.7 2.9 8 5.1l4.2-4.2c.6-.7 1.4-.8 2.3-.5.7.3 1.1 1 1.1 1.9z"/></svg><svg viewBox="-1 -1 52 52" width="52" height="52" id="search" x="52" y="276.59000000000003" xmlns="http://www.w3.org/2000/svg"><path d="M33.6 5.8c-7.7-7.7-20.1-7.7-27.8 0s-7.7 20.1 0 27.8c6.7 6.7 17.3 7.7 25.2 2.3.2.8.6 1.5 1.1 2.1l11.2 11.2c1.8 1.4 4.4 1.1 5.8-.7 1.2-1.5 1.2-3.6 0-5.1L37.9 32.1c-.6-.6-1.3-1-2.1-1.1 5.5-7.9 4.6-18.5-2.2-25.2zm-3.5 24.3c-5.7 5.7-15 5.7-20.8 0s-5.7-15 0-20.8c5.7-5.7 15-5.7 20.8 0 5.7 5.7 5.7 15 0 20.8z"/></svg><svg viewBox="-1 -1 52 52" width="52" height="52" id="skype-logo" x="104" y="276.59000000000003" xmlns="http://www.w3.org/2000/svg"><path d="M47.8 28.6c.2-1.2.3-2.4.3-3.6 0-12.8-10.4-23.2-23.2-23.2-1.2 0-2.4.1-3.6.3C14.8-2 6.1.1 2.1 6.7c-2.8 4.5-2.8 10.2 0 14.7-.2 1.2-.3 2.4-.3 3.6 0 12.8 10.4 23.2 23.2 23.2 1.2 0 2.4-.1 3.6-.3 6.6 4.1 15.2 2 19.3-4.5 2.7-4.6 2.7-10.3-.1-14.8zM36 35.5c-1 1.4-2.4 2.5-4.3 3.3-1.9.8-4.2 1.2-6.7 1.2-3.1 0-5.6-.5-7.7-1.6-1.4-.7-2.6-1.8-3.5-3.1-.9-1.3-1.3-2.6-1.3-3.8 0-.7.3-1.4.8-1.9.6-.5 1.2-.8 2.1-.8.6 0 1.2.2 1.8.6.5.4.9 1 1.2 1.8.3.8.8 1.6 1.3 2.3.5.6 1.2 1.2 1.9 1.5.8.4 1.9.6 3.2.6 1.9 0 3.3-.4 4.5-1.2 1.1-.8 1.7-1.8 1.7-2.9 0-.9-.3-1.7-.9-2.2-.6-.6-1.4-1-2.4-1.3s-2.3-.6-4-1c-2.2-.5-4.1-1.1-5.6-1.7s-2.7-1.6-3.6-2.7c-.9-1.1-1.3-2.6-1.3-4.2s.5-3.1 1.4-4.3c.9-1.2 2.3-2.2 4.1-2.9 1.8-.7 3.9-1 6.3-1 1.9 0 3.6.2 5 .7 1.4.4 2.6 1 3.5 1.8.9.7 1.6 1.5 2 2.3.4.8.6 1.6.6 2.4 0 .7-.3 1.4-.8 1.9-.5.6-1.3.9-2.1.9-.7 0-1.3-.2-1.7-.5-.4-.4-.8-.9-1.2-1.7-.6-1.1-1.2-1.9-2-2.5-.8-.6-2-.9-3.8-.9-1.6 0-2.9.3-3.9 1s-1.4 1.4-1.5 2.3c0 .5.2 1 .5 1.4.4.4.8.8 1.4 1 .6.3 1.2.5 1.8.7.6.2 1.6.4 3 .7 1.8.4 3.3.8 4.8 1.2 1.4.5 2.6 1 3.6 1.7 1 .6 1.8 1.5 2.4 2.5.6 1 .9 2.3.9 3.7-.1 1.7-.6 3.3-1.5 4.7z"/></svg><svg baseProfile="tiny" viewBox="-1 -1 52 52" overflow="visible" width="52" height="52" id="social-media" x="156" y="276.59000000000003" xmlns="http://www.w3.org/2000/svg"><path d="M40.2 11.8c.4.2.8.2 1.2 0l3.2-1.8c.4-.2.6-.6.6-1s-.2-.8-.6-1l-3.2-1.8c-.4-.2-.8-.2-1.2 0-.4.2-.6.6-.6 1v3.7c.1.3.3.7.6.9zm.9-4.2l2.3 1.3-2.3 1.3V7.6zM47.2 17.4H37.1c-1.1 0-1.9.9-1.9 1.9v10.2c0 1.1.9 1.9 1.9 1.9h10.2c1.1 0 1.9-.9 1.9-1.9V19.4c0-1.1-.9-2-2-2zm.5 12.1c0 .3-.2.5-.5.5H37.1c-.3 0-.5-.2-.5-.5V19.4c0-.3.2-.5.5-.5h10.2c.3 0 .5.2.5.5v10.1z"/><path d="M42.2 22.3c-1.8 0-3.3 1.5-3.3 3.3 0 1.8 1.5 3.3 3.3 3.3s3.3-1.5 3.3-3.3c-.1-1.8-1.5-3.3-3.3-3.3zm0 5.1c-1 0-1.8-.8-1.8-1.8s.8-1.8 1.8-1.8 1.8.8 1.8 1.8-.8 1.8-1.8 1.8zM45.6 20c-.4 0-.7.3-.7.7v.6c0 .4.3.7.7.7.4 0 .7-.3.7-.7v-.6c.1-.4-.3-.7-.7-.7zM41.3 41.5c-.1.1-.2.1-.2 0l-.4-.4c-.3-.3-.7-.3-1 0-.3.3-.3.7 0 1l.4.4c.6.6 1.7.6 2.3 0l2.1-2.1c.6-.6.6-1.7 0-2.3l-.5-.4c-.3-.3-.7-.3-1 0-.3.3-.3.7 0 1l.4.4c.1.1.1.2 0 .2l-2.1 2.2zM25.4 11.9c-.4 0-.7.3-.7.7v.4l-4.3 1.8c0-.4-.3-.7-.7-.7-.4 0-.7.3-.7.7v.6l-3.3 1.4H7.5c-1.2 0-2.2 1-2.2 2.2v.2h-.9c0-.4-.3-.7-.7-.7-.4-.2-.7.1-.7.5v.1c-1.7.3-3 1.8-3 3.6s1.3 3.2 3 3.6v.1c0 .4.3.7.7.7.4 0 .7-.3.7-.7h.9v.2c0 .6.2 1.1.6 1.5.4.4.9.6 1.5.6h.2v2.4c0 .4.3.7.7.7.4 0 .7-.3.7-.7v-2.4h3.6V31s0 .1-.1.1l-1.1.5c-.5.3-.9.8-.9 1.4v3.2c0 .3-.2.6-.6.6h-.3c-.3 0-.6-.2-.6-.6v-1.9c0-.4-.3-.7-.7-.7-.4 0-.7.3-.7.7v1.9c0 1.1.9 2 2 2h.4c1.1 0 2-.9 2-2V33s0-.1.1-.1l1.1-.5c.5-.3.9-.8.9-1.4v-2.3h1.6L19 30v.6c0 .4.3.7.7.7.4 0 .7-.3.7-.7l4.3 1.8v.4c0 .4.3.7.7.7.4 0 .7-.3.7-.7V12.6c.1-.4-.3-.7-.7-.7zm-16 6.3h3v1c0 .3-.2.5-.5.5H10c-.3 0-.5-.2-.5-.5l-.1-1zm-7.9 4.5c0-1 .6-1.8 1.5-2.1v4.1c-.9-.2-1.5-1.1-1.5-2zm2.9 2.1v-4.3h.9v4.3h-.9zM6.9 27c-.1-.1-.2-.3-.2-.5v-7.6c0-.2.1-.4.2-.5s.3-.2.5-.2h.5v1c0 1.1.9 2 2 2h1.9c1.1 0 2-.9 2-2v-1h1.3v9H7.4c-.2 0-.3-.1-.5-.2zm9.7.4v-9.5l2.4-1v11.5l-2.4-1zm3.8 1.6V16.3l4.3-1.8v16.2L20.4 29zM32 22h-2.9c-.4 0-.7.3-.7.7 0 .4.3.7.7.7H32c.4 0 .7-.3.7-.7.1-.4-.3-.7-.7-.7zM28.7 16.5l2.1-2.1c.3-.3.3-.7 0-1-.3-.3-.7-.3-1 0l-2.1 2.1c-.3.3-.3.7 0 1 .3.3.7.3 1 0zM28.7 28.8c-.3-.3-.7-.3-1 0-.3.3-.3.7 0 1l2.1 2.1c.3.3.7.3 1 0 .3-.3.3-.7 0-1l-2.1-2.1z"/><path d="M42.2 33.2c-3.9 0-7 3.1-7 7 0 1.1.3 2.2.7 3.1l-.7 2.7c-.1.3 0 .5.2.7.2.2.5.3.7.2l2.5-.7c1.1.7 2.3 1 3.6 1 1.6 0 3.1-.5 4.3-1.5.3-.2.4-.7.1-1-.2-.3-.7-.4-1-.1-1 .8-2.2 1.2-3.4 1.2-1.1 0-2.2-.3-3.1-.9-.2-.1-.4-.2-.6-.1l-1.6.4.5-1.7c0-.2 0-.4-.1-.5-.5-.8-.7-1.7-.7-2.7 0-3.1 2.5-5.5 5.5-5.5 3.1 0 5.5 2.5 5.5 5.5 0 .8-.2 1.6-.5 2.3-.2.4 0 .8.4 1 .4.2.8 0 1-.4.4-.9.6-1.9.6-2.9.1-3.9-3.1-7.1-6.9-7.1zM47.8 2.8H41c-.4 0-.7.3-.7.7s.3.7.7.7h6.8c.4 0 .7.3.7.7v8c0 .4-.3.7-.7.7H36.5c-.4 0-.7-.3-.7-.7v-8c0-.4.3-.7.7-.7h1.7c.4 0 .7-.3.7-.7s-.3-.7-.7-.7h-1.7c-1.2 0-2.2 1-2.2 2.2v8c0 1.2 1 2.2 2.2 2.2h11.4c1.2 0 2.2-1 2.2-2.2V5C50 3.7 49 2.8 47.8 2.8z"/></svg><svg viewBox="-1 -1 52 52" width="52" height="52" id="speaking" x="208" y="276.59000000000003" xmlns="http://www.w3.org/2000/svg"><path d="M21.4 41.4h-17V31.3c-5.5-5.2-5.9-13.8-.7-19.3s13.7-5.9 19.3-.8c1.9 1.7 3.2 4 3.9 6.4l.1.2.1 2.2 4.1 5.8-3.6 2.6v2c0 2.4-2 4.4-4.4 4.4h-1.7l-.1 6.6zM7.8 37.9H18v-6.4h5.1c.5 0 1-.4 1-1v-3.8l2.3-1.7-2.7-3.8-.1-2.9c-1.6-5.4-7.3-8.6-12.7-7s-8.6 7.3-7 12.7c.6 2 1.7 3.8 3.4 5.1l.6.5c-.1.1-.1 8.3-.1 8.3zM35 32l-2.4-2.4c1.5-1.6 1.5-4.1 0-5.6l2.4-2.4c2.8 2.9 2.8 7.5 0 10.4z"/><path d="M39.6 35.7l-2.4-2.4c3.6-3.6 3.6-9.3 0-12.9l2.4-2.4c4.9 4.8 4.9 12.8 0 17.7z"/><path d="M44.9 39.1l-2.4-2.4c5.5-5.5 5.5-14.3 0-19.8l2.4-2.4c6.8 6.8 6.8 17.8 0 24.6z"/></svg><svg viewBox="-1 -1 60 68.59" width="60" height="68.59" id="video-edit" xmlns="http://www.w3.org/2000/svg"><path d="M49.28 27.87c-1.13-1.13-3.09-1.13-4.22 0l-15.4 15.39-2.12 7.78-.52.52c-.39.39-.39 1.01-.01 1.41l-.01.02.02-.01a1.001 1.001 0 001.41 0l.52-.52 7.78-2.12 15.39-15.39a2.994 2.994 0 000-4.22l-2.84-2.86zM31.97 43.78l10.24-10.24 4.24 4.24-10.23 10.25-4.25-4.25zm-.9 1.93l3.22 3.22-4.43 1.21 1.21-4.43zm19.64-12.18l-2.84 2.84-4.24-4.24 2.84-2.84a1.01 1.01 0 011.39 0l2.85 2.85c.39.38.39 1.01 0 1.39zM37 23c0-.34-.17-.66-.46-.84l-11-7c-.31-.2-.7-.21-1.02-.03-.32.17-.52.5-.52.87v14c0 .37.2.7.52.88a1.005 1.005 0 001.02-.04l11-7c.29-.18.46-.5.46-.84zm-11 5.18V17.82L34.14 23 26 28.18z"/><path d="M57 0H1C.45 0 0 .45 0 1v44c0 .55.45 1 1 1h22c.55 0 1-.45 1-1s-.45-1-1-1H12V2h34v21c0 .55.45 1 1 1h9v8c0 .55.45 1 1 1s1-.45 1-1V1c0-.55-.45-1-1-1zM2 24h8v9H2v-9zm8-2H2v-9h8v9zM2 44v-9h8v9H2zm8-33H2V2h8v9zm46-9v9h-8V2h8zm-8 20v-9h8v9h-8z"/><text y="68.27" font-size="5" font-weight="bold" font-family="'Helvetica Neue', Helvetica, Arial-Unicode, Arial, Sans-serif">Created by Ben Davis</text><text y="73.27" font-size="5" font-weight="bold" font-family="'Helvetica Neue', Helvetica, Arial-Unicode, Arial, Sans-serif">from the Noun Project</text></svg><svg baseProfile="tiny" viewBox="-1 -1 52 52" overflow="visible" width="52" height="52" id="web-design" x="260" y="276.59000000000003" xmlns="http://www.w3.org/2000/svg"><path d="M21.1 50l-5.6-5.6 5.6-5.6 1.1 1.1-4.4 4.5 4.4 4.4z"/><path d="M44.3 0H5.7C3.4 0 1.5 1.8 1.5 4.2V41c0 2.3 1.8 4.2 4.2 4.2h8.2l-.8-.8.8-.8H5.7c-1.4 0-2.5-1.1-2.5-2.5V8.4h43.6V41c0 1.4-1.1 2.5-2.5 2.5h-8.2l.8.8-.8.8h8.2c2.3 0 4.2-1.8 4.2-4.2V4.2c0-2.4-1.9-4.2-4.2-4.2zM3.2 4.2c0-1.4 1.1-2.5 2.5-2.5h32.7v5H3.2V4.2zm36.9 2.5v-5h4.2c1.4 0 2.5 1.1 2.5 2.5v2.5h-6.7z"/><path d="M28.9 50l-1.1-1.2 4.4-4.4-4.4-4.5 1.1-1.1 5.6 5.6zM23.266 49.224l1.679-10.06 1.677.279-1.68 10.061zM4.9 11.7h35.2v1.7H4.9zM4.9 16.8h40.2v1.7H4.9zM4.9 21.8h31.8v1.7H4.9zM4.9 26.8h35.2v1.7H4.9zM4.9 31.8h40.2v1.7H4.9z"/></svg></svg>