<?xml version="1.0" encoding="utf-8"?><svg width="636" height="550" viewBox="0 0 636 550" xmlns="http://www.w3.org/2000/svg" xmlns:xlink="http://www.w3.org/1999/xlink"><svg viewBox="-20 -20 90 90" width="90" height="90" id="arrow-top" x="96" xmlns="http://www.w3.org/2000/svg"><path d="M27.5 11.8L49 33.3c1.4 1.4 1.4 3.6 0 5s-3.6 1.4-4.9 0l-19-19-19 19c-1.4 1.4-3.6 1.4-4.9 0-1.4-1.4-1.4-3.6 0-5l21.5-21.5c.7-.7 1.6-1 2.5-1 .7-.1 1.6.3 2.3 1z"/></svg><svg viewBox="-20 -20 90 90" width="90" height="90" id="bin" x="270" y="279.7" xmlns="http://www.w3.org/2000/svg"><path d="M6.3 43.8c0 3.5 2.8 6.3 6.3 6.3h25c3.5 0 6.3-2.8 6.3-6.3V12.5H6.3v31.3zM31.3 3.1V0H18.8v3.1H3.1v6.3h43.8V3.1H31.3z"/></svg><svg viewBox="-20 -20 90 90" width="90" height="90" id="birthday" x="186" xmlns="http://www.w3.org/2000/svg"><path d="M45.2 29.2c-3 2-7.1 1.4-9.3-1.4-2.3 2.9-6.5 3.5-9.5 1.3-.5-.4-1-.8-1.4-1.3-2.3 2.9-6.5 3.5-9.5 1.3-.5-.4-1-.8-1.4-1.3-2.2 2.8-6.3 3.5-9.3 1.4v5.3c.8-.4 1.6-.6 2.5-.7 2.5-.3 4.5.2 6.7 1.2.9.4 2 1 3.1 1 1 0 1.8-.3 2.7-.7 1.8-.8 3.8-1.8 5.9-1.8 2.2 0 4.2.9 6.2 1.9 1.8.9 3.6 1.6 5.6.7 2.1-1 4-2.5 6.4-2.8.5-.1 1-.1 1.5-.1l-.2-4zM41.6 38.2c-1.8 1-3.7 2.1-5.8 2.2-1.9.1-3.7-.6-5.5-1.4-1.5-.7-3.1-1.7-4.8-1.6-1.9.1-3.6 1.4-5.3 2-1.9.7-3.9.8-5.8.1-1.8-.7-3.6-1.9-5.5-1.9-1.7 0-3 .7-4.1 1.8v3.8h40.5v-6.1c-1.2-.3-2.7.6-3.7 1.1z"/><path d="M45.4 27.3l.1-.1c.8-1 1.3-2.1 1.3-3.4V15H27.2v-4.8c-1.3.8-3 .8-4.4 0V15H3.2v8.8c0 1.2.4 2.4 1.3 3.4l.1.1.1.1c2.1 2.1 5.6 2.1 7.7.1 1.1-1 1.6-2.4 1.6-3.8 0 2.9 2.4 5.3 5.4 5.3s5.5-2.3 5.5-5.2v-.1c0 2.9 2.4 5.3 5.4 5.3s5.5-2.3 5.5-5.2v-.1c0 2.9 2.4 5.3 5.5 5.3 1.5 0 2.9-.6 3.9-1.6.1 0 .1 0 .2-.1zM25 50c13.8 0 25-2.5 25-5.5H0c0 3 11.2 5.5 25 5.5zM23.6 9.1c.9.5 1.9.5 2.8 0 1-.6 1.6-1.7 1.6-2.9 0-.9-1.5-6.2-3.1-6.2-1.5 0-3 5.3-3 6.2.1 1.3.7 2.4 1.7 2.9z"/></svg><svg viewBox="-20 -20 90 90" width="90" height="90" id="calendar" y="99.7" xmlns="http://www.w3.org/2000/svg"><path d="M18.1 27.6c0-.6-.5-1.1-1.2-1.1h-4c-.6 0-1.1.5-1.1 1.1v4c0 .6.5 1.1 1.1 1.1h4c.6 0 1.1-.5 1.2-1.1v-4zM28.2 27.6c0-.6-.5-1.1-1.2-1.1h-4c-.6 0-1.1.5-1.2 1.1v3.9c0 .6.5 1.1 1.2 1.1h4c.6 0 1.1-.5 1.2-1.1v-3.9zM38.3 27.6c0-.6-.5-1.1-1.2-1.1h-4c-.6 0-1.1.5-1.2 1.1v4c0 .6.5 1.1 1.2 1.1h4.1c.6 0 1.1-.5 1.1-1.1v-4zM18.1 37.5c0-.6-.5-1.1-1.2-1.1h-4c-.6 0-1.1.5-1.1 1.1v4c0 .6.5 1.1 1.1 1.1h4c.6 0 1.1-.5 1.2-1.1v-4zM28.2 37.5c0-.6-.5-1.1-1.2-1.1h-4c-.6 0-1.1.5-1.2 1.1v4c0 .6.5 1.1 1.2 1.1h4c.6 0 1.1-.5 1.2-1.1v-4zM38.3 37.5c0-.6-.5-1.1-1.2-1.1h-4c-.6 0-1.1.5-1.2 1.1v4c0 .6.5 1.1 1.2 1.1h4.1c.6 0 1.1-.5 1.2-1.1l-.1-4z"/><path d="M45.5 5.6v6c0 2.7-2.3 4.9-5 4.9h-3.2c-2.8 0-5.1-2.2-5.1-4.9V5.5H17.8v6.1c0 2.7-2.3 5-5.1 5H9.5c-2.8 0-5-2.2-5-4.9v-6C2 5.6 0 7.6 0 10v35.5C0 48 2 50 4.6 50h40.8c2.5 0 4.6-2 4.6-4.5V10c0-2.4-2-4.4-4.5-4.4zM44 43.3c0 1.1-.9 1.9-2 1.9H7.8c-1.1 0-2-.9-2-1.9V25c0-1.1.9-1.9 2-1.9H42c1.1 0 2 .9 2 1.9v18.3z"/><path d="M9.5 13.3h3.2c1 0 1.7-.8 1.7-1.7V1.7c0-.9-.8-1.7-1.7-1.7H9.5c-1 0-1.7.8-1.7 1.7v9.9c0 1 .7 1.7 1.7 1.7zM37.2 13.3h3.2c1 0 1.7-.8 1.7-1.7V1.7c0-.9-.8-1.7-1.7-1.7h-3.2c-1 0-1.7.8-1.7 1.7v9.9c0 1 .8 1.7 1.7 1.7z"/></svg><svg viewBox="-20 -20 90 90" width="90" height="90" id="check-mark" x="90" y="99.7" xmlns="http://www.w3.org/2000/svg"><path d="M22.7 41.9c-2.3 2.3-5.9 2.3-8.2 0L1.8 29.3c-2.3-2.2-2.5-5.8-.4-8.2s5.8-2.5 8.2-.4c.2.1.3.3.4.4l7.5 7.5c.6.6 1.5.6 2.1 0L40 8.2c2.2-2.3 5.9-2.5 8.2-.3 2.3 2.2 2.5 5.9.3 8.2l-.3.3-25.5 25.5z"/></svg><svg viewBox="-20 -20 90 90" width="90" height="90" id="clipboard" x="180" y="99.7" xmlns="http://www.w3.org/2000/svg"><path d="M4.8 25c-.2-4.5 3.2-8.3 7.7-8.7h10V11h-10C5.2 11.4-.3 17.7.1 25c-.4 7.3 5.1 13.6 12.4 14.1h10v-5.4h-10C8 33.3 4.6 29.5 4.8 25zM15 27.8h19.9v-5.6H15v5.6zm22.4-16.9h-9.9v5.3h10c4.5.4 7.9 4.2 7.7 8.7.2 4.5-3.2 8.3-7.7 8.7h-9.9V39h10c7.3-.5 12.8-6.7 12.5-14.1.2-7.2-5.4-13.5-12.7-14z"/></svg><svg viewBox="-20 -20 90 90" width="90" height="90" id="close" x="276" xmlns="http://www.w3.org/2000/svg"><path d="M48.4 9.8L33.2 25l15.2 15.2c2.2 2.2 2.3 5.9 0 8.1-2.2 2.2-5.9 2.3-8.1 0L25.1 33.1 9.9 48.3c-2.2 2.2-5.9 2.2-8.1 0-2.2-2.2-2.2-5.9 0-8.1L16.9 25 1.8 9.8c-2.2-2.3-2.2-5.9.1-8.2C4.1-.6 7.7-.6 10 1.6l15.2 15.2 15-15.1c2.2-2.2 5.9-2.2 8.1 0 2.3 2.2 2.3 5.9.1 8.1z"/></svg><svg viewBox="-20 -20 90 90" width="90" height="90" id="comment" x="276" y="90" xmlns="http://www.w3.org/2000/svg"><path d="M37.6 38.5c3.8-1.6 6.9-3.8 9.1-6.6S50 26 50 22.7s-1.1-6.3-3.3-9.1-5.3-5-9.1-6.6c-3.8-1.6-8-2.4-12.6-2.4s-8.7.7-12.5 2.4-6.9 3.8-9.1 6.6S0 19.4 0 22.7c0 2.8.9 5.5 2.5 8s4 4.6 6.9 6.3c-.2.6-.5 1.1-.7 1.6-.3.5-.6 1-.9 1.4-.4.4-.6.8-.8 1s-.4.5-.9 1c-.4.5-.7.8-.8.9 0 0-.1 0-.1.2-.1.1-.2.1-.2.1s-.1.1-.1.2l-.1.2-.1.2c0 .1-.1.1-.1.2v.4c0 .3.2.6.4.8.2.2.5.3.7.3h.1c1-.1 2.1-.3 3.1-.6 3.6-.9 6.9-2.4 9.9-4.5 2.1.4 4.2.6 6.3.6 4.4-.1 8.6-.9 12.5-2.5z"/></svg><svg viewBox="-20 -20 90 90" width="90" height="90" id="designer" y="189.7" xmlns="http://www.w3.org/2000/svg"><path d="M45.4 0H4.6C2.1 0 0 2.4 0 5.2v27c0 2.9 2.1 5.2 4.6 5.2h15.2l-.5 9h-3.5c-.8 0-1.5.8-1.5 1.8 0 .9.7 1.7 1.5 1.7h18.3c.8 0 1.5-.8 1.5-1.8 0-.9-.7-1.7-1.5-1.7h-3.5l-.5-9h15.2c2.5 0 4.6-2.4 4.6-5.2v-27c.1-2.8-2-5.2-4.5-5.2zm-23 46.5l.5-9h4.3l.5 9h-5.3zm24.5-14.2c0 1-.7 1.7-1.5 1.8H4.6c-.8 0-1.5-.8-1.5-1.8v-27c0-1 .7-1.7 1.5-1.7h40.8c.8 0 1.5.8 1.5 1.8v26.9z"/><path d="M31.5 34V12.6H37v2h-.9c-.5 0-.9.4-.9.9s.4 1 .9 1h1v2.9h-.9c-.5 0-.9.4-.9.9s.4 1 .9 1h1v2.9h-.9c-.5 0-.9.4-.9.9s.4 1 .9 1h1V30h-.9c-.5 0-.9.4-.9.9s.4 1 .9 1h1v2l-5.9.1zM25 24.2c.3 0 .7 0 1-.1.2 1.2.4 3.2.6 6h-3.4c.2-2.8.4-4.9.6-6.1.3.1.8.2 1.2.2zM25 22.3c-2.1 0-3.4-2.4-2.4-4.4l2.4-4.4 2.4 4.4c1 1.9-.3 4.4-2.4 4.4zM23.4 32.4h2.9V34h-3c.1-.6.1-1.1.1-1.6zM17.1 20.4h1.8v13.7h-1.8zM13.4 20.4h1.8v13.7h-1.8zM14 18.4l2.2-4.6 2.2 4.6z"/></svg><svg viewBox="-20 -20 90 90" width="90" height="90" id="developer" x="90" y="189.7" xmlns="http://www.w3.org/2000/svg"><path d="M45.4 0H4.6C2.1 0 0 2.3 0 5.2v27c0 2.9 2.1 5.2 4.6 5.2h15.2l-.5 9h-3.5c-.9 0-1.5.8-1.5 1.8S15 50 15.9 50h18.3c.9 0 1.5-.8 1.5-1.8s-.7-1.8-1.5-1.8h-3.5l-.5-9h15.2c2.5 0 4.6-2.3 4.6-5.2v-27C50 2.3 47.9 0 45.4 0zm-23 46.5l.5-9h4.3l.5 9h-5.3zm24.5-14.2c0 1-.7 1.7-1.5 1.8H4.6c-.8 0-1.5-.8-1.5-1.8v-27c0-1 .7-1.7 1.5-1.7h40.8c.8 0 1.5.8 1.5 1.7v27z"/><path d="M18.4 10.9c-.6-.6-1.6-.5-2.2.2L10.6 18c-.5.6-.5 1.4 0 2l5.6 6.9c.6.7 1.5.7 2.2.2.6-.6.7-1.5.2-2.2L13.8 19l4.8-5.9c.5-.7.5-1.7-.2-2.2zM33.7 11.1c-.5-.7-1.5-.8-2.1-.2-.7.6-.8 1.5-.2 2.2l4.8 5.9-4.8 5.9c-.5.7-.4 1.7.2 2.2.6.5 1.6.5 2.1-.2l5.6-6.9c.5-.6.5-1.4 0-2l-5.6-6.9zM28.2 10.6c-.8-.3-1.7.1-2 .9l-5.3 13.7c-.3.8.1 1.7.9 2 .8.3 1.7-.1 2-.9l5.3-13.7c.3-.8-.1-1.7-.9-2z"/></svg><svg viewBox="-20 -20 90 90" width="90" height="90" id="ear" x="180" y="189.7" xmlns="http://www.w3.org/2000/svg"><path d="M37.3 5.4C34 1.9 29.6 0 25 0 15.4 0 7.6 7.8 7.6 17.4c0 1.3 1 2.3 2.3 2.3s2.3-1 2.3-2.3c0-7.1 5.8-12.9 12.9-12.9 7.4 0 12.9 6.8 12.9 12.9 0 6.8-7.3 17.7-10.1 21.3-2.2 2.7-5.1 6-6.2 6.7H16c-1.3 0-2.3 1-2.3 2.3 0 1.3 1 2.3 2.3 2.3h6c1.3 0 2.6-.7 6.1-4.6 1.7-1.9 3.2-3.8 3.3-3.9.5-.6 11.1-14.4 11.1-24.1-.1-4.3-1.9-8.6-5.2-12z"/><path d="M18.9 33.3c-1.3 0-2.3 1-2.3 2.3 0 1.3 1 2.3 2.3 2.3 3.8 0 6.8-3.1 6.8-6.8 0-2.9-1.8-5.5-4.6-6.4v-7.2c0-2.1 1.7-3.8 3.8-3.8s3.8 1.7 3.8 3.8c0 1.3 1 2.3 2.3 2.3 1.3 0 2.3-1 2.3-2.3 0-4.6-3.7-8.3-8.3-8.3s-8.3 3.7-8.3 8.3v9.1c0 1.3 1 2.3 2.3 2.3s2.3 1 2.3 2.3c-.1 1.1-1.1 2.1-2.4 2.1z"/></svg><svg viewBox="-20 -20 90 90" width="90" height="90" id="envelope" x="270" y="189.7" xmlns="http://www.w3.org/2000/svg"><path d="M4.8 17.4c.6.4 2.5 1.8 5.7 4s5.6 3.9 7.3 5.1c.2.1.6.4 1.2.8s1.1.8 1.5 1c.4.3.9.6 1.5.9.5.3 1 .6 1.6.7.4.2.9.2 1.4.2.5 0 .9-.1 1.4-.2.6-.2 1.1-.4 1.6-.7.6-.3 1.1-.6 1.5-.9.4-.3.9-.6 1.5-1.1.6-.4 1-.7 1.2-.8 1.7-1.2 6.1-4.2 13-9 1.3-.9 2.5-2.1 3.4-3.4S50 11.3 50 9.8c0-1.2-.5-2.3-1.3-3.1-.9-.9-1.9-1.3-3.1-1.3h-41c-1.6-.1-2.7.4-3.4 1.4S0 9 0 10.4c0 1.2.5 2.4 1.5 3.8s2.1 2.5 3.3 3.2z"/><path d="M47.2 20.4c-6.1 4.1-10.7 7.3-13.9 9.6-1.1.8-1.9 1.4-2.6 1.8-.7.4-1.5.9-2.6 1.3-1.1.5-2.1.7-3.1.7-.9 0-2-.2-3.1-.7-1.1-.5-2-.9-2.6-1.3-.6-.4-1.5-1-2.6-1.8-2.5-1.8-7.1-5-13.9-9.6-1-.7-2-1.5-2.8-2.4v22.1c0 1.2.5 2.3 1.3 3.1.8.8 2 1.3 3.2 1.3h41.1c2.5 0 4.5-2 4.5-4.4V18c-.9.9-1.9 1.7-2.9 2.4z"/></svg><svg viewBox="-20 -20 90 90" width="90" height="90" id="eye" x="366" xmlns="http://www.w3.org/2000/svg"><path d="M25 10.1c-9.5 0-18.2 5.2-24.6 13.7-.5.7-.5 1.7 0 2.4 6.4 8.5 15 13.7 24.6 13.7s18.2-5.2 24.6-13.7c.5-.7.5-1.7 0-2.4-6.4-8.5-15-13.7-24.6-13.7zm.7 25.4c-5.8.4-10.8-4-11.2-9.8v-1.3c.3-5.2 4.6-9.5 9.8-9.8 5.8-.4 10.8 4 11.2 9.8v1.3c-.3 5.2-4.6 9.4-9.8 9.8zm-.3-4.9c-3.1.2-5.8-2.2-6-5.3-.2-3.1 2.2-5.8 5.3-6 3.1-.2 5.8 2.2 6 5.3v.7c-.2 2.9-2.5 5.2-5.3 5.3z"/></svg><svg viewBox="-20 -20 90 90" width="90" height="90" id="facebook-logo" x="366" y="90" xmlns="http://www.w3.org/2000/svg"><path d="M37.5 0H31c-7.3 0-12 4.8-12 12.3V18h-6.5c-.6 0-1.1.5-1.1 1v8.2c0 .6.5 1 1.1 1H19V49c0 .6.5 1 1.1 1h8.5c.6 0 1-.5 1-1V28.2h7.6c.6 0 1-.5 1-1.1V19c0-.6-.5-1-1-1h-7.6v-4.8c0-2.3.5-3.5 3.6-3.5h4.3c.6 0 1-.5 1-1.1V1c0-.5-.5-1-1-1z"/></svg><svg viewBox="-20 -20 90 90" width="90" height="90" id="flip-arrows" x="366" y="180" xmlns="http://www.w3.org/2000/svg"><path d="M16.6 10.7c.2 0 .4.1.5.3.1 2.4 0 2.4-2.4 3.3-2.7 1-5.3 2.3-7.1 4.9-1.5 2.1-1.3 4.7.1 6.8 2.1 3 5.1 4.3 8.6 4.9.3.1.6.1 1 .2.2 0 .4-.1.5-.3V26.4c0-.2.2-.4.4-.4.1 0 .2 0 .2.1 4.2 2.8 8.3 5.5 12.5 8.3.2.1.2.3.1.5 0 .1-.1.1-.1.1-4.2 2.8-8.3 5.5-12.4 8.3-.2.1-.4.1-.5-.1 0-.1-.1-.1-.1-.2v-3.6c0-.6-.2-.8-.8-1-5.3-1.1-10.2-3-14-7-3.5-3.8-4-8.8-.7-13.1 2.9-3.7 6.9-5.5 11.2-6.9.9-.3 2-.5 3-.7zM35.4 30.5c-.2-.1-.2-.4-.1-.6 0 0 0-.1.1-.1 1.5-1.1 3.2-2.1 4.5-3.4 2.9-3 2.6-6.4-.8-9.1-3.1-2.5-5.3-3.4-8.2-4-.2 0-.4.1-.5.3v3.5c0 .2-.2.4-.4.4-.1 0-.2 0-.2-.1-2.6-1.8-5.2-3.4-7.8-5.2-.2-.1-.2-.3-.1-.5 0-.1.1-.1.1-.1l7.8-5.2c.2-.1.4-.1.5.1 0 .1.1.1.1.2v2.4c0 .3.5.8.8.8 5.3.8 10.2 2.4 14.3 5.8 2.6 2.1 4.4 4.8 4.5 8.2.1 3.8-2 6.4-4.6 8.9-2 1.9-3.7 2-5.8.1-1.2-.8-2.8-1.5-4.2-2.4z"/></svg><svg viewBox="-20 -20 90 90" width="90" height="90" id="github-logo" y="279.7" xmlns="http://www.w3.org/2000/svg"><path d="M46.6 12.8c-2.2-3.9-5.3-7.1-9.1-9.3C33.7 1.1 29.5 0 25 0s-8.7 1.1-12.6 3.4c-3.8 2.2-6.9 5.5-9.1 9.3C1.1 16.7 0 21 0 25.6c0 5.6 1.6 10.6 4.8 15.1s7.3 7.5 12.3 9.3c.6.1 1 0 1.3-.2.3-.3.4-.6.4-1V47v-3l-.8.1c-.6.1-1.2.1-1.8.1-.8 0-1.5-.1-2.3-.2-.8-.1-1.5-.5-2.2-1-.7-.5-1.2-1.2-1.4-2.1l-.3-.8c-.3-.6-.6-1.2-1-1.7-.5-.6-.9-1-1.4-1.3l-.2-.1c-.2-.1-.3-.2-.4-.4-.1-.1-.2-.3-.3-.5-.1-.1 0-.3.2-.4.2-.1.5-.1.9-.1l.6.1c.4.1 1 .3 1.6.8.6.5 1.2 1 1.6 1.7.5.9 1.1 1.6 1.8 2.1s1.4.7 2.1.7c.6 0 1.2 0 1.9-.2.5-.1 1-.3 1.5-.5.2-1.5.7-2.6 1.6-3.4-1.1-.1-2.2-.3-3.3-.6C16 36 15 35.6 14 35c-1-.6-1.9-1.3-2.6-2.2-.7-.9-1.3-2.1-1.7-3.5-.4-1.4-.7-3.1-.7-5 0-2.7.9-5 2.6-6.9-.8-2-.7-4.3.2-6.8.6-.2 1.6 0 2.8.4 1.2.5 2.1.9 2.7 1.3.6.3 1 .6 1.4.9 4.1-1.2 8.4-1.2 12.5 0l1.2-.8c1-.6 2-1.1 3-1.5 1.1-.4 2-.6 2.6-.4 1 2.5 1.1 4.8.3 6.8 1.7 1.9 2.6 4.2 2.6 6.9 0 1.9-.2 3.6-.7 5-.4 1.5-1 2.6-1.7 3.5-.7.9-1.6 1.7-2.6 2.2-1 .6-2 1-3.1 1.3-1.1.3-2.2.5-3.3.6 1.1 1 1.7 2.6 1.7 4.7v7c0 .4.1.7.4 1 .3.3.7.3 1.3.2 5-1.7 9.1-4.8 12.3-9.3 3.2-4.5 4.8-9.5 4.8-15.1 0-4.3-1.1-8.6-3.4-12.5z"/></svg><svg viewBox="-20 -20 90 90" width="90" height="90" id="grid" x="90" y="279.7" xmlns="http://www.w3.org/2000/svg"><path d="M.8 0h20.4c.4 0 .8.4.8.8v20.4c0 .4-.4.8-.8.8H.8c-.4 0-.8-.4-.8-.8V.8C0 .4.4 0 .8 0zM28.8 0h20.4c.5 0 .8.4.8.8v20.4c0 .4-.3.8-.8.8H28.8c-.4 0-.8-.4-.8-.8V.8c0-.4.4-.8.8-.8zM.8 28h20.4c.4 0 .8.4.8.8v20.4c0 .4-.4.8-.8.8H.8c-.4 0-.8-.3-.8-.8V28.8c0-.4.4-.8.8-.8zM28.8 28h20.4c.4 0 .8.4.8.8v20.4c0 .4-.3.8-.8.8H28.8c-.4 0-.8-.3-.8-.8V28.8c0-.4.4-.8.8-.8z"/></svg><svg viewBox="-20 -20 90 90" width="90" height="90" id="heart-fill" x="180" y="279.7" xmlns="http://www.w3.org/2000/svg"><path d="M46 7.1c-2.6-2.8-6.1-4.4-10-4.4-2.9 0-5.5.9-7.9 2.7-1.2 1-2.3 2.1-3.2 3.3-.9-1.3-2-2.4-3.2-3.3-2.3-1.8-5-2.7-7.9-2.7-3.9 0-7.4 1.5-10 4.4-2.6 2.8-4 6.6-4 10.7C0 22 1.6 25.9 5 30c3 3.7 7.4 7.4 12.4 11.7 1.7 1.5 3.7 3.1 5.7 4.9 1.1 1 2.8 1 3.9 0 2-1.8 4-3.4 5.7-4.9 5-4.3 9.4-8 12.4-11.7 3.4-4.1 5-8 5-12.2-.1-4.1-1.5-7.9-4.1-10.7z"/></svg><svg viewBox="-20 -20 90 90" width="90" height="90" id="heart-outline" y="459.7" xmlns="http://www.w3.org/2000/svg"><path d="M25 47.5c-.7 0-1.4-.3-1.9-.7-2-1.8-4-3.5-5.7-4.9C12.3 37.5 8 33.7 5 30c-3.4-4.1-5-8-5-12.3 0-4.2 1.4-8 4-10.8 2.6-2.8 6.1-4.4 10-4.4 2.9 0 5.5.9 7.9 2.7 1.2 1 2.3 2.1 3.2 3.4.9-1.3 2-2.4 3.2-3.4 2.3-1.8 5-2.7 7.9-2.7 3.9 0 7.4 1.6 10 4.4 2.6 2.8 4 6.6 4 10.8 0 4.3-1.6 8.2-5 12.3-3 3.7-7.4 7.4-12.4 11.8-1.7 1.5-3.7 3.2-5.7 5-.7.4-1.4.7-2.1.7zm-11-42c-3 0-5.8 1.2-7.8 3.4C4.1 11.2 3 14.3 3 17.7c0 3.6 1.3 6.8 4.3 10.4 2.9 3.5 7.1 7.2 12.1 11.4 1.7 1.5 3.7 3.2 5.7 5 2.1-1.8 4-3.5 5.7-5 4.9-4.3 9.2-7.9 12.1-11.4 3-3.6 4.3-6.8 4.3-10.4 0-3.4-1.1-6.5-3.2-8.8-2-2.2-4.8-3.4-7.8-3.4-2.2 0-4.3.7-6.1 2.1-1.6 1.3-2.7 2.8-3.4 3.9-.5.9-1.7 1.2-2.5.7-.3-.2-.5-.4-.6-.7-.7-1.1-1.8-2.7-3.4-3.9-2-1.4-4-2.1-6.2-2.1z"/></svg><svg viewBox="-20 -20 90 90" width="90" height="90" id="house" x="360" y="279.7" xmlns="http://www.w3.org/2000/svg"><path d="M49.6 22.6L26.1.5 26 .4c-.5-.5-1.3-.5-1.9 0L.6 22.4C0 23 0 23.9.5 24.5c.5.6 1.4.6 1.9.1l4.2-4v25.7c0 2 1.6 3.7 3.5 3.7h7.4c1.8 0 3.3-1.5 3.3-3.4V33.5c0-.3.2-.5.5-.5h7.5c.3 0 .5.2.5.5v13.1c0 1.9 1.5 3.4 3.3 3.4H40c2 0 3.5-2 3.5-4.6V20.8l4.2 4c.6.5 1.5.5 2-.1.6-.7.5-1.6-.1-2.1zm-8.8 7.1v15.6c0 1.1-.5 1.7-.7 1.7h-7.4c-.3 0-.5-.2-.5-.5v-13c0-1.9-1.5-3.4-3.3-3.4h-7.5c-1.8 0-3.3 1.5-3.3 3.4v13.1c0 .3-.2.5-.5.5h-7.4c-.4 0-.7-.3-.7-.8V18L25 3.4l15.8 14.8v11.5z"/></svg><svg viewBox="-20 -20 90 90" width="90" height="90" id="instagram-logo" x="456" xmlns="http://www.w3.org/2000/svg"><path d="M36.2 0H13.8C6.2 0 0 6.2 0 13.8v22.4C0 43.8 6.2 50 13.8 50h22.4C43.8 50 50 43.8 50 36.2V13.8C49.9 6.2 43.8 0 36.2 0zm9.3 36.2c0 5.2-4.2 9.3-9.4 9.3H13.8c-5.2 0-9.4-4.2-9.4-9.3V13.8c0-5.2 4.2-9.4 9.4-9.4h22.4c5.2 0 9.3 4.2 9.4 9.4l-.1 22.4z"/><path d="M25 12.1c-7.1 0-12.8 5.8-12.8 12.9S17.9 37.9 25 37.9 37.9 32.1 37.9 25c-.1-7.1-5.8-12.9-12.9-12.9zm0 21.3c-4.7 0-8.4-3.8-8.4-8.5s3.8-8.4 8.4-8.4 8.5 3.8 8.5 8.5c-.1 4.6-3.9 8.4-8.5 8.4zM38.4 8.4c-1.8 0-3.3 1.4-3.3 3.3s1.5 3.3 3.3 3.3 3.3-1.4 3.3-3.3c0-.9-.3-1.7-1-2.3-.6-.7-1.5-1.1-2.3-1z"/></svg><svg viewBox="-20 -20 90 90" width="90" height="90" id="linkedin-logo" x="456" y="90" xmlns="http://www.w3.org/2000/svg"><path d="M46.3 0H3.7C1.7 0 0 1.6 0 3.6v42.8c0 2 1.7 3.6 3.7 3.6h42.6c2 0 3.7-1.6 3.7-3.6V3.6c0-2-1.7-3.6-3.7-3.6zM15.2 41.8H7.6V19.3h7.6v22.5zm-3.8-25.6c-2.6 0-4.2-1.7-4.2-3.9s1.7-3.9 4.3-3.9 4.2 1.7 4.2 3.9c-.1 2.2-1.7 3.9-4.3 3.9zm31 25.6h-7.6v-12c0-3-1.1-5.1-3.8-5.1-2.1 0-3.3 1.4-3.9 2.7-.2.5-.3 1.2-.3 1.8v12.6h-7.6s.1-20.5 0-22.6h7.6v3.2c1-1.5 2.8-3.7 6.8-3.7 5 0 8.7 3.2 8.7 10.2l.1 12.9zM26.8 22.6c.1-.1.1-.1 0 0z"/></svg><svg viewBox="-20 -20 90 90" width="90" height="90" id="list" x="456" y="180" xmlns="http://www.w3.org/2000/svg"><path d="M46.2 36.2H16.1c-2.1 0-3.8 1.7-3.8 3.8 0 2.1 1.7 3.8 3.8 3.8h30.1c2.1 0 3.8-1.7 3.8-3.8s-1.7-3.8-3.8-3.8zM46.2 21.2H16.1c-2.1 0-3.8 1.7-3.8 3.8 0 2.1 1.7 3.8 3.8 3.8h30.1c2.1 0 3.8-1.7 3.8-3.8 0-2.1-1.7-3.8-3.8-3.8zM16.1 13.7h30.1c2.1 0 3.8-1.7 3.8-3.8 0-2.1-1.7-3.8-3.8-3.8H16.1c-2.1 0-3.8 1.7-3.8 3.8 0 2.2 1.7 3.8 3.8 3.8z"/><circle cx="3.8" cy="10" r="3.8"/><circle cx="3.8" cy="25" r="3.8"/><circle cx="3.8" cy="40" r="3.8"/></svg><svg viewBox="-20 -20 90 90" width="90" height="90" id="location" x="456" y="270" xmlns="http://www.w3.org/2000/svg"><path d="M25 0C15 0 6.9 8.1 6.9 18.1c0 12.4 16.2 30.6 16.9 31.3.6.7 1.6.7 2.3.1l.1-.1c.7-.8 16.9-19 16.9-31.3C43.1 8.1 35 0 25 0zm0 27.2c-5 0-9.1-4.1-9.1-9.1S20 9 25 9s9.1 4.1 9.1 9.1-4.1 9.1-9.1 9.1z"/></svg><svg viewBox="-20 -20 90 90" width="90" height="90" id="logo" y="369.7" xmlns="http://www.w3.org/2000/svg"><path d="M50 15.6C50 23 44 29 36.5 29c-2.1 0-3.8-1.7-3.8-3.8s1.7-3.8 3.8-3.8c3.2 0 5.8-2.6 5.8-5.8s-2.6-5.8-5.8-5.8c-3.2 0-5.8 2.6-5.8 5.8v23.1c-.1 5.3-4.5 9.5-9.8 9.5-5.2-.1-9.4-4.3-9.5-9.5V15.6c0-1.1-.9-1.9-2-1.9-1 0-1.8.8-1.9 1.9v23.1c.1 2.1-1.6 3.9-3.7 3.9-2 0-3.7-1.6-3.8-3.8V15.6c-.1-5.3 4.1-9.7 9.5-9.8 5.3-.1 9.7 4.1 9.8 9.5V38.7c0 1.1.9 1.9 1.9 1.9s1.9-.9 1.9-1.9V15.6C23 8.1 28.9 2 36.3 1.9c7.5-.1 13.6 5.8 13.7 13.3v.4z"/></svg><svg viewBox="-20 -20 90 90" width="90" height="90" id="logo-design" x="90" y="369.7" xmlns="http://www.w3.org/2000/svg"><path d="M42.2 9.8c-.5 0-1 .4-1 1 0 .5.4 1 1 1 .5 0 1-.4 1-1s-.5-1-1-1zM7.8 9.8c-.5 0-1 .4-1 1 0 .5.4 1 1 1s1-.4 1-1-.4-1-1-1zM49 21.5h-1.2c-.3-2.8-1.2-5.5-2.6-8-.3-.4-.9-.6-1.3-.3s-.6.8-.3 1.2c1.2 2.2 2 4.6 2.4 7h-.8c-.5 0-1 .4-1 1v3.9c0 .5.4 1 1 1H49c.5 0 1-.4 1-1v-3.9c0-.5-.4-.9-1-.9zm-1 3.9h-1.9v-1.9H48v1.9zM35.7 28.6c0-.1 0-.1 0 0v-.1-.1-.1-.1l-9.8-17.9c-.2-.5-.9-.6-1.3-.4-.2.1-.3.2-.4.4l-9.8 17.9v.6c0 .1 0 0 0 0v.2l3.5 9.3c-1.4.7-2 2.5-1.3 3.9.3.7.9 1.2 1.7 1.5V49c0 .5.4 1 1 1H31c.5 0 1-.4 1-1v-5.3c1.5-.5 2.3-2.2 1.8-3.7-.2-.7-.8-1.3-1.5-1.6l3.5-9.3V29v-.1-.1c0-.1-.1-.2-.1-.2zm-10.7-1c.5 0 1 .4 1 1s-.4 1-1 1-1-.4-1-1 .4-1 1-1zM29.9 48h-9.8v-4.2h9.8V48zm1.6-6.4c-.2.2-.4.3-.7.3H19.1c-.5 0-1-.4-1-1 0-.5.4-1 1-1h11.7c.5 0 1 .4 1 1 0 .3-.1.5-.3.7zM30.2 38H19.8l-3.2-8.4h2.5c.5 0 1-.4 1-1 0-.5-.4-1-1-1h-2.3l7.2-13v11.3c-1.5.5-2.3 2.2-1.8 3.7.5 1.5 2.2 2.3 3.7 1.8 1.5-.5 2.3-2.2 1.8-3.7-.3-.8-1-1.5-1.8-1.8V14.6L33 27.7h-2.3c-.5 0-1 .4-1 1s.4 1 1 1h2.5l-3 8.3zM6.1 13.1c-.5-.2-1.1-.1-1.3.4-1.4 2.5-2.3 5.2-2.6 8H1c-.5 0-1 .4-1 1v3.9c0 .5.4 1 1 1h3.9c.5 0 1-.4 1-1v-3.9c0-.5-.4-1-1-1h-.8c.3-2.5 1.1-4.8 2.4-7 .2-.5.1-1.1-.4-1.4zM3.9 25.4h-2v-1.9h1.9l.1 1.9zM47.1 0c-1.2 0-2.3.8-2.7 1.9H27.9V1c0-.5-.4-1-1-1H23c-.5 0-1 .4-1 1v1H5.7C5.2.4 3.5-.4 1.9.2S-.4 2.4.1 3.9s2.2 2.3 3.7 1.8c.8-.3 1.5-1 1.8-1.8h9.8c-2.1.9-4 2-5.6 3.3-.4.3-.5 1-.1 1.4.3.4 1 .5 1.4.1 2.8-2.3 6.8-4 10.9-4.6v.8c0 .5.4 1 1 1h4c.5 0 1-.4 1-1v-.8c4 .6 8 2.3 10.8 4.6.4.3 1 .3 1.4-.1s.3-1-.1-1.4c-1.6-1.3-3.5-2.5-5.6-3.3h9.8c.5 1.5 2.2 2.3 3.7 1.8 1.5-.5 2.3-2.2 1.8-3.7-.4-1.2-1.5-2-2.7-2zM2.9 3.9c-.5 0-1-.4-1-1s.4-1 1-1 1 .4 1 1-.4 1-1 1zm23.1-1v1h-2v-2h2v1zm21.1 1c-.5 0-1-.4-1-1s.4-1 1-1 1 .4 1 1-.5 1-1 1z"/></svg><svg viewBox="-20 -20 90 90" width="90" height="90" id="pdf" x="180" y="369.7" xmlns="http://www.w3.org/2000/svg"><path d="M23 15.6c.3-1.1.6-1.7.6-2.5v-.5c.3-1.4.3-2.5 0-2.8v-.4l-.3-.3c0 .1-.1.3-.3.3-.5 1.7-.5 3.6 0 6.2zm-8.3 19.1c-.6.3-1.1.6-1.4.8-1.9 1.7-3.3 3.6-3.6 4.4 1.7-.2 3.3-1.8 5-5.2zm25.6-4.1c-.3-.3-1.4-1.1-5.3-1.1h-.6v.3c1.9.8 3.9 1.4 5.3 1.4h.8v-.3c-.1-.1-.2-.2-.2-.3zM44.4 0H5.6C2.5 0 0 2.5 0 5.6v38.9c0 3 2.5 5.5 5.6 5.5h38.9c3.1 0 5.6-2.5 5.6-5.6V5.6C50 2.5 47.5 0 44.4 0zm-3 32.8c-.8.4-1.6.6-2.5.6-2.2 0-5.6-.6-8.3-1.9-4.7.6-8.3 1.1-11.1 2.2-.3 0-.3 0-.6.3-3.3 5.8-6.1 8.6-8.3 8.6-.5 0-.8 0-1.1-.3l-1.3-.8v-.3c-.3-.6-.3-.8-.3-1.4.3-1.4 1.9-3.9 5.3-5.8.5-.3 1.4-.8 2.5-1.4.8-1.4 1.7-3 2.8-5 1.4-2.8 2.2-5.6 3-8.1-1.1-3.3-1.7-5.3-.6-9.1.3-1.1 1.1-2.2 2.2-2.2h.6c.6 0 1.1.3 1.7.5 1.9 1.9 1.1 6.4 0 10v.3c1.1 3 2.8 5.6 4.4 7.2.8.6 1.4 1.1 2.5 1.7 1.4 0 2.5-.3 3.6-.3 3.3 0 5.6.6 6.4 1.9.3.6.3 1.1.3 1.7-.4.2-.7 1-1.2 1.6zM23.3 21.9c-.6 1.9-1.7 4.2-2.8 6.7-.6 1.1-1.1 1.9-1.7 3h.6c3.6-1.4 6.9-2.2 9.2-2.5-.4-.2-.8-.5-1.1-.8-1.4-1.6-3.1-3.9-4.2-6.4z"/></svg><svg viewBox="-20 -20 90 90" width="90" height="90" id="pencil" x="270" y="369.7" xmlns="http://www.w3.org/2000/svg"><path d="M48.2 15.1L46 17.3 32.7 4l2.2-2.2c2.4-2.4 6.4-2.4 8.8 0l4.4 4.4c2.5 2.5 2.5 6.4.1 8.9zm-31 26.5c-.6.6-.6 1.6 0 2.2.6.6 1.6.6 2.2 0l24.3-24.3-2.2-2.2-24.3 24.3zm-11-11c-.6.6-.6 1.6 0 2.2.6.6 1.6.6 2.2 0L32.7 8.5l-2.2-2.2L6.2 30.6zm28.7-19.9L10.6 35c-1.2 1.2-1.2 3.2 0 4.4 1.2 1.2 3.2 1.2 4.4 0l24.3-24.3-4.4-4.4zM15 46c-.7-.7-1.1-1.7-1.2-2.7-.3.1-.6.1-1 .1-3.4.1-6.2-2.6-6.2-6 0-.4 0-.8.1-1.2-1-.1-2-.6-2.7-1.3-.1-.1-.1-.2-.2-.2L0 50l15.2-3.8c0-.1-.1-.1-.2-.2z"/></svg><svg viewBox="-20 -20 90 90" width="90" height="90" id="phone" x="360" y="369.7" xmlns="http://www.w3.org/2000/svg"><path d="M48.9 39.5l-7.7-7.7c-1.5-1.5-4.1-1.5-5.7.1l-3.9 3.9-.8-.4c-2.5-1.4-5.8-3.2-9.4-6.8-3.5-3.5-5.4-6.9-6.8-9.4-.1-.3-.3-.5-.4-.8l2.6-2.6 1.3-1.3c1.6-1.6 1.6-4.2.1-5.7l-7.7-7.7C9-.4 6.5-.4 4.9 1.2L2.7 3.4l.1.1c-.8.9-1.4 2-1.8 3.2-.4 1-.7 2.1-.8 3.2-1 8.5 2.8 16.2 13.3 26.7C28 51.1 39.6 50 40.2 50c1.1-.1 2.2-.4 3.2-.8 1.1-.4 2.2-1 3.2-1.8l2.2-2.2c1.6-1.6 1.6-4.1.1-5.7z"/></svg><svg viewBox="-20 -20 90 90" width="90" height="90" id="plus" x="450" y="369.7" xmlns="http://www.w3.org/2000/svg"><path d="M43.4 18.3H31.7V6.6C31.7 3 28.7 0 25 0s-6.7 3-6.7 6.7v11.7H6.6C3 18.3 0 21.3 0 25s3 6.6 6.6 6.6h11.7v11.8c0 3.7 3 6.6 6.6 6.6 3.7 0 6.6-3 6.6-6.6V31.6h11.8c3.7 0 6.6-3 6.6-6.6.1-3.6-2.9-6.6-6.5-6.7z"/></svg><svg version="1.1" id="quotes" x="546" viewBox="-20 -20 90 90" xml:space="preserve" width="90" height="90" xmlns="http://www.w3.org/2000/svg"><style>.best0{fill:#030104}</style><path class="best0" d="M9.6 3.3C4.2 3.4-.1 7.8 0 13.2c-.1 5.4 4.2 9.8 9.6 9.9 9.6 0 3.2 19.1-9.6 19.1v4.6c22.8-.1 31.8-43.5 9.6-43.5zm27.6 0c-5.4.1-9.7 4.5-9.6 9.9-.1 5.4 4.2 9.8 9.6 9.9 9.6 0 3.2 19.1-9.6 19.1v4.6c22.9-.1 31.8-43.5 9.6-43.5z"/></svg><svg viewBox="-20 -20 90 90" width="90" height="90" id="replay" x="546" y="90" xmlns="http://www.w3.org/2000/svg"><path d="M50 4.2v14.6c0 .6-.2 1.1-.6 1.5-.4.4-.9.6-1.5.6H33.3c-.9 0-1.6-.4-1.9-1.3-.4-.8-.2-1.6.5-2.2l4.5-4.5c-3.2-3-7-4.5-11.4-4.5-2.2 0-4.4.4-6.5 1.3-4 1.7-7.2 4.9-8.9 8.9-1.8 4.1-1.8 8.8 0 12.9 1.7 4 4.9 7.2 8.9 8.9 2 .9 4.2 1.3 6.5 1.3 5.2 0 10-2.4 13.2-6.5.2-.2.4-.3.7-.4.3 0 .6.1.8.3l4.5 4.5c.2.2.3.4.3.7 0 .3-.1.5-.2.7-2.3 2.8-5.3 5.1-8.6 6.7-3.3 1.6-7 2.4-10.6 2.4-3.3 0-6.6-.7-9.7-2-3.1-1.3-5.7-3.1-8-5.3s-4-4.9-5.3-8c-2.7-6.2-2.7-13.2 0-19.4 1.3-3.1 3.1-5.7 5.3-8s4.9-4 8-5.3c6-2.6 12.9-2.7 19-.2 3 1.2 5.7 2.9 8 5.1l4.2-4.2c.6-.7 1.4-.8 2.3-.5.7.3 1.1 1 1.1 1.9z"/></svg><svg viewBox="-20 -20 90 90" width="90" height="90" id="search" x="546" y="180" xmlns="http://www.w3.org/2000/svg"><path d="M33.6 5.8c-7.7-7.7-20.1-7.7-27.8 0s-7.7 20.1 0 27.8c6.7 6.7 17.3 7.7 25.2 2.3.2.8.6 1.5 1.1 2.1l11.2 11.2c1.8 1.4 4.4 1.1 5.8-.7 1.2-1.5 1.2-3.6 0-5.1L37.9 32.1c-.6-.6-1.3-1-2.1-1.1 5.5-7.9 4.6-18.5-2.2-25.2zm-3.5 24.3c-5.7 5.7-15 5.7-20.8 0s-5.7-15 0-20.8c5.7-5.7 15-5.7 20.8 0 5.7 5.7 5.7 15 0 20.8z"/></svg><svg viewBox="-20 -20 90 90" width="90" height="90" id="skype-logo" x="546" y="270" xmlns="http://www.w3.org/2000/svg"><path d="M47.8 28.6c.2-1.2.3-2.4.3-3.6 0-12.8-10.4-23.2-23.2-23.2-1.2 0-2.4.1-3.6.3C14.8-2 6.1.1 2.1 6.7c-2.8 4.5-2.8 10.2 0 14.7-.2 1.2-.3 2.4-.3 3.6 0 12.8 10.4 23.2 23.2 23.2 1.2 0 2.4-.1 3.6-.3 6.6 4.1 15.2 2 19.3-4.5 2.7-4.6 2.7-10.3-.1-14.8zM36 35.5c-1 1.4-2.4 2.5-4.3 3.3-1.9.8-4.2 1.2-6.7 1.2-3.1 0-5.6-.5-7.7-1.6-1.4-.7-2.6-1.8-3.5-3.1-.9-1.3-1.3-2.6-1.3-3.8 0-.7.3-1.4.8-1.9.6-.5 1.2-.8 2.1-.8.6 0 1.2.2 1.8.6.5.4.9 1 1.2 1.8.3.8.8 1.6 1.3 2.3.5.6 1.2 1.2 1.9 1.5.8.4 1.9.6 3.2.6 1.9 0 3.3-.4 4.5-1.2 1.1-.8 1.7-1.8 1.7-2.9 0-.9-.3-1.7-.9-2.2-.6-.6-1.4-1-2.4-1.3s-2.3-.6-4-1c-2.2-.5-4.1-1.1-5.6-1.7s-2.7-1.6-3.6-2.7c-.9-1.1-1.3-2.6-1.3-4.2s.5-3.1 1.4-4.3c.9-1.2 2.3-2.2 4.1-2.9 1.8-.7 3.9-1 6.3-1 1.9 0 3.6.2 5 .7 1.4.4 2.6 1 3.5 1.8.9.7 1.6 1.5 2 2.3.4.8.6 1.6.6 2.4 0 .7-.3 1.4-.8 1.9-.5.6-1.3.9-2.1.9-.7 0-1.3-.2-1.7-.5-.4-.4-.8-.9-1.2-1.7-.6-1.1-1.2-1.9-2-2.5-.8-.6-2-.9-3.8-.9-1.6 0-2.9.3-3.9 1s-1.4 1.4-1.5 2.3c0 .5.2 1 .5 1.4.4.4.8.8 1.4 1 .6.3 1.2.5 1.8.7.6.2 1.6.4 3 .7 1.8.4 3.3.8 4.8 1.2 1.4.5 2.6 1 3.6 1.7 1 .6 1.8 1.5 2.4 2.5.6 1 .9 2.3.9 3.7-.1 1.7-.6 3.3-1.5 4.7z"/></svg><svg viewBox="-20 -20 90 90" width="90" height="90" id="speaking" x="546" y="360" xmlns="http://www.w3.org/2000/svg"><path d="M21.4 41.4h-17V31.3c-5.5-5.2-5.9-13.8-.7-19.3s13.7-5.9 19.3-.8c1.9 1.7 3.2 4 3.9 6.4l.1.2.1 2.2 4.1 5.8-3.6 2.6v2c0 2.4-2 4.4-4.4 4.4h-1.7l-.1 6.6zM7.8 37.9H18v-6.4h5.1c.5 0 1-.4 1-1v-3.8l2.3-1.7-2.7-3.8-.1-2.9c-1.6-5.4-7.3-8.6-12.7-7s-8.6 7.3-7 12.7c.6 2 1.7 3.8 3.4 5.1l.6.5c-.1.1-.1 8.3-.1 8.3zM35 32l-2.4-2.4c1.5-1.6 1.5-4.1 0-5.6l2.4-2.4c2.8 2.9 2.8 7.5 0 10.4z"/><path d="M39.6 35.7l-2.4-2.4c3.6-3.6 3.6-9.3 0-12.9l2.4-2.4c4.9 4.8 4.9 12.8 0 17.7z"/><path d="M44.9 39.1l-2.4-2.4c5.5-5.5 5.5-14.3 0-19.8l2.4-2.4c6.8 6.8 6.8 17.8 0 24.6z"/></svg><svg version="1.1" id="web-design" viewBox="-20 -20 96 99.7" xml:space="preserve" width="96" height="99.7" xmlns="http://www.w3.org/2000/svg"><style>.bjst0{display:none}.bjst1{display:inline}.bjst2{fill:none;stroke:#b3b3b3;stroke-width:.1;stroke-miterlimit:10}</style><g class="bjst0"><g class="bjst1"><path class="bjst2" d="M-2 0h60v60H-2zM28 0v60M58 30H-2M-2 0l60 60"/><path class="bjst2" d="M6 8h44v44H6zM58 0L-2 60M-2 30L28 0M28 0l30 30M58 30L28 60M28 60L-2 30"/><circle class="bjst2" cx="28" cy="30" r="21"/></g></g><path d="M23.3 59.7L16.6 53l6.7-6.7 1.4 1.4-5.3 5.3 5.3 5.3z"/><path d="M51 0H5C2.2 0 0 2.2 0 5v44c0 2.8 2.2 5 5 5h9.8l-1-1 1-1H5c-1.7 0-3-1.3-3-3V10h52v39c0 1.7-1.3 3-3 3h-9.8l1 1-1 1H51c2.8 0 5-2.2 5-5V5c0-2.8-2.2-5-5-5zM2 5c0-1.7 1.3-3 3-3h39v6H2V5zm44 3V2h5c1.7 0 3 1.3 3 3v3h-8z"/><path d="M32.7 59.7l-1.4-1.4 5.3-5.3-5.3-5.3 1.4-1.4 6.7 6.7z"/><path transform="rotate(-80.526 27.995 53.002)" d="M21.9 52h12.2v2H21.9z"/><path d="M4 14h42v2H4zM4 20h48v2H4zM4 26h38v2H4zM4 32h42v2H4zM4 38h48v2H4z"/></svg></svg>